M48
;DRILL file {KiCad 5.0.2+dfsg1-1} date Tue 28 Dec 2021 09:32:14 AM CET
;FORMAT={-:-/ absolute / inch / decimal}
FMAT,2
INCH,TZ
T1C0.0157
T2C0.0394
T3C0.0512
%
G90
G05
T1
X4.5079Y-3.0512
X4.5669Y-3.4252
X4.6269Y-3.0533
X4.7599Y-2.7411
X4.8Y-2.6
X4.803Y-2.5518
X4.8237Y-2.9745
X4.8622Y-2.6969
X4.8626Y-4.9819
X4.875Y-4.625
X4.8819Y-4.2126
X4.8832Y-4.2535
X4.8868Y-2.5712
X4.9016Y-4.8031
X4.902Y-2.974
X4.902Y-5.2181
X4.9224Y-2.588
X4.9803Y-2.6378
X4.9808Y-2.6777
X4.9812Y-3.6822
X4.984Y-4.5525
X5.Y-3.9568
X5.Y-5.175
X5.0176Y-3.5611
X5.0201Y-2.974
X5.0201Y-4.5882
X5.025Y-4.1
X5.0394Y-2.7165
X5.0594Y-2.8953
X5.0594Y-5.1787
X5.0616Y-4.6344
X5.0855Y-2.5865
X5.1382Y-2.5409
X5.1382Y-2.974
X5.1382Y-3.7614
X5.1382Y-3.8008
X5.1382Y-4.4701
X5.15Y-4.5488
X5.179Y-3.759
X5.2154Y-2.8451
X5.2169Y-3.3283
X5.2169Y-3.722
X5.2278Y-4.7855
X5.2362Y-2.5984
X5.25Y-4.175
X5.2563Y-2.974
X5.2563Y-5.1
X5.2957Y-3.3283
X5.2957Y-4.3126
X5.2957Y-4.9031
X5.3Y-4.625
X5.3Y-4.85
X5.325Y-4.1
X5.335Y-2.5803
X5.335Y-2.974
X5.335Y-3.8795
X5.3744Y-3.3283
X5.375Y-3.775
X5.4027Y-3.5777
X5.4138Y-3.3283
X5.4531Y-2.974
X5.4612Y-2.553
X5.5713Y-4.7063
T2
X4.68Y-3.39
X4.68Y-3.49
X4.68Y-3.59
X4.68Y-3.69
X4.68Y-3.79
X4.68Y-3.89
X4.68Y-3.99
X4.68Y-4.09
X4.68Y-4.19
X4.68Y-4.29
X4.68Y-4.39
X4.68Y-4.49
X4.68Y-4.59
X4.68Y-4.69
X4.68Y-4.79
X4.68Y-4.89
X4.68Y-4.99
X4.68Y-5.09
X4.68Y-5.19
X4.68Y-5.29
X4.68Y-5.39
X4.68Y-5.49
X5.48Y-3.39
X5.48Y-3.49
X5.48Y-3.59
X5.48Y-3.69
X5.48Y-3.79
X5.48Y-3.89
X5.48Y-3.99
X5.48Y-4.09
X5.48Y-4.19
X5.48Y-4.29
X5.48Y-4.39
X5.48Y-4.49
X5.48Y-4.59
X5.48Y-4.69
X5.48Y-4.79
X5.48Y-4.89
X5.48Y-4.99
X5.48Y-5.09
X5.48Y-5.19
X5.48Y-5.29
X5.48Y-5.39
X5.48Y-5.49
X4.33Y-2.655
X4.33Y-2.755
X4.33Y-2.855
X4.33Y-2.955
X4.33Y-3.055
X4.33Y-3.155
X4.33Y-3.47
X4.33Y-3.57
X4.33Y-3.67
X4.33Y-3.77
X4.33Y-3.87
X4.33Y-3.97
X4.33Y-4.07
T3
X5.84Y-4.0367
X5.84Y-4.1941
X5.84Y-4.3516
X5.84Y-4.5091
X5.84Y-4.765
X5.84Y-4.9225
X5.84Y-5.08
T0
M30
