M48
;DRILL file {KiCad 5.0.2+dfsg1-1} date Tue 28 Dec 2021 09:49:33 AM CET
;FORMAT={-:-/ absolute / metric / decimal}
FMAT,2
METRIC,TZ
T1C0.400
T2C1.000
T3C1.300
%
G90
G05
T1
X114.5Y-77.5
X116.Y-87.
X117.523Y-77.553
X120.902Y-69.623
X121.92Y-66.04
X121.997Y-64.815
X122.523Y-75.553
X123.5Y-68.5
X123.51Y-126.54
X123.825Y-117.475
X124.Y-107.
X124.034Y-108.04
X124.125Y-65.309
X124.5Y-122.
X124.51Y-75.54
X124.51Y-132.54
X125.03Y-65.735
X126.5Y-67.
X126.513Y-68.013
X126.523Y-93.527
X126.594Y-115.633
X127.Y-100.502
X127.Y-131.445
X127.448Y-90.453
X127.51Y-75.54
X127.51Y-116.54
X127.635Y-104.14
X128.Y-69.
X128.51Y-73.54
X128.51Y-131.54
X128.564Y-117.715
X129.171Y-65.698
X130.51Y-64.54
X130.51Y-75.54
X130.51Y-95.54
X130.51Y-96.54
X130.51Y-113.54
X130.81Y-115.54
X131.547Y-95.479
X132.471Y-72.265
X132.51Y-84.54
X132.51Y-94.54
X132.785Y-121.553
X133.Y-66.
X133.35Y-106.045
X133.51Y-75.54
X133.51Y-129.54
X134.51Y-84.54
X134.51Y-109.54
X134.51Y-124.54
X134.62Y-117.475
X134.62Y-123.19
X135.255Y-104.14
X135.51Y-65.54
X135.51Y-75.54
X135.51Y-98.54
X136.51Y-84.54
X136.525Y-95.885
X137.229Y-90.874
X137.51Y-84.54
X138.51Y-75.54
X138.715Y-64.847
X141.51Y-119.54
T2
X118.872Y-86.106
X118.872Y-88.646
X118.872Y-91.186
X118.872Y-93.726
X118.872Y-96.266
X118.872Y-98.806
X118.872Y-101.346
X118.872Y-103.886
X118.872Y-106.426
X118.872Y-108.966
X118.872Y-111.506
X118.872Y-114.046
X118.872Y-116.586
X118.872Y-119.126
X118.872Y-121.666
X118.872Y-124.206
X118.872Y-126.746
X118.872Y-129.286
X118.872Y-131.826
X118.872Y-134.366
X118.872Y-136.906
X118.872Y-139.446
X139.192Y-86.106
X139.192Y-88.646
X139.192Y-91.186
X139.192Y-93.726
X139.192Y-96.266
X139.192Y-98.806
X139.192Y-101.346
X139.192Y-103.886
X139.192Y-106.426
X139.192Y-108.966
X139.192Y-111.506
X139.192Y-114.046
X139.192Y-116.586
X139.192Y-119.126
X139.192Y-121.666
X139.192Y-124.206
X139.192Y-126.746
X139.192Y-129.286
X139.192Y-131.826
X139.192Y-134.366
X139.192Y-136.906
X139.192Y-139.446
X109.982Y-67.437
X109.982Y-69.977
X109.982Y-72.517
X109.982Y-75.057
X109.982Y-77.597
X109.982Y-80.137
X109.982Y-88.138
X109.982Y-90.678
X109.982Y-93.218
X109.982Y-95.758
X109.982Y-98.298
X109.982Y-100.838
X109.982Y-103.378
T3
X148.336Y-102.531
X148.336Y-106.531
X148.336Y-110.531
X148.336Y-114.531
X148.336Y-121.031
X148.336Y-125.031
X148.336Y-129.031
T0
M30
