%TF.GenerationSoftware,KiCad,Pcbnew,5.0.2+dfsg1-1*%
%TF.CreationDate,2021-12-28T09:45:32+01:00*%
%TF.ProjectId,GbSwitchFp,47625377-6974-4636-9846-702e6b696361,rev?*%
%TF.SameCoordinates,Original*%
%TF.FileFunction,Paste,Bot*%
%TF.FilePolarity,Positive*%
%FSLAX46Y46*%
G04 Gerber Fmt 4.6, Leading zero omitted, Abs format (unit mm)*
G04 Created by KiCad (PCBNEW 5.0.2+dfsg1-1) date Tue 28 Dec 2021 09:45:32 AM CET*
%MOMM*%
%LPD*%
G01*
G04 APERTURE LIST*
%ADD10C,0.100000*%
%ADD11C,0.875000*%
%ADD12R,0.800000X1.300000*%
%ADD13R,1.100000X0.400000*%
G04 APERTURE END LIST*
D10*
G36*
X124102691Y-115438553D02*
X124123926Y-115441703D01*
X124144750Y-115446919D01*
X124164962Y-115454151D01*
X124184368Y-115463330D01*
X124202781Y-115474366D01*
X124220024Y-115487154D01*
X124235930Y-115501570D01*
X124250346Y-115517476D01*
X124263134Y-115534719D01*
X124274170Y-115553132D01*
X124283349Y-115572538D01*
X124290581Y-115592750D01*
X124295797Y-115613574D01*
X124298947Y-115634809D01*
X124300000Y-115656250D01*
X124300000Y-116093750D01*
X124298947Y-116115191D01*
X124295797Y-116136426D01*
X124290581Y-116157250D01*
X124283349Y-116177462D01*
X124274170Y-116196868D01*
X124263134Y-116215281D01*
X124250346Y-116232524D01*
X124235930Y-116248430D01*
X124220024Y-116262846D01*
X124202781Y-116275634D01*
X124184368Y-116286670D01*
X124164962Y-116295849D01*
X124144750Y-116303081D01*
X124123926Y-116308297D01*
X124102691Y-116311447D01*
X124081250Y-116312500D01*
X123568750Y-116312500D01*
X123547309Y-116311447D01*
X123526074Y-116308297D01*
X123505250Y-116303081D01*
X123485038Y-116295849D01*
X123465632Y-116286670D01*
X123447219Y-116275634D01*
X123429976Y-116262846D01*
X123414070Y-116248430D01*
X123399654Y-116232524D01*
X123386866Y-116215281D01*
X123375830Y-116196868D01*
X123366651Y-116177462D01*
X123359419Y-116157250D01*
X123354203Y-116136426D01*
X123351053Y-116115191D01*
X123350000Y-116093750D01*
X123350000Y-115656250D01*
X123351053Y-115634809D01*
X123354203Y-115613574D01*
X123359419Y-115592750D01*
X123366651Y-115572538D01*
X123375830Y-115553132D01*
X123386866Y-115534719D01*
X123399654Y-115517476D01*
X123414070Y-115501570D01*
X123429976Y-115487154D01*
X123447219Y-115474366D01*
X123465632Y-115463330D01*
X123485038Y-115454151D01*
X123505250Y-115446919D01*
X123526074Y-115441703D01*
X123547309Y-115438553D01*
X123568750Y-115437500D01*
X124081250Y-115437500D01*
X124102691Y-115438553D01*
X124102691Y-115438553D01*
G37*
D11*
X123825000Y-115875000D03*
D10*
G36*
X124102691Y-113863553D02*
X124123926Y-113866703D01*
X124144750Y-113871919D01*
X124164962Y-113879151D01*
X124184368Y-113888330D01*
X124202781Y-113899366D01*
X124220024Y-113912154D01*
X124235930Y-113926570D01*
X124250346Y-113942476D01*
X124263134Y-113959719D01*
X124274170Y-113978132D01*
X124283349Y-113997538D01*
X124290581Y-114017750D01*
X124295797Y-114038574D01*
X124298947Y-114059809D01*
X124300000Y-114081250D01*
X124300000Y-114518750D01*
X124298947Y-114540191D01*
X124295797Y-114561426D01*
X124290581Y-114582250D01*
X124283349Y-114602462D01*
X124274170Y-114621868D01*
X124263134Y-114640281D01*
X124250346Y-114657524D01*
X124235930Y-114673430D01*
X124220024Y-114687846D01*
X124202781Y-114700634D01*
X124184368Y-114711670D01*
X124164962Y-114720849D01*
X124144750Y-114728081D01*
X124123926Y-114733297D01*
X124102691Y-114736447D01*
X124081250Y-114737500D01*
X123568750Y-114737500D01*
X123547309Y-114736447D01*
X123526074Y-114733297D01*
X123505250Y-114728081D01*
X123485038Y-114720849D01*
X123465632Y-114711670D01*
X123447219Y-114700634D01*
X123429976Y-114687846D01*
X123414070Y-114673430D01*
X123399654Y-114657524D01*
X123386866Y-114640281D01*
X123375830Y-114621868D01*
X123366651Y-114602462D01*
X123359419Y-114582250D01*
X123354203Y-114561426D01*
X123351053Y-114540191D01*
X123350000Y-114518750D01*
X123350000Y-114081250D01*
X123351053Y-114059809D01*
X123354203Y-114038574D01*
X123359419Y-114017750D01*
X123366651Y-113997538D01*
X123375830Y-113978132D01*
X123386866Y-113959719D01*
X123399654Y-113942476D01*
X123414070Y-113926570D01*
X123429976Y-113912154D01*
X123447219Y-113899366D01*
X123465632Y-113888330D01*
X123485038Y-113879151D01*
X123505250Y-113871919D01*
X123526074Y-113866703D01*
X123547309Y-113863553D01*
X123568750Y-113862500D01*
X124081250Y-113862500D01*
X124102691Y-113863553D01*
X124102691Y-113863553D01*
G37*
D11*
X123825000Y-114300000D03*
D10*
G36*
X133627691Y-114498553D02*
X133648926Y-114501703D01*
X133669750Y-114506919D01*
X133689962Y-114514151D01*
X133709368Y-114523330D01*
X133727781Y-114534366D01*
X133745024Y-114547154D01*
X133760930Y-114561570D01*
X133775346Y-114577476D01*
X133788134Y-114594719D01*
X133799170Y-114613132D01*
X133808349Y-114632538D01*
X133815581Y-114652750D01*
X133820797Y-114673574D01*
X133823947Y-114694809D01*
X133825000Y-114716250D01*
X133825000Y-115153750D01*
X133823947Y-115175191D01*
X133820797Y-115196426D01*
X133815581Y-115217250D01*
X133808349Y-115237462D01*
X133799170Y-115256868D01*
X133788134Y-115275281D01*
X133775346Y-115292524D01*
X133760930Y-115308430D01*
X133745024Y-115322846D01*
X133727781Y-115335634D01*
X133709368Y-115346670D01*
X133689962Y-115355849D01*
X133669750Y-115363081D01*
X133648926Y-115368297D01*
X133627691Y-115371447D01*
X133606250Y-115372500D01*
X133093750Y-115372500D01*
X133072309Y-115371447D01*
X133051074Y-115368297D01*
X133030250Y-115363081D01*
X133010038Y-115355849D01*
X132990632Y-115346670D01*
X132972219Y-115335634D01*
X132954976Y-115322846D01*
X132939070Y-115308430D01*
X132924654Y-115292524D01*
X132911866Y-115275281D01*
X132900830Y-115256868D01*
X132891651Y-115237462D01*
X132884419Y-115217250D01*
X132879203Y-115196426D01*
X132876053Y-115175191D01*
X132875000Y-115153750D01*
X132875000Y-114716250D01*
X132876053Y-114694809D01*
X132879203Y-114673574D01*
X132884419Y-114652750D01*
X132891651Y-114632538D01*
X132900830Y-114613132D01*
X132911866Y-114594719D01*
X132924654Y-114577476D01*
X132939070Y-114561570D01*
X132954976Y-114547154D01*
X132972219Y-114534366D01*
X132990632Y-114523330D01*
X133010038Y-114514151D01*
X133030250Y-114506919D01*
X133051074Y-114501703D01*
X133072309Y-114498553D01*
X133093750Y-114497500D01*
X133606250Y-114497500D01*
X133627691Y-114498553D01*
X133627691Y-114498553D01*
G37*
D11*
X133350000Y-114935000D03*
D10*
G36*
X133627691Y-116073553D02*
X133648926Y-116076703D01*
X133669750Y-116081919D01*
X133689962Y-116089151D01*
X133709368Y-116098330D01*
X133727781Y-116109366D01*
X133745024Y-116122154D01*
X133760930Y-116136570D01*
X133775346Y-116152476D01*
X133788134Y-116169719D01*
X133799170Y-116188132D01*
X133808349Y-116207538D01*
X133815581Y-116227750D01*
X133820797Y-116248574D01*
X133823947Y-116269809D01*
X133825000Y-116291250D01*
X133825000Y-116728750D01*
X133823947Y-116750191D01*
X133820797Y-116771426D01*
X133815581Y-116792250D01*
X133808349Y-116812462D01*
X133799170Y-116831868D01*
X133788134Y-116850281D01*
X133775346Y-116867524D01*
X133760930Y-116883430D01*
X133745024Y-116897846D01*
X133727781Y-116910634D01*
X133709368Y-116921670D01*
X133689962Y-116930849D01*
X133669750Y-116938081D01*
X133648926Y-116943297D01*
X133627691Y-116946447D01*
X133606250Y-116947500D01*
X133093750Y-116947500D01*
X133072309Y-116946447D01*
X133051074Y-116943297D01*
X133030250Y-116938081D01*
X133010038Y-116930849D01*
X132990632Y-116921670D01*
X132972219Y-116910634D01*
X132954976Y-116897846D01*
X132939070Y-116883430D01*
X132924654Y-116867524D01*
X132911866Y-116850281D01*
X132900830Y-116831868D01*
X132891651Y-116812462D01*
X132884419Y-116792250D01*
X132879203Y-116771426D01*
X132876053Y-116750191D01*
X132875000Y-116728750D01*
X132875000Y-116291250D01*
X132876053Y-116269809D01*
X132879203Y-116248574D01*
X132884419Y-116227750D01*
X132891651Y-116207538D01*
X132900830Y-116188132D01*
X132911866Y-116169719D01*
X132924654Y-116152476D01*
X132939070Y-116136570D01*
X132954976Y-116122154D01*
X132972219Y-116109366D01*
X132990632Y-116098330D01*
X133010038Y-116089151D01*
X133030250Y-116081919D01*
X133051074Y-116076703D01*
X133072309Y-116073553D01*
X133093750Y-116072500D01*
X133606250Y-116072500D01*
X133627691Y-116073553D01*
X133627691Y-116073553D01*
G37*
D11*
X133350000Y-116510000D03*
D10*
G36*
X126388691Y-131786553D02*
X126409926Y-131789703D01*
X126430750Y-131794919D01*
X126450962Y-131802151D01*
X126470368Y-131811330D01*
X126488781Y-131822366D01*
X126506024Y-131835154D01*
X126521930Y-131849570D01*
X126536346Y-131865476D01*
X126549134Y-131882719D01*
X126560170Y-131901132D01*
X126569349Y-131920538D01*
X126576581Y-131940750D01*
X126581797Y-131961574D01*
X126584947Y-131982809D01*
X126586000Y-132004250D01*
X126586000Y-132441750D01*
X126584947Y-132463191D01*
X126581797Y-132484426D01*
X126576581Y-132505250D01*
X126569349Y-132525462D01*
X126560170Y-132544868D01*
X126549134Y-132563281D01*
X126536346Y-132580524D01*
X126521930Y-132596430D01*
X126506024Y-132610846D01*
X126488781Y-132623634D01*
X126470368Y-132634670D01*
X126450962Y-132643849D01*
X126430750Y-132651081D01*
X126409926Y-132656297D01*
X126388691Y-132659447D01*
X126367250Y-132660500D01*
X125854750Y-132660500D01*
X125833309Y-132659447D01*
X125812074Y-132656297D01*
X125791250Y-132651081D01*
X125771038Y-132643849D01*
X125751632Y-132634670D01*
X125733219Y-132623634D01*
X125715976Y-132610846D01*
X125700070Y-132596430D01*
X125685654Y-132580524D01*
X125672866Y-132563281D01*
X125661830Y-132544868D01*
X125652651Y-132525462D01*
X125645419Y-132505250D01*
X125640203Y-132484426D01*
X125637053Y-132463191D01*
X125636000Y-132441750D01*
X125636000Y-132004250D01*
X125637053Y-131982809D01*
X125640203Y-131961574D01*
X125645419Y-131940750D01*
X125652651Y-131920538D01*
X125661830Y-131901132D01*
X125672866Y-131882719D01*
X125685654Y-131865476D01*
X125700070Y-131849570D01*
X125715976Y-131835154D01*
X125733219Y-131822366D01*
X125751632Y-131811330D01*
X125771038Y-131802151D01*
X125791250Y-131794919D01*
X125812074Y-131789703D01*
X125833309Y-131786553D01*
X125854750Y-131785500D01*
X126367250Y-131785500D01*
X126388691Y-131786553D01*
X126388691Y-131786553D01*
G37*
D11*
X126111000Y-132223000D03*
D10*
G36*
X126388691Y-130211553D02*
X126409926Y-130214703D01*
X126430750Y-130219919D01*
X126450962Y-130227151D01*
X126470368Y-130236330D01*
X126488781Y-130247366D01*
X126506024Y-130260154D01*
X126521930Y-130274570D01*
X126536346Y-130290476D01*
X126549134Y-130307719D01*
X126560170Y-130326132D01*
X126569349Y-130345538D01*
X126576581Y-130365750D01*
X126581797Y-130386574D01*
X126584947Y-130407809D01*
X126586000Y-130429250D01*
X126586000Y-130866750D01*
X126584947Y-130888191D01*
X126581797Y-130909426D01*
X126576581Y-130930250D01*
X126569349Y-130950462D01*
X126560170Y-130969868D01*
X126549134Y-130988281D01*
X126536346Y-131005524D01*
X126521930Y-131021430D01*
X126506024Y-131035846D01*
X126488781Y-131048634D01*
X126470368Y-131059670D01*
X126450962Y-131068849D01*
X126430750Y-131076081D01*
X126409926Y-131081297D01*
X126388691Y-131084447D01*
X126367250Y-131085500D01*
X125854750Y-131085500D01*
X125833309Y-131084447D01*
X125812074Y-131081297D01*
X125791250Y-131076081D01*
X125771038Y-131068849D01*
X125751632Y-131059670D01*
X125733219Y-131048634D01*
X125715976Y-131035846D01*
X125700070Y-131021430D01*
X125685654Y-131005524D01*
X125672866Y-130988281D01*
X125661830Y-130969868D01*
X125652651Y-130950462D01*
X125645419Y-130930250D01*
X125640203Y-130909426D01*
X125637053Y-130888191D01*
X125636000Y-130866750D01*
X125636000Y-130429250D01*
X125637053Y-130407809D01*
X125640203Y-130386574D01*
X125645419Y-130365750D01*
X125652651Y-130345538D01*
X125661830Y-130326132D01*
X125672866Y-130307719D01*
X125685654Y-130290476D01*
X125700070Y-130274570D01*
X125715976Y-130260154D01*
X125733219Y-130247366D01*
X125751632Y-130236330D01*
X125771038Y-130227151D01*
X125791250Y-130219919D01*
X125812074Y-130214703D01*
X125833309Y-130211553D01*
X125854750Y-130210500D01*
X126367250Y-130210500D01*
X126388691Y-130211553D01*
X126388691Y-130211553D01*
G37*
D11*
X126111000Y-130648000D03*
D10*
G36*
X132066191Y-130860053D02*
X132087426Y-130863203D01*
X132108250Y-130868419D01*
X132128462Y-130875651D01*
X132147868Y-130884830D01*
X132166281Y-130895866D01*
X132183524Y-130908654D01*
X132199430Y-130923070D01*
X132213846Y-130938976D01*
X132226634Y-130956219D01*
X132237670Y-130974632D01*
X132246849Y-130994038D01*
X132254081Y-131014250D01*
X132259297Y-131035074D01*
X132262447Y-131056309D01*
X132263500Y-131077750D01*
X132263500Y-131590250D01*
X132262447Y-131611691D01*
X132259297Y-131632926D01*
X132254081Y-131653750D01*
X132246849Y-131673962D01*
X132237670Y-131693368D01*
X132226634Y-131711781D01*
X132213846Y-131729024D01*
X132199430Y-131744930D01*
X132183524Y-131759346D01*
X132166281Y-131772134D01*
X132147868Y-131783170D01*
X132128462Y-131792349D01*
X132108250Y-131799581D01*
X132087426Y-131804797D01*
X132066191Y-131807947D01*
X132044750Y-131809000D01*
X131607250Y-131809000D01*
X131585809Y-131807947D01*
X131564574Y-131804797D01*
X131543750Y-131799581D01*
X131523538Y-131792349D01*
X131504132Y-131783170D01*
X131485719Y-131772134D01*
X131468476Y-131759346D01*
X131452570Y-131744930D01*
X131438154Y-131729024D01*
X131425366Y-131711781D01*
X131414330Y-131693368D01*
X131405151Y-131673962D01*
X131397919Y-131653750D01*
X131392703Y-131632926D01*
X131389553Y-131611691D01*
X131388500Y-131590250D01*
X131388500Y-131077750D01*
X131389553Y-131056309D01*
X131392703Y-131035074D01*
X131397919Y-131014250D01*
X131405151Y-130994038D01*
X131414330Y-130974632D01*
X131425366Y-130956219D01*
X131438154Y-130938976D01*
X131452570Y-130923070D01*
X131468476Y-130908654D01*
X131485719Y-130895866D01*
X131504132Y-130884830D01*
X131523538Y-130875651D01*
X131543750Y-130868419D01*
X131564574Y-130863203D01*
X131585809Y-130860053D01*
X131607250Y-130859000D01*
X132044750Y-130859000D01*
X132066191Y-130860053D01*
X132066191Y-130860053D01*
G37*
D11*
X131826000Y-131334000D03*
D10*
G36*
X130491191Y-130860053D02*
X130512426Y-130863203D01*
X130533250Y-130868419D01*
X130553462Y-130875651D01*
X130572868Y-130884830D01*
X130591281Y-130895866D01*
X130608524Y-130908654D01*
X130624430Y-130923070D01*
X130638846Y-130938976D01*
X130651634Y-130956219D01*
X130662670Y-130974632D01*
X130671849Y-130994038D01*
X130679081Y-131014250D01*
X130684297Y-131035074D01*
X130687447Y-131056309D01*
X130688500Y-131077750D01*
X130688500Y-131590250D01*
X130687447Y-131611691D01*
X130684297Y-131632926D01*
X130679081Y-131653750D01*
X130671849Y-131673962D01*
X130662670Y-131693368D01*
X130651634Y-131711781D01*
X130638846Y-131729024D01*
X130624430Y-131744930D01*
X130608524Y-131759346D01*
X130591281Y-131772134D01*
X130572868Y-131783170D01*
X130553462Y-131792349D01*
X130533250Y-131799581D01*
X130512426Y-131804797D01*
X130491191Y-131807947D01*
X130469750Y-131809000D01*
X130032250Y-131809000D01*
X130010809Y-131807947D01*
X129989574Y-131804797D01*
X129968750Y-131799581D01*
X129948538Y-131792349D01*
X129929132Y-131783170D01*
X129910719Y-131772134D01*
X129893476Y-131759346D01*
X129877570Y-131744930D01*
X129863154Y-131729024D01*
X129850366Y-131711781D01*
X129839330Y-131693368D01*
X129830151Y-131673962D01*
X129822919Y-131653750D01*
X129817703Y-131632926D01*
X129814553Y-131611691D01*
X129813500Y-131590250D01*
X129813500Y-131077750D01*
X129814553Y-131056309D01*
X129817703Y-131035074D01*
X129822919Y-131014250D01*
X129830151Y-130994038D01*
X129839330Y-130974632D01*
X129850366Y-130956219D01*
X129863154Y-130938976D01*
X129877570Y-130923070D01*
X129893476Y-130908654D01*
X129910719Y-130895866D01*
X129929132Y-130884830D01*
X129948538Y-130875651D01*
X129968750Y-130868419D01*
X129989574Y-130863203D01*
X130010809Y-130860053D01*
X130032250Y-130859000D01*
X130469750Y-130859000D01*
X130491191Y-130860053D01*
X130491191Y-130860053D01*
G37*
D11*
X130251000Y-131334000D03*
D12*
X128280000Y-70916000D03*
X127000000Y-70916000D03*
X125740000Y-70916000D03*
X124470000Y-70916000D03*
X123190000Y-70916000D03*
X121920000Y-70916000D03*
X120660000Y-70916000D03*
X119380000Y-70916000D03*
X119380000Y-77216000D03*
X120660000Y-77216000D03*
X121920000Y-77216000D03*
X123190000Y-77216000D03*
X124470000Y-77216000D03*
X125740000Y-77216000D03*
X127000000Y-77216000D03*
X128280000Y-77216000D03*
X139573000Y-77216000D03*
X138293000Y-77216000D03*
X137033000Y-77216000D03*
X135763000Y-77216000D03*
X134483000Y-77216000D03*
X133213000Y-77216000D03*
X131953000Y-77216000D03*
X130673000Y-77216000D03*
X130673000Y-70916000D03*
X131953000Y-70916000D03*
X133213000Y-70916000D03*
X134483000Y-70916000D03*
X135763000Y-70916000D03*
X137033000Y-70916000D03*
X138293000Y-70916000D03*
X139573000Y-70916000D03*
D13*
X131628000Y-113938000D03*
X131628000Y-113288000D03*
X131628000Y-112638000D03*
X131628000Y-111988000D03*
X131628000Y-111338000D03*
X131628000Y-110688000D03*
X131628000Y-110038000D03*
X131628000Y-109388000D03*
X131628000Y-108738000D03*
X131628000Y-108088000D03*
X131628000Y-107438000D03*
X131628000Y-106788000D03*
X125928000Y-106788000D03*
X125928000Y-107438000D03*
X125928000Y-108088000D03*
X125928000Y-108738000D03*
X125928000Y-109388000D03*
X125928000Y-110038000D03*
X125928000Y-110688000D03*
X125928000Y-111338000D03*
X125928000Y-111988000D03*
X125928000Y-112638000D03*
X125928000Y-113288000D03*
X125928000Y-113938000D03*
X126182000Y-128940000D03*
X126182000Y-128290000D03*
X126182000Y-127640000D03*
X126182000Y-126990000D03*
X126182000Y-126340000D03*
X126182000Y-125690000D03*
X126182000Y-125040000D03*
X126182000Y-124390000D03*
X126182000Y-123740000D03*
X126182000Y-123090000D03*
X126182000Y-122440000D03*
X126182000Y-121790000D03*
X131882000Y-121790000D03*
X131882000Y-122440000D03*
X131882000Y-123090000D03*
X131882000Y-123740000D03*
X131882000Y-124390000D03*
X131882000Y-125040000D03*
X131882000Y-125690000D03*
X131882000Y-126340000D03*
X131882000Y-126990000D03*
X131882000Y-127640000D03*
X131882000Y-128290000D03*
X131882000Y-128940000D03*
D10*
G36*
X134770691Y-81554553D02*
X134791926Y-81557703D01*
X134812750Y-81562919D01*
X134832962Y-81570151D01*
X134852368Y-81579330D01*
X134870781Y-81590366D01*
X134888024Y-81603154D01*
X134903930Y-81617570D01*
X134918346Y-81633476D01*
X134931134Y-81650719D01*
X134942170Y-81669132D01*
X134951349Y-81688538D01*
X134958581Y-81708750D01*
X134963797Y-81729574D01*
X134966947Y-81750809D01*
X134968000Y-81772250D01*
X134968000Y-82209750D01*
X134966947Y-82231191D01*
X134963797Y-82252426D01*
X134958581Y-82273250D01*
X134951349Y-82293462D01*
X134942170Y-82312868D01*
X134931134Y-82331281D01*
X134918346Y-82348524D01*
X134903930Y-82364430D01*
X134888024Y-82378846D01*
X134870781Y-82391634D01*
X134852368Y-82402670D01*
X134832962Y-82411849D01*
X134812750Y-82419081D01*
X134791926Y-82424297D01*
X134770691Y-82427447D01*
X134749250Y-82428500D01*
X134236750Y-82428500D01*
X134215309Y-82427447D01*
X134194074Y-82424297D01*
X134173250Y-82419081D01*
X134153038Y-82411849D01*
X134133632Y-82402670D01*
X134115219Y-82391634D01*
X134097976Y-82378846D01*
X134082070Y-82364430D01*
X134067654Y-82348524D01*
X134054866Y-82331281D01*
X134043830Y-82312868D01*
X134034651Y-82293462D01*
X134027419Y-82273250D01*
X134022203Y-82252426D01*
X134019053Y-82231191D01*
X134018000Y-82209750D01*
X134018000Y-81772250D01*
X134019053Y-81750809D01*
X134022203Y-81729574D01*
X134027419Y-81708750D01*
X134034651Y-81688538D01*
X134043830Y-81669132D01*
X134054866Y-81650719D01*
X134067654Y-81633476D01*
X134082070Y-81617570D01*
X134097976Y-81603154D01*
X134115219Y-81590366D01*
X134133632Y-81579330D01*
X134153038Y-81570151D01*
X134173250Y-81562919D01*
X134194074Y-81557703D01*
X134215309Y-81554553D01*
X134236750Y-81553500D01*
X134749250Y-81553500D01*
X134770691Y-81554553D01*
X134770691Y-81554553D01*
G37*
D11*
X134493000Y-81991000D03*
D10*
G36*
X134770691Y-83129553D02*
X134791926Y-83132703D01*
X134812750Y-83137919D01*
X134832962Y-83145151D01*
X134852368Y-83154330D01*
X134870781Y-83165366D01*
X134888024Y-83178154D01*
X134903930Y-83192570D01*
X134918346Y-83208476D01*
X134931134Y-83225719D01*
X134942170Y-83244132D01*
X134951349Y-83263538D01*
X134958581Y-83283750D01*
X134963797Y-83304574D01*
X134966947Y-83325809D01*
X134968000Y-83347250D01*
X134968000Y-83784750D01*
X134966947Y-83806191D01*
X134963797Y-83827426D01*
X134958581Y-83848250D01*
X134951349Y-83868462D01*
X134942170Y-83887868D01*
X134931134Y-83906281D01*
X134918346Y-83923524D01*
X134903930Y-83939430D01*
X134888024Y-83953846D01*
X134870781Y-83966634D01*
X134852368Y-83977670D01*
X134832962Y-83986849D01*
X134812750Y-83994081D01*
X134791926Y-83999297D01*
X134770691Y-84002447D01*
X134749250Y-84003500D01*
X134236750Y-84003500D01*
X134215309Y-84002447D01*
X134194074Y-83999297D01*
X134173250Y-83994081D01*
X134153038Y-83986849D01*
X134133632Y-83977670D01*
X134115219Y-83966634D01*
X134097976Y-83953846D01*
X134082070Y-83939430D01*
X134067654Y-83923524D01*
X134054866Y-83906281D01*
X134043830Y-83887868D01*
X134034651Y-83868462D01*
X134027419Y-83848250D01*
X134022203Y-83827426D01*
X134019053Y-83806191D01*
X134018000Y-83784750D01*
X134018000Y-83347250D01*
X134019053Y-83325809D01*
X134022203Y-83304574D01*
X134027419Y-83283750D01*
X134034651Y-83263538D01*
X134043830Y-83244132D01*
X134054866Y-83225719D01*
X134067654Y-83208476D01*
X134082070Y-83192570D01*
X134097976Y-83178154D01*
X134115219Y-83165366D01*
X134133632Y-83154330D01*
X134153038Y-83145151D01*
X134173250Y-83137919D01*
X134194074Y-83132703D01*
X134215309Y-83129553D01*
X134236750Y-83128500D01*
X134749250Y-83128500D01*
X134770691Y-83129553D01*
X134770691Y-83129553D01*
G37*
D11*
X134493000Y-83566000D03*
D10*
G36*
X136787691Y-82678553D02*
X136808926Y-82681703D01*
X136829750Y-82686919D01*
X136849962Y-82694151D01*
X136869368Y-82703330D01*
X136887781Y-82714366D01*
X136905024Y-82727154D01*
X136920930Y-82741570D01*
X136935346Y-82757476D01*
X136948134Y-82774719D01*
X136959170Y-82793132D01*
X136968349Y-82812538D01*
X136975581Y-82832750D01*
X136980797Y-82853574D01*
X136983947Y-82874809D01*
X136985000Y-82896250D01*
X136985000Y-83333750D01*
X136983947Y-83355191D01*
X136980797Y-83376426D01*
X136975581Y-83397250D01*
X136968349Y-83417462D01*
X136959170Y-83436868D01*
X136948134Y-83455281D01*
X136935346Y-83472524D01*
X136920930Y-83488430D01*
X136905024Y-83502846D01*
X136887781Y-83515634D01*
X136869368Y-83526670D01*
X136849962Y-83535849D01*
X136829750Y-83543081D01*
X136808926Y-83548297D01*
X136787691Y-83551447D01*
X136766250Y-83552500D01*
X136253750Y-83552500D01*
X136232309Y-83551447D01*
X136211074Y-83548297D01*
X136190250Y-83543081D01*
X136170038Y-83535849D01*
X136150632Y-83526670D01*
X136132219Y-83515634D01*
X136114976Y-83502846D01*
X136099070Y-83488430D01*
X136084654Y-83472524D01*
X136071866Y-83455281D01*
X136060830Y-83436868D01*
X136051651Y-83417462D01*
X136044419Y-83397250D01*
X136039203Y-83376426D01*
X136036053Y-83355191D01*
X136035000Y-83333750D01*
X136035000Y-82896250D01*
X136036053Y-82874809D01*
X136039203Y-82853574D01*
X136044419Y-82832750D01*
X136051651Y-82812538D01*
X136060830Y-82793132D01*
X136071866Y-82774719D01*
X136084654Y-82757476D01*
X136099070Y-82741570D01*
X136114976Y-82727154D01*
X136132219Y-82714366D01*
X136150632Y-82703330D01*
X136170038Y-82694151D01*
X136190250Y-82686919D01*
X136211074Y-82681703D01*
X136232309Y-82678553D01*
X136253750Y-82677500D01*
X136766250Y-82677500D01*
X136787691Y-82678553D01*
X136787691Y-82678553D01*
G37*
D11*
X136510000Y-83115000D03*
D10*
G36*
X136787691Y-81103553D02*
X136808926Y-81106703D01*
X136829750Y-81111919D01*
X136849962Y-81119151D01*
X136869368Y-81128330D01*
X136887781Y-81139366D01*
X136905024Y-81152154D01*
X136920930Y-81166570D01*
X136935346Y-81182476D01*
X136948134Y-81199719D01*
X136959170Y-81218132D01*
X136968349Y-81237538D01*
X136975581Y-81257750D01*
X136980797Y-81278574D01*
X136983947Y-81299809D01*
X136985000Y-81321250D01*
X136985000Y-81758750D01*
X136983947Y-81780191D01*
X136980797Y-81801426D01*
X136975581Y-81822250D01*
X136968349Y-81842462D01*
X136959170Y-81861868D01*
X136948134Y-81880281D01*
X136935346Y-81897524D01*
X136920930Y-81913430D01*
X136905024Y-81927846D01*
X136887781Y-81940634D01*
X136869368Y-81951670D01*
X136849962Y-81960849D01*
X136829750Y-81968081D01*
X136808926Y-81973297D01*
X136787691Y-81976447D01*
X136766250Y-81977500D01*
X136253750Y-81977500D01*
X136232309Y-81976447D01*
X136211074Y-81973297D01*
X136190250Y-81968081D01*
X136170038Y-81960849D01*
X136150632Y-81951670D01*
X136132219Y-81940634D01*
X136114976Y-81927846D01*
X136099070Y-81913430D01*
X136084654Y-81897524D01*
X136071866Y-81880281D01*
X136060830Y-81861868D01*
X136051651Y-81842462D01*
X136044419Y-81822250D01*
X136039203Y-81801426D01*
X136036053Y-81780191D01*
X136035000Y-81758750D01*
X136035000Y-81321250D01*
X136036053Y-81299809D01*
X136039203Y-81278574D01*
X136044419Y-81257750D01*
X136051651Y-81237538D01*
X136060830Y-81218132D01*
X136071866Y-81199719D01*
X136084654Y-81182476D01*
X136099070Y-81166570D01*
X136114976Y-81152154D01*
X136132219Y-81139366D01*
X136150632Y-81128330D01*
X136170038Y-81119151D01*
X136190250Y-81111919D01*
X136211074Y-81106703D01*
X136232309Y-81103553D01*
X136253750Y-81102500D01*
X136766250Y-81102500D01*
X136787691Y-81103553D01*
X136787691Y-81103553D01*
G37*
D11*
X136510000Y-81540000D03*
D10*
G36*
X139469691Y-81199053D02*
X139490926Y-81202203D01*
X139511750Y-81207419D01*
X139531962Y-81214651D01*
X139551368Y-81223830D01*
X139569781Y-81234866D01*
X139587024Y-81247654D01*
X139602930Y-81262070D01*
X139617346Y-81277976D01*
X139630134Y-81295219D01*
X139641170Y-81313632D01*
X139650349Y-81333038D01*
X139657581Y-81353250D01*
X139662797Y-81374074D01*
X139665947Y-81395309D01*
X139667000Y-81416750D01*
X139667000Y-81854250D01*
X139665947Y-81875691D01*
X139662797Y-81896926D01*
X139657581Y-81917750D01*
X139650349Y-81937962D01*
X139641170Y-81957368D01*
X139630134Y-81975781D01*
X139617346Y-81993024D01*
X139602930Y-82008930D01*
X139587024Y-82023346D01*
X139569781Y-82036134D01*
X139551368Y-82047170D01*
X139531962Y-82056349D01*
X139511750Y-82063581D01*
X139490926Y-82068797D01*
X139469691Y-82071947D01*
X139448250Y-82073000D01*
X138935750Y-82073000D01*
X138914309Y-82071947D01*
X138893074Y-82068797D01*
X138872250Y-82063581D01*
X138852038Y-82056349D01*
X138832632Y-82047170D01*
X138814219Y-82036134D01*
X138796976Y-82023346D01*
X138781070Y-82008930D01*
X138766654Y-81993024D01*
X138753866Y-81975781D01*
X138742830Y-81957368D01*
X138733651Y-81937962D01*
X138726419Y-81917750D01*
X138721203Y-81896926D01*
X138718053Y-81875691D01*
X138717000Y-81854250D01*
X138717000Y-81416750D01*
X138718053Y-81395309D01*
X138721203Y-81374074D01*
X138726419Y-81353250D01*
X138733651Y-81333038D01*
X138742830Y-81313632D01*
X138753866Y-81295219D01*
X138766654Y-81277976D01*
X138781070Y-81262070D01*
X138796976Y-81247654D01*
X138814219Y-81234866D01*
X138832632Y-81223830D01*
X138852038Y-81214651D01*
X138872250Y-81207419D01*
X138893074Y-81202203D01*
X138914309Y-81199053D01*
X138935750Y-81198000D01*
X139448250Y-81198000D01*
X139469691Y-81199053D01*
X139469691Y-81199053D01*
G37*
D11*
X139192000Y-81635500D03*
D10*
G36*
X139469691Y-82774053D02*
X139490926Y-82777203D01*
X139511750Y-82782419D01*
X139531962Y-82789651D01*
X139551368Y-82798830D01*
X139569781Y-82809866D01*
X139587024Y-82822654D01*
X139602930Y-82837070D01*
X139617346Y-82852976D01*
X139630134Y-82870219D01*
X139641170Y-82888632D01*
X139650349Y-82908038D01*
X139657581Y-82928250D01*
X139662797Y-82949074D01*
X139665947Y-82970309D01*
X139667000Y-82991750D01*
X139667000Y-83429250D01*
X139665947Y-83450691D01*
X139662797Y-83471926D01*
X139657581Y-83492750D01*
X139650349Y-83512962D01*
X139641170Y-83532368D01*
X139630134Y-83550781D01*
X139617346Y-83568024D01*
X139602930Y-83583930D01*
X139587024Y-83598346D01*
X139569781Y-83611134D01*
X139551368Y-83622170D01*
X139531962Y-83631349D01*
X139511750Y-83638581D01*
X139490926Y-83643797D01*
X139469691Y-83646947D01*
X139448250Y-83648000D01*
X138935750Y-83648000D01*
X138914309Y-83646947D01*
X138893074Y-83643797D01*
X138872250Y-83638581D01*
X138852038Y-83631349D01*
X138832632Y-83622170D01*
X138814219Y-83611134D01*
X138796976Y-83598346D01*
X138781070Y-83583930D01*
X138766654Y-83568024D01*
X138753866Y-83550781D01*
X138742830Y-83532368D01*
X138733651Y-83512962D01*
X138726419Y-83492750D01*
X138721203Y-83471926D01*
X138718053Y-83450691D01*
X138717000Y-83429250D01*
X138717000Y-82991750D01*
X138718053Y-82970309D01*
X138721203Y-82949074D01*
X138726419Y-82928250D01*
X138733651Y-82908038D01*
X138742830Y-82888632D01*
X138753866Y-82870219D01*
X138766654Y-82852976D01*
X138781070Y-82837070D01*
X138796976Y-82822654D01*
X138814219Y-82809866D01*
X138832632Y-82798830D01*
X138852038Y-82789651D01*
X138872250Y-82782419D01*
X138893074Y-82777203D01*
X138914309Y-82774053D01*
X138935750Y-82773000D01*
X139448250Y-82773000D01*
X139469691Y-82774053D01*
X139469691Y-82774053D01*
G37*
D11*
X139192000Y-83210500D03*
D10*
G36*
X134135691Y-112238053D02*
X134156926Y-112241203D01*
X134177750Y-112246419D01*
X134197962Y-112253651D01*
X134217368Y-112262830D01*
X134235781Y-112273866D01*
X134253024Y-112286654D01*
X134268930Y-112301070D01*
X134283346Y-112316976D01*
X134296134Y-112334219D01*
X134307170Y-112352632D01*
X134316349Y-112372038D01*
X134323581Y-112392250D01*
X134328797Y-112413074D01*
X134331947Y-112434309D01*
X134333000Y-112455750D01*
X134333000Y-112893250D01*
X134331947Y-112914691D01*
X134328797Y-112935926D01*
X134323581Y-112956750D01*
X134316349Y-112976962D01*
X134307170Y-112996368D01*
X134296134Y-113014781D01*
X134283346Y-113032024D01*
X134268930Y-113047930D01*
X134253024Y-113062346D01*
X134235781Y-113075134D01*
X134217368Y-113086170D01*
X134197962Y-113095349D01*
X134177750Y-113102581D01*
X134156926Y-113107797D01*
X134135691Y-113110947D01*
X134114250Y-113112000D01*
X133601750Y-113112000D01*
X133580309Y-113110947D01*
X133559074Y-113107797D01*
X133538250Y-113102581D01*
X133518038Y-113095349D01*
X133498632Y-113086170D01*
X133480219Y-113075134D01*
X133462976Y-113062346D01*
X133447070Y-113047930D01*
X133432654Y-113032024D01*
X133419866Y-113014781D01*
X133408830Y-112996368D01*
X133399651Y-112976962D01*
X133392419Y-112956750D01*
X133387203Y-112935926D01*
X133384053Y-112914691D01*
X133383000Y-112893250D01*
X133383000Y-112455750D01*
X133384053Y-112434309D01*
X133387203Y-112413074D01*
X133392419Y-112392250D01*
X133399651Y-112372038D01*
X133408830Y-112352632D01*
X133419866Y-112334219D01*
X133432654Y-112316976D01*
X133447070Y-112301070D01*
X133462976Y-112286654D01*
X133480219Y-112273866D01*
X133498632Y-112262830D01*
X133518038Y-112253651D01*
X133538250Y-112246419D01*
X133559074Y-112241203D01*
X133580309Y-112238053D01*
X133601750Y-112237000D01*
X134114250Y-112237000D01*
X134135691Y-112238053D01*
X134135691Y-112238053D01*
G37*
D11*
X133858000Y-112674500D03*
D10*
G36*
X134135691Y-110663053D02*
X134156926Y-110666203D01*
X134177750Y-110671419D01*
X134197962Y-110678651D01*
X134217368Y-110687830D01*
X134235781Y-110698866D01*
X134253024Y-110711654D01*
X134268930Y-110726070D01*
X134283346Y-110741976D01*
X134296134Y-110759219D01*
X134307170Y-110777632D01*
X134316349Y-110797038D01*
X134323581Y-110817250D01*
X134328797Y-110838074D01*
X134331947Y-110859309D01*
X134333000Y-110880750D01*
X134333000Y-111318250D01*
X134331947Y-111339691D01*
X134328797Y-111360926D01*
X134323581Y-111381750D01*
X134316349Y-111401962D01*
X134307170Y-111421368D01*
X134296134Y-111439781D01*
X134283346Y-111457024D01*
X134268930Y-111472930D01*
X134253024Y-111487346D01*
X134235781Y-111500134D01*
X134217368Y-111511170D01*
X134197962Y-111520349D01*
X134177750Y-111527581D01*
X134156926Y-111532797D01*
X134135691Y-111535947D01*
X134114250Y-111537000D01*
X133601750Y-111537000D01*
X133580309Y-111535947D01*
X133559074Y-111532797D01*
X133538250Y-111527581D01*
X133518038Y-111520349D01*
X133498632Y-111511170D01*
X133480219Y-111500134D01*
X133462976Y-111487346D01*
X133447070Y-111472930D01*
X133432654Y-111457024D01*
X133419866Y-111439781D01*
X133408830Y-111421368D01*
X133399651Y-111401962D01*
X133392419Y-111381750D01*
X133387203Y-111360926D01*
X133384053Y-111339691D01*
X133383000Y-111318250D01*
X133383000Y-110880750D01*
X133384053Y-110859309D01*
X133387203Y-110838074D01*
X133392419Y-110817250D01*
X133399651Y-110797038D01*
X133408830Y-110777632D01*
X133419866Y-110759219D01*
X133432654Y-110741976D01*
X133447070Y-110726070D01*
X133462976Y-110711654D01*
X133480219Y-110698866D01*
X133498632Y-110687830D01*
X133518038Y-110678651D01*
X133538250Y-110671419D01*
X133559074Y-110666203D01*
X133580309Y-110663053D01*
X133601750Y-110662000D01*
X134114250Y-110662000D01*
X134135691Y-110663053D01*
X134135691Y-110663053D01*
G37*
D11*
X133858000Y-111099500D03*
D10*
G36*
X122197691Y-115438553D02*
X122218926Y-115441703D01*
X122239750Y-115446919D01*
X122259962Y-115454151D01*
X122279368Y-115463330D01*
X122297781Y-115474366D01*
X122315024Y-115487154D01*
X122330930Y-115501570D01*
X122345346Y-115517476D01*
X122358134Y-115534719D01*
X122369170Y-115553132D01*
X122378349Y-115572538D01*
X122385581Y-115592750D01*
X122390797Y-115613574D01*
X122393947Y-115634809D01*
X122395000Y-115656250D01*
X122395000Y-116093750D01*
X122393947Y-116115191D01*
X122390797Y-116136426D01*
X122385581Y-116157250D01*
X122378349Y-116177462D01*
X122369170Y-116196868D01*
X122358134Y-116215281D01*
X122345346Y-116232524D01*
X122330930Y-116248430D01*
X122315024Y-116262846D01*
X122297781Y-116275634D01*
X122279368Y-116286670D01*
X122259962Y-116295849D01*
X122239750Y-116303081D01*
X122218926Y-116308297D01*
X122197691Y-116311447D01*
X122176250Y-116312500D01*
X121663750Y-116312500D01*
X121642309Y-116311447D01*
X121621074Y-116308297D01*
X121600250Y-116303081D01*
X121580038Y-116295849D01*
X121560632Y-116286670D01*
X121542219Y-116275634D01*
X121524976Y-116262846D01*
X121509070Y-116248430D01*
X121494654Y-116232524D01*
X121481866Y-116215281D01*
X121470830Y-116196868D01*
X121461651Y-116177462D01*
X121454419Y-116157250D01*
X121449203Y-116136426D01*
X121446053Y-116115191D01*
X121445000Y-116093750D01*
X121445000Y-115656250D01*
X121446053Y-115634809D01*
X121449203Y-115613574D01*
X121454419Y-115592750D01*
X121461651Y-115572538D01*
X121470830Y-115553132D01*
X121481866Y-115534719D01*
X121494654Y-115517476D01*
X121509070Y-115501570D01*
X121524976Y-115487154D01*
X121542219Y-115474366D01*
X121560632Y-115463330D01*
X121580038Y-115454151D01*
X121600250Y-115446919D01*
X121621074Y-115441703D01*
X121642309Y-115438553D01*
X121663750Y-115437500D01*
X122176250Y-115437500D01*
X122197691Y-115438553D01*
X122197691Y-115438553D01*
G37*
D11*
X121920000Y-115875000D03*
D10*
G36*
X122197691Y-113863553D02*
X122218926Y-113866703D01*
X122239750Y-113871919D01*
X122259962Y-113879151D01*
X122279368Y-113888330D01*
X122297781Y-113899366D01*
X122315024Y-113912154D01*
X122330930Y-113926570D01*
X122345346Y-113942476D01*
X122358134Y-113959719D01*
X122369170Y-113978132D01*
X122378349Y-113997538D01*
X122385581Y-114017750D01*
X122390797Y-114038574D01*
X122393947Y-114059809D01*
X122395000Y-114081250D01*
X122395000Y-114518750D01*
X122393947Y-114540191D01*
X122390797Y-114561426D01*
X122385581Y-114582250D01*
X122378349Y-114602462D01*
X122369170Y-114621868D01*
X122358134Y-114640281D01*
X122345346Y-114657524D01*
X122330930Y-114673430D01*
X122315024Y-114687846D01*
X122297781Y-114700634D01*
X122279368Y-114711670D01*
X122259962Y-114720849D01*
X122239750Y-114728081D01*
X122218926Y-114733297D01*
X122197691Y-114736447D01*
X122176250Y-114737500D01*
X121663750Y-114737500D01*
X121642309Y-114736447D01*
X121621074Y-114733297D01*
X121600250Y-114728081D01*
X121580038Y-114720849D01*
X121560632Y-114711670D01*
X121542219Y-114700634D01*
X121524976Y-114687846D01*
X121509070Y-114673430D01*
X121494654Y-114657524D01*
X121481866Y-114640281D01*
X121470830Y-114621868D01*
X121461651Y-114602462D01*
X121454419Y-114582250D01*
X121449203Y-114561426D01*
X121446053Y-114540191D01*
X121445000Y-114518750D01*
X121445000Y-114081250D01*
X121446053Y-114059809D01*
X121449203Y-114038574D01*
X121454419Y-114017750D01*
X121461651Y-113997538D01*
X121470830Y-113978132D01*
X121481866Y-113959719D01*
X121494654Y-113942476D01*
X121509070Y-113926570D01*
X121524976Y-113912154D01*
X121542219Y-113899366D01*
X121560632Y-113888330D01*
X121580038Y-113879151D01*
X121600250Y-113871919D01*
X121621074Y-113866703D01*
X121642309Y-113863553D01*
X121663750Y-113862500D01*
X122176250Y-113862500D01*
X122197691Y-113863553D01*
X122197691Y-113863553D01*
G37*
D11*
X121920000Y-114300000D03*
D10*
G36*
X132357691Y-81300553D02*
X132378926Y-81303703D01*
X132399750Y-81308919D01*
X132419962Y-81316151D01*
X132439368Y-81325330D01*
X132457781Y-81336366D01*
X132475024Y-81349154D01*
X132490930Y-81363570D01*
X132505346Y-81379476D01*
X132518134Y-81396719D01*
X132529170Y-81415132D01*
X132538349Y-81434538D01*
X132545581Y-81454750D01*
X132550797Y-81475574D01*
X132553947Y-81496809D01*
X132555000Y-81518250D01*
X132555000Y-81955750D01*
X132553947Y-81977191D01*
X132550797Y-81998426D01*
X132545581Y-82019250D01*
X132538349Y-82039462D01*
X132529170Y-82058868D01*
X132518134Y-82077281D01*
X132505346Y-82094524D01*
X132490930Y-82110430D01*
X132475024Y-82124846D01*
X132457781Y-82137634D01*
X132439368Y-82148670D01*
X132419962Y-82157849D01*
X132399750Y-82165081D01*
X132378926Y-82170297D01*
X132357691Y-82173447D01*
X132336250Y-82174500D01*
X131823750Y-82174500D01*
X131802309Y-82173447D01*
X131781074Y-82170297D01*
X131760250Y-82165081D01*
X131740038Y-82157849D01*
X131720632Y-82148670D01*
X131702219Y-82137634D01*
X131684976Y-82124846D01*
X131669070Y-82110430D01*
X131654654Y-82094524D01*
X131641866Y-82077281D01*
X131630830Y-82058868D01*
X131621651Y-82039462D01*
X131614419Y-82019250D01*
X131609203Y-81998426D01*
X131606053Y-81977191D01*
X131605000Y-81955750D01*
X131605000Y-81518250D01*
X131606053Y-81496809D01*
X131609203Y-81475574D01*
X131614419Y-81454750D01*
X131621651Y-81434538D01*
X131630830Y-81415132D01*
X131641866Y-81396719D01*
X131654654Y-81379476D01*
X131669070Y-81363570D01*
X131684976Y-81349154D01*
X131702219Y-81336366D01*
X131720632Y-81325330D01*
X131740038Y-81316151D01*
X131760250Y-81308919D01*
X131781074Y-81303703D01*
X131802309Y-81300553D01*
X131823750Y-81299500D01*
X132336250Y-81299500D01*
X132357691Y-81300553D01*
X132357691Y-81300553D01*
G37*
D11*
X132080000Y-81737000D03*
D10*
G36*
X132357691Y-82875553D02*
X132378926Y-82878703D01*
X132399750Y-82883919D01*
X132419962Y-82891151D01*
X132439368Y-82900330D01*
X132457781Y-82911366D01*
X132475024Y-82924154D01*
X132490930Y-82938570D01*
X132505346Y-82954476D01*
X132518134Y-82971719D01*
X132529170Y-82990132D01*
X132538349Y-83009538D01*
X132545581Y-83029750D01*
X132550797Y-83050574D01*
X132553947Y-83071809D01*
X132555000Y-83093250D01*
X132555000Y-83530750D01*
X132553947Y-83552191D01*
X132550797Y-83573426D01*
X132545581Y-83594250D01*
X132538349Y-83614462D01*
X132529170Y-83633868D01*
X132518134Y-83652281D01*
X132505346Y-83669524D01*
X132490930Y-83685430D01*
X132475024Y-83699846D01*
X132457781Y-83712634D01*
X132439368Y-83723670D01*
X132419962Y-83732849D01*
X132399750Y-83740081D01*
X132378926Y-83745297D01*
X132357691Y-83748447D01*
X132336250Y-83749500D01*
X131823750Y-83749500D01*
X131802309Y-83748447D01*
X131781074Y-83745297D01*
X131760250Y-83740081D01*
X131740038Y-83732849D01*
X131720632Y-83723670D01*
X131702219Y-83712634D01*
X131684976Y-83699846D01*
X131669070Y-83685430D01*
X131654654Y-83669524D01*
X131641866Y-83652281D01*
X131630830Y-83633868D01*
X131621651Y-83614462D01*
X131614419Y-83594250D01*
X131609203Y-83573426D01*
X131606053Y-83552191D01*
X131605000Y-83530750D01*
X131605000Y-83093250D01*
X131606053Y-83071809D01*
X131609203Y-83050574D01*
X131614419Y-83029750D01*
X131621651Y-83009538D01*
X131630830Y-82990132D01*
X131641866Y-82971719D01*
X131654654Y-82954476D01*
X131669070Y-82938570D01*
X131684976Y-82924154D01*
X131702219Y-82911366D01*
X131720632Y-82900330D01*
X131740038Y-82891151D01*
X131760250Y-82883919D01*
X131781074Y-82878703D01*
X131802309Y-82875553D01*
X131823750Y-82874500D01*
X132336250Y-82874500D01*
X132357691Y-82875553D01*
X132357691Y-82875553D01*
G37*
D11*
X132080000Y-83312000D03*
D10*
G36*
X128293691Y-82799553D02*
X128314926Y-82802703D01*
X128335750Y-82807919D01*
X128355962Y-82815151D01*
X128375368Y-82824330D01*
X128393781Y-82835366D01*
X128411024Y-82848154D01*
X128426930Y-82862570D01*
X128441346Y-82878476D01*
X128454134Y-82895719D01*
X128465170Y-82914132D01*
X128474349Y-82933538D01*
X128481581Y-82953750D01*
X128486797Y-82974574D01*
X128489947Y-82995809D01*
X128491000Y-83017250D01*
X128491000Y-83454750D01*
X128489947Y-83476191D01*
X128486797Y-83497426D01*
X128481581Y-83518250D01*
X128474349Y-83538462D01*
X128465170Y-83557868D01*
X128454134Y-83576281D01*
X128441346Y-83593524D01*
X128426930Y-83609430D01*
X128411024Y-83623846D01*
X128393781Y-83636634D01*
X128375368Y-83647670D01*
X128355962Y-83656849D01*
X128335750Y-83664081D01*
X128314926Y-83669297D01*
X128293691Y-83672447D01*
X128272250Y-83673500D01*
X127759750Y-83673500D01*
X127738309Y-83672447D01*
X127717074Y-83669297D01*
X127696250Y-83664081D01*
X127676038Y-83656849D01*
X127656632Y-83647670D01*
X127638219Y-83636634D01*
X127620976Y-83623846D01*
X127605070Y-83609430D01*
X127590654Y-83593524D01*
X127577866Y-83576281D01*
X127566830Y-83557868D01*
X127557651Y-83538462D01*
X127550419Y-83518250D01*
X127545203Y-83497426D01*
X127542053Y-83476191D01*
X127541000Y-83454750D01*
X127541000Y-83017250D01*
X127542053Y-82995809D01*
X127545203Y-82974574D01*
X127550419Y-82953750D01*
X127557651Y-82933538D01*
X127566830Y-82914132D01*
X127577866Y-82895719D01*
X127590654Y-82878476D01*
X127605070Y-82862570D01*
X127620976Y-82848154D01*
X127638219Y-82835366D01*
X127656632Y-82824330D01*
X127676038Y-82815151D01*
X127696250Y-82807919D01*
X127717074Y-82802703D01*
X127738309Y-82799553D01*
X127759750Y-82798500D01*
X128272250Y-82798500D01*
X128293691Y-82799553D01*
X128293691Y-82799553D01*
G37*
D11*
X128016000Y-83236000D03*
D10*
G36*
X128293691Y-81224553D02*
X128314926Y-81227703D01*
X128335750Y-81232919D01*
X128355962Y-81240151D01*
X128375368Y-81249330D01*
X128393781Y-81260366D01*
X128411024Y-81273154D01*
X128426930Y-81287570D01*
X128441346Y-81303476D01*
X128454134Y-81320719D01*
X128465170Y-81339132D01*
X128474349Y-81358538D01*
X128481581Y-81378750D01*
X128486797Y-81399574D01*
X128489947Y-81420809D01*
X128491000Y-81442250D01*
X128491000Y-81879750D01*
X128489947Y-81901191D01*
X128486797Y-81922426D01*
X128481581Y-81943250D01*
X128474349Y-81963462D01*
X128465170Y-81982868D01*
X128454134Y-82001281D01*
X128441346Y-82018524D01*
X128426930Y-82034430D01*
X128411024Y-82048846D01*
X128393781Y-82061634D01*
X128375368Y-82072670D01*
X128355962Y-82081849D01*
X128335750Y-82089081D01*
X128314926Y-82094297D01*
X128293691Y-82097447D01*
X128272250Y-82098500D01*
X127759750Y-82098500D01*
X127738309Y-82097447D01*
X127717074Y-82094297D01*
X127696250Y-82089081D01*
X127676038Y-82081849D01*
X127656632Y-82072670D01*
X127638219Y-82061634D01*
X127620976Y-82048846D01*
X127605070Y-82034430D01*
X127590654Y-82018524D01*
X127577866Y-82001281D01*
X127566830Y-81982868D01*
X127557651Y-81963462D01*
X127550419Y-81943250D01*
X127545203Y-81922426D01*
X127542053Y-81901191D01*
X127541000Y-81879750D01*
X127541000Y-81442250D01*
X127542053Y-81420809D01*
X127545203Y-81399574D01*
X127550419Y-81378750D01*
X127557651Y-81358538D01*
X127566830Y-81339132D01*
X127577866Y-81320719D01*
X127590654Y-81303476D01*
X127605070Y-81287570D01*
X127620976Y-81273154D01*
X127638219Y-81260366D01*
X127656632Y-81249330D01*
X127676038Y-81240151D01*
X127696250Y-81232919D01*
X127717074Y-81227703D01*
X127738309Y-81224553D01*
X127759750Y-81223500D01*
X128272250Y-81223500D01*
X128293691Y-81224553D01*
X128293691Y-81224553D01*
G37*
D11*
X128016000Y-81661000D03*
D10*
G36*
X125880691Y-81224553D02*
X125901926Y-81227703D01*
X125922750Y-81232919D01*
X125942962Y-81240151D01*
X125962368Y-81249330D01*
X125980781Y-81260366D01*
X125998024Y-81273154D01*
X126013930Y-81287570D01*
X126028346Y-81303476D01*
X126041134Y-81320719D01*
X126052170Y-81339132D01*
X126061349Y-81358538D01*
X126068581Y-81378750D01*
X126073797Y-81399574D01*
X126076947Y-81420809D01*
X126078000Y-81442250D01*
X126078000Y-81879750D01*
X126076947Y-81901191D01*
X126073797Y-81922426D01*
X126068581Y-81943250D01*
X126061349Y-81963462D01*
X126052170Y-81982868D01*
X126041134Y-82001281D01*
X126028346Y-82018524D01*
X126013930Y-82034430D01*
X125998024Y-82048846D01*
X125980781Y-82061634D01*
X125962368Y-82072670D01*
X125942962Y-82081849D01*
X125922750Y-82089081D01*
X125901926Y-82094297D01*
X125880691Y-82097447D01*
X125859250Y-82098500D01*
X125346750Y-82098500D01*
X125325309Y-82097447D01*
X125304074Y-82094297D01*
X125283250Y-82089081D01*
X125263038Y-82081849D01*
X125243632Y-82072670D01*
X125225219Y-82061634D01*
X125207976Y-82048846D01*
X125192070Y-82034430D01*
X125177654Y-82018524D01*
X125164866Y-82001281D01*
X125153830Y-81982868D01*
X125144651Y-81963462D01*
X125137419Y-81943250D01*
X125132203Y-81922426D01*
X125129053Y-81901191D01*
X125128000Y-81879750D01*
X125128000Y-81442250D01*
X125129053Y-81420809D01*
X125132203Y-81399574D01*
X125137419Y-81378750D01*
X125144651Y-81358538D01*
X125153830Y-81339132D01*
X125164866Y-81320719D01*
X125177654Y-81303476D01*
X125192070Y-81287570D01*
X125207976Y-81273154D01*
X125225219Y-81260366D01*
X125243632Y-81249330D01*
X125263038Y-81240151D01*
X125283250Y-81232919D01*
X125304074Y-81227703D01*
X125325309Y-81224553D01*
X125346750Y-81223500D01*
X125859250Y-81223500D01*
X125880691Y-81224553D01*
X125880691Y-81224553D01*
G37*
D11*
X125603000Y-81661000D03*
D10*
G36*
X125880691Y-82799553D02*
X125901926Y-82802703D01*
X125922750Y-82807919D01*
X125942962Y-82815151D01*
X125962368Y-82824330D01*
X125980781Y-82835366D01*
X125998024Y-82848154D01*
X126013930Y-82862570D01*
X126028346Y-82878476D01*
X126041134Y-82895719D01*
X126052170Y-82914132D01*
X126061349Y-82933538D01*
X126068581Y-82953750D01*
X126073797Y-82974574D01*
X126076947Y-82995809D01*
X126078000Y-83017250D01*
X126078000Y-83454750D01*
X126076947Y-83476191D01*
X126073797Y-83497426D01*
X126068581Y-83518250D01*
X126061349Y-83538462D01*
X126052170Y-83557868D01*
X126041134Y-83576281D01*
X126028346Y-83593524D01*
X126013930Y-83609430D01*
X125998024Y-83623846D01*
X125980781Y-83636634D01*
X125962368Y-83647670D01*
X125942962Y-83656849D01*
X125922750Y-83664081D01*
X125901926Y-83669297D01*
X125880691Y-83672447D01*
X125859250Y-83673500D01*
X125346750Y-83673500D01*
X125325309Y-83672447D01*
X125304074Y-83669297D01*
X125283250Y-83664081D01*
X125263038Y-83656849D01*
X125243632Y-83647670D01*
X125225219Y-83636634D01*
X125207976Y-83623846D01*
X125192070Y-83609430D01*
X125177654Y-83593524D01*
X125164866Y-83576281D01*
X125153830Y-83557868D01*
X125144651Y-83538462D01*
X125137419Y-83518250D01*
X125132203Y-83497426D01*
X125129053Y-83476191D01*
X125128000Y-83454750D01*
X125128000Y-83017250D01*
X125129053Y-82995809D01*
X125132203Y-82974574D01*
X125137419Y-82953750D01*
X125144651Y-82933538D01*
X125153830Y-82914132D01*
X125164866Y-82895719D01*
X125177654Y-82878476D01*
X125192070Y-82862570D01*
X125207976Y-82848154D01*
X125225219Y-82835366D01*
X125243632Y-82824330D01*
X125263038Y-82815151D01*
X125283250Y-82807919D01*
X125304074Y-82802703D01*
X125325309Y-82799553D01*
X125346750Y-82798500D01*
X125859250Y-82798500D01*
X125880691Y-82799553D01*
X125880691Y-82799553D01*
G37*
D11*
X125603000Y-83236000D03*
D10*
G36*
X123467691Y-82774053D02*
X123488926Y-82777203D01*
X123509750Y-82782419D01*
X123529962Y-82789651D01*
X123549368Y-82798830D01*
X123567781Y-82809866D01*
X123585024Y-82822654D01*
X123600930Y-82837070D01*
X123615346Y-82852976D01*
X123628134Y-82870219D01*
X123639170Y-82888632D01*
X123648349Y-82908038D01*
X123655581Y-82928250D01*
X123660797Y-82949074D01*
X123663947Y-82970309D01*
X123665000Y-82991750D01*
X123665000Y-83429250D01*
X123663947Y-83450691D01*
X123660797Y-83471926D01*
X123655581Y-83492750D01*
X123648349Y-83512962D01*
X123639170Y-83532368D01*
X123628134Y-83550781D01*
X123615346Y-83568024D01*
X123600930Y-83583930D01*
X123585024Y-83598346D01*
X123567781Y-83611134D01*
X123549368Y-83622170D01*
X123529962Y-83631349D01*
X123509750Y-83638581D01*
X123488926Y-83643797D01*
X123467691Y-83646947D01*
X123446250Y-83648000D01*
X122933750Y-83648000D01*
X122912309Y-83646947D01*
X122891074Y-83643797D01*
X122870250Y-83638581D01*
X122850038Y-83631349D01*
X122830632Y-83622170D01*
X122812219Y-83611134D01*
X122794976Y-83598346D01*
X122779070Y-83583930D01*
X122764654Y-83568024D01*
X122751866Y-83550781D01*
X122740830Y-83532368D01*
X122731651Y-83512962D01*
X122724419Y-83492750D01*
X122719203Y-83471926D01*
X122716053Y-83450691D01*
X122715000Y-83429250D01*
X122715000Y-82991750D01*
X122716053Y-82970309D01*
X122719203Y-82949074D01*
X122724419Y-82928250D01*
X122731651Y-82908038D01*
X122740830Y-82888632D01*
X122751866Y-82870219D01*
X122764654Y-82852976D01*
X122779070Y-82837070D01*
X122794976Y-82822654D01*
X122812219Y-82809866D01*
X122830632Y-82798830D01*
X122850038Y-82789651D01*
X122870250Y-82782419D01*
X122891074Y-82777203D01*
X122912309Y-82774053D01*
X122933750Y-82773000D01*
X123446250Y-82773000D01*
X123467691Y-82774053D01*
X123467691Y-82774053D01*
G37*
D11*
X123190000Y-83210500D03*
D10*
G36*
X123467691Y-81199053D02*
X123488926Y-81202203D01*
X123509750Y-81207419D01*
X123529962Y-81214651D01*
X123549368Y-81223830D01*
X123567781Y-81234866D01*
X123585024Y-81247654D01*
X123600930Y-81262070D01*
X123615346Y-81277976D01*
X123628134Y-81295219D01*
X123639170Y-81313632D01*
X123648349Y-81333038D01*
X123655581Y-81353250D01*
X123660797Y-81374074D01*
X123663947Y-81395309D01*
X123665000Y-81416750D01*
X123665000Y-81854250D01*
X123663947Y-81875691D01*
X123660797Y-81896926D01*
X123655581Y-81917750D01*
X123648349Y-81937962D01*
X123639170Y-81957368D01*
X123628134Y-81975781D01*
X123615346Y-81993024D01*
X123600930Y-82008930D01*
X123585024Y-82023346D01*
X123567781Y-82036134D01*
X123549368Y-82047170D01*
X123529962Y-82056349D01*
X123509750Y-82063581D01*
X123488926Y-82068797D01*
X123467691Y-82071947D01*
X123446250Y-82073000D01*
X122933750Y-82073000D01*
X122912309Y-82071947D01*
X122891074Y-82068797D01*
X122870250Y-82063581D01*
X122850038Y-82056349D01*
X122830632Y-82047170D01*
X122812219Y-82036134D01*
X122794976Y-82023346D01*
X122779070Y-82008930D01*
X122764654Y-81993024D01*
X122751866Y-81975781D01*
X122740830Y-81957368D01*
X122731651Y-81937962D01*
X122724419Y-81917750D01*
X122719203Y-81896926D01*
X122716053Y-81875691D01*
X122715000Y-81854250D01*
X122715000Y-81416750D01*
X122716053Y-81395309D01*
X122719203Y-81374074D01*
X122724419Y-81353250D01*
X122731651Y-81333038D01*
X122740830Y-81313632D01*
X122751866Y-81295219D01*
X122764654Y-81277976D01*
X122779070Y-81262070D01*
X122794976Y-81247654D01*
X122812219Y-81234866D01*
X122830632Y-81223830D01*
X122850038Y-81214651D01*
X122870250Y-81207419D01*
X122891074Y-81202203D01*
X122912309Y-81199053D01*
X122933750Y-81198000D01*
X123446250Y-81198000D01*
X123467691Y-81199053D01*
X123467691Y-81199053D01*
G37*
D11*
X123190000Y-81635500D03*
D10*
G36*
X120927691Y-81224553D02*
X120948926Y-81227703D01*
X120969750Y-81232919D01*
X120989962Y-81240151D01*
X121009368Y-81249330D01*
X121027781Y-81260366D01*
X121045024Y-81273154D01*
X121060930Y-81287570D01*
X121075346Y-81303476D01*
X121088134Y-81320719D01*
X121099170Y-81339132D01*
X121108349Y-81358538D01*
X121115581Y-81378750D01*
X121120797Y-81399574D01*
X121123947Y-81420809D01*
X121125000Y-81442250D01*
X121125000Y-81879750D01*
X121123947Y-81901191D01*
X121120797Y-81922426D01*
X121115581Y-81943250D01*
X121108349Y-81963462D01*
X121099170Y-81982868D01*
X121088134Y-82001281D01*
X121075346Y-82018524D01*
X121060930Y-82034430D01*
X121045024Y-82048846D01*
X121027781Y-82061634D01*
X121009368Y-82072670D01*
X120989962Y-82081849D01*
X120969750Y-82089081D01*
X120948926Y-82094297D01*
X120927691Y-82097447D01*
X120906250Y-82098500D01*
X120393750Y-82098500D01*
X120372309Y-82097447D01*
X120351074Y-82094297D01*
X120330250Y-82089081D01*
X120310038Y-82081849D01*
X120290632Y-82072670D01*
X120272219Y-82061634D01*
X120254976Y-82048846D01*
X120239070Y-82034430D01*
X120224654Y-82018524D01*
X120211866Y-82001281D01*
X120200830Y-81982868D01*
X120191651Y-81963462D01*
X120184419Y-81943250D01*
X120179203Y-81922426D01*
X120176053Y-81901191D01*
X120175000Y-81879750D01*
X120175000Y-81442250D01*
X120176053Y-81420809D01*
X120179203Y-81399574D01*
X120184419Y-81378750D01*
X120191651Y-81358538D01*
X120200830Y-81339132D01*
X120211866Y-81320719D01*
X120224654Y-81303476D01*
X120239070Y-81287570D01*
X120254976Y-81273154D01*
X120272219Y-81260366D01*
X120290632Y-81249330D01*
X120310038Y-81240151D01*
X120330250Y-81232919D01*
X120351074Y-81227703D01*
X120372309Y-81224553D01*
X120393750Y-81223500D01*
X120906250Y-81223500D01*
X120927691Y-81224553D01*
X120927691Y-81224553D01*
G37*
D11*
X120650000Y-81661000D03*
D10*
G36*
X120927691Y-82799553D02*
X120948926Y-82802703D01*
X120969750Y-82807919D01*
X120989962Y-82815151D01*
X121009368Y-82824330D01*
X121027781Y-82835366D01*
X121045024Y-82848154D01*
X121060930Y-82862570D01*
X121075346Y-82878476D01*
X121088134Y-82895719D01*
X121099170Y-82914132D01*
X121108349Y-82933538D01*
X121115581Y-82953750D01*
X121120797Y-82974574D01*
X121123947Y-82995809D01*
X121125000Y-83017250D01*
X121125000Y-83454750D01*
X121123947Y-83476191D01*
X121120797Y-83497426D01*
X121115581Y-83518250D01*
X121108349Y-83538462D01*
X121099170Y-83557868D01*
X121088134Y-83576281D01*
X121075346Y-83593524D01*
X121060930Y-83609430D01*
X121045024Y-83623846D01*
X121027781Y-83636634D01*
X121009368Y-83647670D01*
X120989962Y-83656849D01*
X120969750Y-83664081D01*
X120948926Y-83669297D01*
X120927691Y-83672447D01*
X120906250Y-83673500D01*
X120393750Y-83673500D01*
X120372309Y-83672447D01*
X120351074Y-83669297D01*
X120330250Y-83664081D01*
X120310038Y-83656849D01*
X120290632Y-83647670D01*
X120272219Y-83636634D01*
X120254976Y-83623846D01*
X120239070Y-83609430D01*
X120224654Y-83593524D01*
X120211866Y-83576281D01*
X120200830Y-83557868D01*
X120191651Y-83538462D01*
X120184419Y-83518250D01*
X120179203Y-83497426D01*
X120176053Y-83476191D01*
X120175000Y-83454750D01*
X120175000Y-83017250D01*
X120176053Y-82995809D01*
X120179203Y-82974574D01*
X120184419Y-82953750D01*
X120191651Y-82933538D01*
X120200830Y-82914132D01*
X120211866Y-82895719D01*
X120224654Y-82878476D01*
X120239070Y-82862570D01*
X120254976Y-82848154D01*
X120272219Y-82835366D01*
X120290632Y-82824330D01*
X120310038Y-82815151D01*
X120330250Y-82807919D01*
X120351074Y-82802703D01*
X120372309Y-82799553D01*
X120393750Y-82798500D01*
X120906250Y-82798500D01*
X120927691Y-82799553D01*
X120927691Y-82799553D01*
G37*
D11*
X120650000Y-83236000D03*
D10*
G36*
X123975691Y-129526053D02*
X123996926Y-129529203D01*
X124017750Y-129534419D01*
X124037962Y-129541651D01*
X124057368Y-129550830D01*
X124075781Y-129561866D01*
X124093024Y-129574654D01*
X124108930Y-129589070D01*
X124123346Y-129604976D01*
X124136134Y-129622219D01*
X124147170Y-129640632D01*
X124156349Y-129660038D01*
X124163581Y-129680250D01*
X124168797Y-129701074D01*
X124171947Y-129722309D01*
X124173000Y-129743750D01*
X124173000Y-130181250D01*
X124171947Y-130202691D01*
X124168797Y-130223926D01*
X124163581Y-130244750D01*
X124156349Y-130264962D01*
X124147170Y-130284368D01*
X124136134Y-130302781D01*
X124123346Y-130320024D01*
X124108930Y-130335930D01*
X124093024Y-130350346D01*
X124075781Y-130363134D01*
X124057368Y-130374170D01*
X124037962Y-130383349D01*
X124017750Y-130390581D01*
X123996926Y-130395797D01*
X123975691Y-130398947D01*
X123954250Y-130400000D01*
X123441750Y-130400000D01*
X123420309Y-130398947D01*
X123399074Y-130395797D01*
X123378250Y-130390581D01*
X123358038Y-130383349D01*
X123338632Y-130374170D01*
X123320219Y-130363134D01*
X123302976Y-130350346D01*
X123287070Y-130335930D01*
X123272654Y-130320024D01*
X123259866Y-130302781D01*
X123248830Y-130284368D01*
X123239651Y-130264962D01*
X123232419Y-130244750D01*
X123227203Y-130223926D01*
X123224053Y-130202691D01*
X123223000Y-130181250D01*
X123223000Y-129743750D01*
X123224053Y-129722309D01*
X123227203Y-129701074D01*
X123232419Y-129680250D01*
X123239651Y-129660038D01*
X123248830Y-129640632D01*
X123259866Y-129622219D01*
X123272654Y-129604976D01*
X123287070Y-129589070D01*
X123302976Y-129574654D01*
X123320219Y-129561866D01*
X123338632Y-129550830D01*
X123358038Y-129541651D01*
X123378250Y-129534419D01*
X123399074Y-129529203D01*
X123420309Y-129526053D01*
X123441750Y-129525000D01*
X123954250Y-129525000D01*
X123975691Y-129526053D01*
X123975691Y-129526053D01*
G37*
D11*
X123698000Y-129962500D03*
D10*
G36*
X123975691Y-127951053D02*
X123996926Y-127954203D01*
X124017750Y-127959419D01*
X124037962Y-127966651D01*
X124057368Y-127975830D01*
X124075781Y-127986866D01*
X124093024Y-127999654D01*
X124108930Y-128014070D01*
X124123346Y-128029976D01*
X124136134Y-128047219D01*
X124147170Y-128065632D01*
X124156349Y-128085038D01*
X124163581Y-128105250D01*
X124168797Y-128126074D01*
X124171947Y-128147309D01*
X124173000Y-128168750D01*
X124173000Y-128606250D01*
X124171947Y-128627691D01*
X124168797Y-128648926D01*
X124163581Y-128669750D01*
X124156349Y-128689962D01*
X124147170Y-128709368D01*
X124136134Y-128727781D01*
X124123346Y-128745024D01*
X124108930Y-128760930D01*
X124093024Y-128775346D01*
X124075781Y-128788134D01*
X124057368Y-128799170D01*
X124037962Y-128808349D01*
X124017750Y-128815581D01*
X123996926Y-128820797D01*
X123975691Y-128823947D01*
X123954250Y-128825000D01*
X123441750Y-128825000D01*
X123420309Y-128823947D01*
X123399074Y-128820797D01*
X123378250Y-128815581D01*
X123358038Y-128808349D01*
X123338632Y-128799170D01*
X123320219Y-128788134D01*
X123302976Y-128775346D01*
X123287070Y-128760930D01*
X123272654Y-128745024D01*
X123259866Y-128727781D01*
X123248830Y-128709368D01*
X123239651Y-128689962D01*
X123232419Y-128669750D01*
X123227203Y-128648926D01*
X123224053Y-128627691D01*
X123223000Y-128606250D01*
X123223000Y-128168750D01*
X123224053Y-128147309D01*
X123227203Y-128126074D01*
X123232419Y-128105250D01*
X123239651Y-128085038D01*
X123248830Y-128065632D01*
X123259866Y-128047219D01*
X123272654Y-128029976D01*
X123287070Y-128014070D01*
X123302976Y-127999654D01*
X123320219Y-127986866D01*
X123338632Y-127975830D01*
X123358038Y-127966651D01*
X123378250Y-127959419D01*
X123399074Y-127954203D01*
X123420309Y-127951053D01*
X123441750Y-127950000D01*
X123954250Y-127950000D01*
X123975691Y-127951053D01*
X123975691Y-127951053D01*
G37*
D11*
X123698000Y-128387500D03*
D10*
G36*
X135278691Y-125538053D02*
X135299926Y-125541203D01*
X135320750Y-125546419D01*
X135340962Y-125553651D01*
X135360368Y-125562830D01*
X135378781Y-125573866D01*
X135396024Y-125586654D01*
X135411930Y-125601070D01*
X135426346Y-125616976D01*
X135439134Y-125634219D01*
X135450170Y-125652632D01*
X135459349Y-125672038D01*
X135466581Y-125692250D01*
X135471797Y-125713074D01*
X135474947Y-125734309D01*
X135476000Y-125755750D01*
X135476000Y-126193250D01*
X135474947Y-126214691D01*
X135471797Y-126235926D01*
X135466581Y-126256750D01*
X135459349Y-126276962D01*
X135450170Y-126296368D01*
X135439134Y-126314781D01*
X135426346Y-126332024D01*
X135411930Y-126347930D01*
X135396024Y-126362346D01*
X135378781Y-126375134D01*
X135360368Y-126386170D01*
X135340962Y-126395349D01*
X135320750Y-126402581D01*
X135299926Y-126407797D01*
X135278691Y-126410947D01*
X135257250Y-126412000D01*
X134744750Y-126412000D01*
X134723309Y-126410947D01*
X134702074Y-126407797D01*
X134681250Y-126402581D01*
X134661038Y-126395349D01*
X134641632Y-126386170D01*
X134623219Y-126375134D01*
X134605976Y-126362346D01*
X134590070Y-126347930D01*
X134575654Y-126332024D01*
X134562866Y-126314781D01*
X134551830Y-126296368D01*
X134542651Y-126276962D01*
X134535419Y-126256750D01*
X134530203Y-126235926D01*
X134527053Y-126214691D01*
X134526000Y-126193250D01*
X134526000Y-125755750D01*
X134527053Y-125734309D01*
X134530203Y-125713074D01*
X134535419Y-125692250D01*
X134542651Y-125672038D01*
X134551830Y-125652632D01*
X134562866Y-125634219D01*
X134575654Y-125616976D01*
X134590070Y-125601070D01*
X134605976Y-125586654D01*
X134623219Y-125573866D01*
X134641632Y-125562830D01*
X134661038Y-125553651D01*
X134681250Y-125546419D01*
X134702074Y-125541203D01*
X134723309Y-125538053D01*
X134744750Y-125537000D01*
X135257250Y-125537000D01*
X135278691Y-125538053D01*
X135278691Y-125538053D01*
G37*
D11*
X135001000Y-125974500D03*
D10*
G36*
X135278691Y-127113053D02*
X135299926Y-127116203D01*
X135320750Y-127121419D01*
X135340962Y-127128651D01*
X135360368Y-127137830D01*
X135378781Y-127148866D01*
X135396024Y-127161654D01*
X135411930Y-127176070D01*
X135426346Y-127191976D01*
X135439134Y-127209219D01*
X135450170Y-127227632D01*
X135459349Y-127247038D01*
X135466581Y-127267250D01*
X135471797Y-127288074D01*
X135474947Y-127309309D01*
X135476000Y-127330750D01*
X135476000Y-127768250D01*
X135474947Y-127789691D01*
X135471797Y-127810926D01*
X135466581Y-127831750D01*
X135459349Y-127851962D01*
X135450170Y-127871368D01*
X135439134Y-127889781D01*
X135426346Y-127907024D01*
X135411930Y-127922930D01*
X135396024Y-127937346D01*
X135378781Y-127950134D01*
X135360368Y-127961170D01*
X135340962Y-127970349D01*
X135320750Y-127977581D01*
X135299926Y-127982797D01*
X135278691Y-127985947D01*
X135257250Y-127987000D01*
X134744750Y-127987000D01*
X134723309Y-127985947D01*
X134702074Y-127982797D01*
X134681250Y-127977581D01*
X134661038Y-127970349D01*
X134641632Y-127961170D01*
X134623219Y-127950134D01*
X134605976Y-127937346D01*
X134590070Y-127922930D01*
X134575654Y-127907024D01*
X134562866Y-127889781D01*
X134551830Y-127871368D01*
X134542651Y-127851962D01*
X134535419Y-127831750D01*
X134530203Y-127810926D01*
X134527053Y-127789691D01*
X134526000Y-127768250D01*
X134526000Y-127330750D01*
X134527053Y-127309309D01*
X134530203Y-127288074D01*
X134535419Y-127267250D01*
X134542651Y-127247038D01*
X134551830Y-127227632D01*
X134562866Y-127209219D01*
X134575654Y-127191976D01*
X134590070Y-127176070D01*
X134605976Y-127161654D01*
X134623219Y-127148866D01*
X134641632Y-127137830D01*
X134661038Y-127128651D01*
X134681250Y-127121419D01*
X134702074Y-127116203D01*
X134723309Y-127113053D01*
X134744750Y-127112000D01*
X135257250Y-127112000D01*
X135278691Y-127113053D01*
X135278691Y-127113053D01*
G37*
D11*
X135001000Y-127549500D03*
M02*
