%TF.GenerationSoftware,KiCad,Pcbnew,5.0.2+dfsg1-1*%
%TF.CreationDate,2021-12-28T09:45:32+01:00*%
%TF.ProjectId,GbSwitchFp,47625377-6974-4636-9846-702e6b696361,rev?*%
%TF.SameCoordinates,Original*%
%TF.FileFunction,Paste,Top*%
%TF.FilePolarity,Positive*%
%FSLAX46Y46*%
G04 Gerber Fmt 4.6, Leading zero omitted, Abs format (unit mm)*
G04 Created by KiCad (PCBNEW 5.0.2+dfsg1-1) date Tue 28 Dec 2021 09:45:32 AM CET*
%MOMM*%
%LPD*%
G01*
G04 APERTURE LIST*
%ADD10C,0.100000*%
%ADD11C,0.875000*%
%ADD12R,1.450000X0.450000*%
G04 APERTURE END LIST*
D10*
G36*
X130415191Y-89696053D02*
X130436426Y-89699203D01*
X130457250Y-89704419D01*
X130477462Y-89711651D01*
X130496868Y-89720830D01*
X130515281Y-89731866D01*
X130532524Y-89744654D01*
X130548430Y-89759070D01*
X130562846Y-89774976D01*
X130575634Y-89792219D01*
X130586670Y-89810632D01*
X130595849Y-89830038D01*
X130603081Y-89850250D01*
X130608297Y-89871074D01*
X130611447Y-89892309D01*
X130612500Y-89913750D01*
X130612500Y-90426250D01*
X130611447Y-90447691D01*
X130608297Y-90468926D01*
X130603081Y-90489750D01*
X130595849Y-90509962D01*
X130586670Y-90529368D01*
X130575634Y-90547781D01*
X130562846Y-90565024D01*
X130548430Y-90580930D01*
X130532524Y-90595346D01*
X130515281Y-90608134D01*
X130496868Y-90619170D01*
X130477462Y-90628349D01*
X130457250Y-90635581D01*
X130436426Y-90640797D01*
X130415191Y-90643947D01*
X130393750Y-90645000D01*
X129956250Y-90645000D01*
X129934809Y-90643947D01*
X129913574Y-90640797D01*
X129892750Y-90635581D01*
X129872538Y-90628349D01*
X129853132Y-90619170D01*
X129834719Y-90608134D01*
X129817476Y-90595346D01*
X129801570Y-90580930D01*
X129787154Y-90565024D01*
X129774366Y-90547781D01*
X129763330Y-90529368D01*
X129754151Y-90509962D01*
X129746919Y-90489750D01*
X129741703Y-90468926D01*
X129738553Y-90447691D01*
X129737500Y-90426250D01*
X129737500Y-89913750D01*
X129738553Y-89892309D01*
X129741703Y-89871074D01*
X129746919Y-89850250D01*
X129754151Y-89830038D01*
X129763330Y-89810632D01*
X129774366Y-89792219D01*
X129787154Y-89774976D01*
X129801570Y-89759070D01*
X129817476Y-89744654D01*
X129834719Y-89731866D01*
X129853132Y-89720830D01*
X129872538Y-89711651D01*
X129892750Y-89704419D01*
X129913574Y-89699203D01*
X129934809Y-89696053D01*
X129956250Y-89695000D01*
X130393750Y-89695000D01*
X130415191Y-89696053D01*
X130415191Y-89696053D01*
G37*
D11*
X130175000Y-90170000D03*
D10*
G36*
X128840191Y-89696053D02*
X128861426Y-89699203D01*
X128882250Y-89704419D01*
X128902462Y-89711651D01*
X128921868Y-89720830D01*
X128940281Y-89731866D01*
X128957524Y-89744654D01*
X128973430Y-89759070D01*
X128987846Y-89774976D01*
X129000634Y-89792219D01*
X129011670Y-89810632D01*
X129020849Y-89830038D01*
X129028081Y-89850250D01*
X129033297Y-89871074D01*
X129036447Y-89892309D01*
X129037500Y-89913750D01*
X129037500Y-90426250D01*
X129036447Y-90447691D01*
X129033297Y-90468926D01*
X129028081Y-90489750D01*
X129020849Y-90509962D01*
X129011670Y-90529368D01*
X129000634Y-90547781D01*
X128987846Y-90565024D01*
X128973430Y-90580930D01*
X128957524Y-90595346D01*
X128940281Y-90608134D01*
X128921868Y-90619170D01*
X128902462Y-90628349D01*
X128882250Y-90635581D01*
X128861426Y-90640797D01*
X128840191Y-90643947D01*
X128818750Y-90645000D01*
X128381250Y-90645000D01*
X128359809Y-90643947D01*
X128338574Y-90640797D01*
X128317750Y-90635581D01*
X128297538Y-90628349D01*
X128278132Y-90619170D01*
X128259719Y-90608134D01*
X128242476Y-90595346D01*
X128226570Y-90580930D01*
X128212154Y-90565024D01*
X128199366Y-90547781D01*
X128188330Y-90529368D01*
X128179151Y-90509962D01*
X128171919Y-90489750D01*
X128166703Y-90468926D01*
X128163553Y-90447691D01*
X128162500Y-90426250D01*
X128162500Y-89913750D01*
X128163553Y-89892309D01*
X128166703Y-89871074D01*
X128171919Y-89850250D01*
X128179151Y-89830038D01*
X128188330Y-89810632D01*
X128199366Y-89792219D01*
X128212154Y-89774976D01*
X128226570Y-89759070D01*
X128242476Y-89744654D01*
X128259719Y-89731866D01*
X128278132Y-89720830D01*
X128297538Y-89711651D01*
X128317750Y-89704419D01*
X128338574Y-89699203D01*
X128359809Y-89696053D01*
X128381250Y-89695000D01*
X128818750Y-89695000D01*
X128840191Y-89696053D01*
X128840191Y-89696053D01*
G37*
D11*
X128600000Y-90170000D03*
D10*
G36*
X136802691Y-93696053D02*
X136823926Y-93699203D01*
X136844750Y-93704419D01*
X136864962Y-93711651D01*
X136884368Y-93720830D01*
X136902781Y-93731866D01*
X136920024Y-93744654D01*
X136935930Y-93759070D01*
X136950346Y-93774976D01*
X136963134Y-93792219D01*
X136974170Y-93810632D01*
X136983349Y-93830038D01*
X136990581Y-93850250D01*
X136995797Y-93871074D01*
X136998947Y-93892309D01*
X137000000Y-93913750D01*
X137000000Y-94351250D01*
X136998947Y-94372691D01*
X136995797Y-94393926D01*
X136990581Y-94414750D01*
X136983349Y-94434962D01*
X136974170Y-94454368D01*
X136963134Y-94472781D01*
X136950346Y-94490024D01*
X136935930Y-94505930D01*
X136920024Y-94520346D01*
X136902781Y-94533134D01*
X136884368Y-94544170D01*
X136864962Y-94553349D01*
X136844750Y-94560581D01*
X136823926Y-94565797D01*
X136802691Y-94568947D01*
X136781250Y-94570000D01*
X136268750Y-94570000D01*
X136247309Y-94568947D01*
X136226074Y-94565797D01*
X136205250Y-94560581D01*
X136185038Y-94553349D01*
X136165632Y-94544170D01*
X136147219Y-94533134D01*
X136129976Y-94520346D01*
X136114070Y-94505930D01*
X136099654Y-94490024D01*
X136086866Y-94472781D01*
X136075830Y-94454368D01*
X136066651Y-94434962D01*
X136059419Y-94414750D01*
X136054203Y-94393926D01*
X136051053Y-94372691D01*
X136050000Y-94351250D01*
X136050000Y-93913750D01*
X136051053Y-93892309D01*
X136054203Y-93871074D01*
X136059419Y-93850250D01*
X136066651Y-93830038D01*
X136075830Y-93810632D01*
X136086866Y-93792219D01*
X136099654Y-93774976D01*
X136114070Y-93759070D01*
X136129976Y-93744654D01*
X136147219Y-93731866D01*
X136165632Y-93720830D01*
X136185038Y-93711651D01*
X136205250Y-93704419D01*
X136226074Y-93699203D01*
X136247309Y-93696053D01*
X136268750Y-93695000D01*
X136781250Y-93695000D01*
X136802691Y-93696053D01*
X136802691Y-93696053D01*
G37*
D11*
X136525000Y-94132500D03*
D10*
G36*
X136802691Y-92121053D02*
X136823926Y-92124203D01*
X136844750Y-92129419D01*
X136864962Y-92136651D01*
X136884368Y-92145830D01*
X136902781Y-92156866D01*
X136920024Y-92169654D01*
X136935930Y-92184070D01*
X136950346Y-92199976D01*
X136963134Y-92217219D01*
X136974170Y-92235632D01*
X136983349Y-92255038D01*
X136990581Y-92275250D01*
X136995797Y-92296074D01*
X136998947Y-92317309D01*
X137000000Y-92338750D01*
X137000000Y-92776250D01*
X136998947Y-92797691D01*
X136995797Y-92818926D01*
X136990581Y-92839750D01*
X136983349Y-92859962D01*
X136974170Y-92879368D01*
X136963134Y-92897781D01*
X136950346Y-92915024D01*
X136935930Y-92930930D01*
X136920024Y-92945346D01*
X136902781Y-92958134D01*
X136884368Y-92969170D01*
X136864962Y-92978349D01*
X136844750Y-92985581D01*
X136823926Y-92990797D01*
X136802691Y-92993947D01*
X136781250Y-92995000D01*
X136268750Y-92995000D01*
X136247309Y-92993947D01*
X136226074Y-92990797D01*
X136205250Y-92985581D01*
X136185038Y-92978349D01*
X136165632Y-92969170D01*
X136147219Y-92958134D01*
X136129976Y-92945346D01*
X136114070Y-92930930D01*
X136099654Y-92915024D01*
X136086866Y-92897781D01*
X136075830Y-92879368D01*
X136066651Y-92859962D01*
X136059419Y-92839750D01*
X136054203Y-92818926D01*
X136051053Y-92797691D01*
X136050000Y-92776250D01*
X136050000Y-92338750D01*
X136051053Y-92317309D01*
X136054203Y-92296074D01*
X136059419Y-92275250D01*
X136066651Y-92255038D01*
X136075830Y-92235632D01*
X136086866Y-92217219D01*
X136099654Y-92199976D01*
X136114070Y-92184070D01*
X136129976Y-92169654D01*
X136147219Y-92156866D01*
X136165632Y-92145830D01*
X136185038Y-92136651D01*
X136205250Y-92129419D01*
X136226074Y-92124203D01*
X136247309Y-92121053D01*
X136268750Y-92120000D01*
X136781250Y-92120000D01*
X136802691Y-92121053D01*
X136802691Y-92121053D01*
G37*
D11*
X136525000Y-92557500D03*
D12*
X128524000Y-91679000D03*
X128524000Y-92329000D03*
X128524000Y-92979000D03*
X128524000Y-93629000D03*
X128524000Y-94279000D03*
X128524000Y-94929000D03*
X128524000Y-95579000D03*
X128524000Y-96229000D03*
X128524000Y-96879000D03*
X128524000Y-97529000D03*
X134424000Y-97529000D03*
X134424000Y-96879000D03*
X134424000Y-96229000D03*
X134424000Y-95579000D03*
X134424000Y-94929000D03*
X134424000Y-94279000D03*
X134424000Y-93629000D03*
X134424000Y-92979000D03*
X134424000Y-92329000D03*
X134424000Y-91679000D03*
D10*
G36*
X128815191Y-98586053D02*
X128836426Y-98589203D01*
X128857250Y-98594419D01*
X128877462Y-98601651D01*
X128896868Y-98610830D01*
X128915281Y-98621866D01*
X128932524Y-98634654D01*
X128948430Y-98649070D01*
X128962846Y-98664976D01*
X128975634Y-98682219D01*
X128986670Y-98700632D01*
X128995849Y-98720038D01*
X129003081Y-98740250D01*
X129008297Y-98761074D01*
X129011447Y-98782309D01*
X129012500Y-98803750D01*
X129012500Y-99316250D01*
X129011447Y-99337691D01*
X129008297Y-99358926D01*
X129003081Y-99379750D01*
X128995849Y-99399962D01*
X128986670Y-99419368D01*
X128975634Y-99437781D01*
X128962846Y-99455024D01*
X128948430Y-99470930D01*
X128932524Y-99485346D01*
X128915281Y-99498134D01*
X128896868Y-99509170D01*
X128877462Y-99518349D01*
X128857250Y-99525581D01*
X128836426Y-99530797D01*
X128815191Y-99533947D01*
X128793750Y-99535000D01*
X128356250Y-99535000D01*
X128334809Y-99533947D01*
X128313574Y-99530797D01*
X128292750Y-99525581D01*
X128272538Y-99518349D01*
X128253132Y-99509170D01*
X128234719Y-99498134D01*
X128217476Y-99485346D01*
X128201570Y-99470930D01*
X128187154Y-99455024D01*
X128174366Y-99437781D01*
X128163330Y-99419368D01*
X128154151Y-99399962D01*
X128146919Y-99379750D01*
X128141703Y-99358926D01*
X128138553Y-99337691D01*
X128137500Y-99316250D01*
X128137500Y-98803750D01*
X128138553Y-98782309D01*
X128141703Y-98761074D01*
X128146919Y-98740250D01*
X128154151Y-98720038D01*
X128163330Y-98700632D01*
X128174366Y-98682219D01*
X128187154Y-98664976D01*
X128201570Y-98649070D01*
X128217476Y-98634654D01*
X128234719Y-98621866D01*
X128253132Y-98610830D01*
X128272538Y-98601651D01*
X128292750Y-98594419D01*
X128313574Y-98589203D01*
X128334809Y-98586053D01*
X128356250Y-98585000D01*
X128793750Y-98585000D01*
X128815191Y-98586053D01*
X128815191Y-98586053D01*
G37*
D11*
X128575000Y-99060000D03*
D10*
G36*
X127240191Y-98586053D02*
X127261426Y-98589203D01*
X127282250Y-98594419D01*
X127302462Y-98601651D01*
X127321868Y-98610830D01*
X127340281Y-98621866D01*
X127357524Y-98634654D01*
X127373430Y-98649070D01*
X127387846Y-98664976D01*
X127400634Y-98682219D01*
X127411670Y-98700632D01*
X127420849Y-98720038D01*
X127428081Y-98740250D01*
X127433297Y-98761074D01*
X127436447Y-98782309D01*
X127437500Y-98803750D01*
X127437500Y-99316250D01*
X127436447Y-99337691D01*
X127433297Y-99358926D01*
X127428081Y-99379750D01*
X127420849Y-99399962D01*
X127411670Y-99419368D01*
X127400634Y-99437781D01*
X127387846Y-99455024D01*
X127373430Y-99470930D01*
X127357524Y-99485346D01*
X127340281Y-99498134D01*
X127321868Y-99509170D01*
X127302462Y-99518349D01*
X127282250Y-99525581D01*
X127261426Y-99530797D01*
X127240191Y-99533947D01*
X127218750Y-99535000D01*
X126781250Y-99535000D01*
X126759809Y-99533947D01*
X126738574Y-99530797D01*
X126717750Y-99525581D01*
X126697538Y-99518349D01*
X126678132Y-99509170D01*
X126659719Y-99498134D01*
X126642476Y-99485346D01*
X126626570Y-99470930D01*
X126612154Y-99455024D01*
X126599366Y-99437781D01*
X126588330Y-99419368D01*
X126579151Y-99399962D01*
X126571919Y-99379750D01*
X126566703Y-99358926D01*
X126563553Y-99337691D01*
X126562500Y-99316250D01*
X126562500Y-98803750D01*
X126563553Y-98782309D01*
X126566703Y-98761074D01*
X126571919Y-98740250D01*
X126579151Y-98720038D01*
X126588330Y-98700632D01*
X126599366Y-98682219D01*
X126612154Y-98664976D01*
X126626570Y-98649070D01*
X126642476Y-98634654D01*
X126659719Y-98621866D01*
X126678132Y-98610830D01*
X126697538Y-98601651D01*
X126717750Y-98594419D01*
X126738574Y-98589203D01*
X126759809Y-98586053D01*
X126781250Y-98585000D01*
X127218750Y-98585000D01*
X127240191Y-98586053D01*
X127240191Y-98586053D01*
G37*
D11*
X127000000Y-99060000D03*
M02*
