%TF.GenerationSoftware,KiCad,Pcbnew,5.0.2+dfsg1-1*%
%TF.CreationDate,2021-12-28T09:45:32+01:00*%
%TF.ProjectId,GbSwitchFp,47625377-6974-4636-9846-702e6b696361,rev?*%
%TF.SameCoordinates,Original*%
%TF.FileFunction,Copper,L2,Inr*%
%TF.FilePolarity,Positive*%
%FSLAX46Y46*%
G04 Gerber Fmt 4.6, Leading zero omitted, Abs format (unit mm)*
G04 Created by KiCad (PCBNEW 5.0.2+dfsg1-1) date Tue 28 Dec 2021 09:45:32 AM CET*
%MOMM*%
%LPD*%
G01*
G04 APERTURE LIST*
%ADD10C,1.700000*%
%ADD11O,1.700000X1.700000*%
%ADD12R,1.700000X1.700000*%
%ADD13C,2.600000*%
%ADD14C,0.800000*%
%ADD15C,0.250000*%
%ADD16C,0.254000*%
G04 APERTURE END LIST*
D10*
X118872000Y-139446000D03*
X118872000Y-136906000D03*
X118872000Y-134366000D03*
X118872000Y-131826000D03*
X118872000Y-129286000D03*
X118872000Y-126746000D03*
X118872000Y-124206000D03*
X118872000Y-121666000D03*
X118872000Y-119126000D03*
X118872000Y-116586000D03*
X118872000Y-114046000D03*
X118872000Y-111506000D03*
X118872000Y-108966000D03*
X118872000Y-106426000D03*
X118872000Y-103886000D03*
X118872000Y-101346000D03*
X118872000Y-98806000D03*
X118872000Y-96266000D03*
X118872000Y-93726000D03*
X118872000Y-91186000D03*
X118872000Y-88646000D03*
X118872000Y-86106000D03*
X139192000Y-86106000D03*
X139192000Y-88646000D03*
X139192000Y-91186000D03*
X139192000Y-93726000D03*
X139192000Y-96266000D03*
X139192000Y-98806000D03*
X139192000Y-101346000D03*
X139192000Y-103886000D03*
X139192000Y-106426000D03*
X139192000Y-108966000D03*
X139192000Y-111506000D03*
X139192000Y-114046000D03*
X139192000Y-116586000D03*
X139192000Y-119126000D03*
X139192000Y-121666000D03*
X139192000Y-124206000D03*
X139192000Y-126746000D03*
X139192000Y-129286000D03*
X139192000Y-131826000D03*
X139192000Y-134366000D03*
X139192000Y-136906000D03*
X139192000Y-139446000D03*
D11*
X109982000Y-80137000D03*
X109982000Y-77597000D03*
X109982000Y-75057000D03*
X109982000Y-72517000D03*
X109982000Y-69977000D03*
D12*
X109982000Y-67437000D03*
D11*
X109982000Y-88138000D03*
X109982000Y-90678000D03*
X109982000Y-93218000D03*
X109982000Y-95758000D03*
X109982000Y-98298000D03*
X109982000Y-100838000D03*
D12*
X109982000Y-103378000D03*
D13*
X148336000Y-129031000D03*
X148336000Y-125031000D03*
X148336000Y-121031000D03*
X148336000Y-114531000D03*
X148336000Y-110531000D03*
X148336000Y-106531000D03*
X148336000Y-102531000D03*
D14*
X126522660Y-93527340D03*
X127000000Y-100502340D03*
X138510000Y-75540000D03*
X130510000Y-75540000D03*
X127510000Y-75540000D03*
X124510000Y-75540000D03*
X133510000Y-75540000D03*
X135510000Y-75540000D03*
X135510000Y-98540000D03*
X134510000Y-109540000D03*
X124510000Y-132540000D03*
X128510000Y-131540000D03*
X134510000Y-124540000D03*
X121997340Y-64814990D03*
X122522660Y-75552660D03*
X117522660Y-77552660D03*
X127447823Y-90452504D03*
X132784990Y-121552660D03*
X124000000Y-107000000D03*
X124500000Y-122000000D03*
X134620000Y-117475000D03*
X136525000Y-95885000D03*
X133350000Y-106045000D03*
X123825000Y-117475000D03*
X127000000Y-131445000D03*
X135255000Y-104140000D03*
X127635000Y-104140000D03*
X137229153Y-90874153D03*
X130510000Y-113540000D03*
X130810000Y-115540000D03*
X133510000Y-129540000D03*
X134620000Y-123190000D03*
X126593528Y-115632793D03*
X127510000Y-116540000D03*
X128563793Y-117715020D03*
X130510000Y-96540000D03*
X130510000Y-95540000D03*
X131547486Y-95479164D03*
X132510000Y-94540000D03*
X132510000Y-84540000D03*
X121920000Y-66040000D03*
X137510000Y-84540000D03*
X136510000Y-84540000D03*
X134510000Y-84540000D03*
X141510000Y-119540000D03*
X123510000Y-126540000D03*
X124033913Y-108039958D03*
X116000000Y-87000000D03*
X138714849Y-64846529D03*
X133000000Y-66000000D03*
X126512660Y-68012660D03*
X114500000Y-77500000D03*
X126500000Y-67000000D03*
X135510000Y-65540000D03*
X128510000Y-73540000D03*
X132470663Y-72264999D03*
X129170980Y-65698142D03*
X120902362Y-69622958D03*
X130510000Y-64540000D03*
X123500000Y-68500000D03*
X124125106Y-65309495D03*
X128000000Y-69000000D03*
X125029905Y-65735361D03*
D15*
X125510000Y-94540000D02*
X126510000Y-94540000D01*
X123784000Y-96266000D02*
X125510000Y-94540000D01*
X118872000Y-96266000D02*
X123784000Y-96266000D01*
X126522660Y-94093025D02*
X126522660Y-93527340D01*
X126522660Y-94527340D02*
X126522660Y-94093025D01*
X126510000Y-94540000D02*
X126522660Y-94527340D01*
X126510000Y-94540000D02*
X126510000Y-97540000D01*
X126510000Y-97540000D02*
X129072341Y-100102341D01*
X143510000Y-107357000D02*
X148336000Y-102531000D01*
X143510000Y-107357000D02*
X143265999Y-107601001D01*
X143510000Y-121627002D02*
X143510000Y-107357000D01*
X136510000Y-127688998D02*
X136510000Y-129540000D01*
X136510000Y-129540000D02*
X135510000Y-130540000D01*
X128399999Y-103600001D02*
X128000000Y-104000000D01*
X136525000Y-105410000D02*
X135255000Y-104140000D01*
X138627999Y-107601001D02*
X136525000Y-105498002D01*
X136525000Y-105498002D02*
X136525000Y-105410000D01*
X143265999Y-107601001D02*
X138627999Y-107601001D01*
X137244000Y-98806000D02*
X134510000Y-101540000D01*
X139192000Y-98806000D02*
X137244000Y-98806000D01*
X128510000Y-111540000D02*
X130510000Y-113540000D01*
X130810000Y-117475000D02*
X130810000Y-115540000D01*
X133510000Y-129540000D02*
X133510000Y-120175000D01*
X133510000Y-120175000D02*
X130810000Y-117475000D01*
X113510000Y-70540000D02*
X113510000Y-97310000D01*
X113510000Y-70540000D02*
X118327744Y-65722256D01*
X118327744Y-65722256D02*
X122687025Y-65722256D01*
X122687025Y-65722256D02*
X123087024Y-65322257D01*
D16*
G36*
X117613078Y-92884815D02*
X117387000Y-93430615D01*
X117387000Y-94021385D01*
X117613078Y-94567185D01*
X118030815Y-94984922D01*
X118077247Y-95004155D01*
X118007647Y-95222042D01*
X118872000Y-96086395D01*
X119736353Y-95222042D01*
X119666753Y-95004155D01*
X119713185Y-94984922D01*
X120130922Y-94567185D01*
X120357000Y-94021385D01*
X120357000Y-93430615D01*
X120130922Y-92884815D01*
X120083107Y-92837000D01*
X130048000Y-92837000D01*
X130048000Y-94611091D01*
X129923720Y-94662569D01*
X129632569Y-94953720D01*
X129475000Y-95334126D01*
X129475000Y-95745874D01*
X129596831Y-96040000D01*
X129475000Y-96334126D01*
X129475000Y-96745874D01*
X129632569Y-97126280D01*
X129923720Y-97417431D01*
X130048000Y-97468909D01*
X130048000Y-99649020D01*
X126976658Y-103334631D01*
X126844638Y-103466651D01*
X124415452Y-105410000D01*
X123825000Y-105410000D01*
X123624195Y-105442586D01*
X123408947Y-105565287D01*
X123257039Y-105761019D01*
X121987039Y-108301019D01*
X121920000Y-108585000D01*
X121920000Y-127508000D01*
X120163722Y-127508000D01*
X120357000Y-127041385D01*
X120357000Y-126450615D01*
X120130922Y-125904815D01*
X119713185Y-125487078D01*
X119686440Y-125476000D01*
X119713185Y-125464922D01*
X120130922Y-125047185D01*
X120357000Y-124501385D01*
X120357000Y-123910615D01*
X120130922Y-123364815D01*
X119713185Y-122947078D01*
X119686440Y-122936000D01*
X119713185Y-122924922D01*
X120130922Y-122507185D01*
X120357000Y-121961385D01*
X120357000Y-121370615D01*
X120130922Y-120824815D01*
X119713185Y-120407078D01*
X119686440Y-120396000D01*
X119713185Y-120384922D01*
X120130922Y-119967185D01*
X120357000Y-119421385D01*
X120357000Y-118830615D01*
X120130922Y-118284815D01*
X119713185Y-117867078D01*
X119686440Y-117856000D01*
X119713185Y-117844922D01*
X120130922Y-117427185D01*
X120357000Y-116881385D01*
X120357000Y-116290615D01*
X120130922Y-115744815D01*
X119713185Y-115327078D01*
X119686440Y-115316000D01*
X119713185Y-115304922D01*
X120130922Y-114887185D01*
X120357000Y-114341385D01*
X120357000Y-113750615D01*
X120130922Y-113204815D01*
X119713185Y-112787078D01*
X119686440Y-112776000D01*
X119713185Y-112764922D01*
X120130922Y-112347185D01*
X120357000Y-111801385D01*
X120357000Y-111210615D01*
X120130922Y-110664815D01*
X119713185Y-110247078D01*
X119686440Y-110236000D01*
X119713185Y-110224922D01*
X120130922Y-109807185D01*
X120357000Y-109261385D01*
X120357000Y-108670615D01*
X120130922Y-108124815D01*
X119713185Y-107707078D01*
X119686440Y-107696000D01*
X119713185Y-107684922D01*
X120130922Y-107267185D01*
X120357000Y-106721385D01*
X120357000Y-106130615D01*
X120130922Y-105584815D01*
X119713185Y-105167078D01*
X119686440Y-105156000D01*
X119713185Y-105144922D01*
X120130922Y-104727185D01*
X120357000Y-104181385D01*
X120357000Y-103590615D01*
X120130922Y-103044815D01*
X119713185Y-102627078D01*
X119686440Y-102616000D01*
X119713185Y-102604922D01*
X120130922Y-102187185D01*
X120357000Y-101641385D01*
X120357000Y-101050615D01*
X120130922Y-100504815D01*
X119713185Y-100087078D01*
X119686440Y-100076000D01*
X119713185Y-100064922D01*
X120130922Y-99647185D01*
X120357000Y-99101385D01*
X120357000Y-98510615D01*
X120130922Y-97964815D01*
X119713185Y-97547078D01*
X119666753Y-97527845D01*
X119736353Y-97309958D01*
X118872000Y-96445605D01*
X118007647Y-97309958D01*
X118077247Y-97527845D01*
X118030815Y-97547078D01*
X117613078Y-97964815D01*
X117387000Y-98510615D01*
X117387000Y-99101385D01*
X117613078Y-99647185D01*
X118030815Y-100064922D01*
X118057560Y-100076000D01*
X118030815Y-100087078D01*
X117613078Y-100504815D01*
X117387000Y-101050615D01*
X117387000Y-101641385D01*
X117613078Y-102187185D01*
X118030815Y-102604922D01*
X118057560Y-102616000D01*
X118030815Y-102627078D01*
X117613078Y-103044815D01*
X117387000Y-103590615D01*
X117387000Y-104181385D01*
X117613078Y-104727185D01*
X118030815Y-105144922D01*
X118057560Y-105156000D01*
X118030815Y-105167078D01*
X117613078Y-105584815D01*
X117387000Y-106130615D01*
X117387000Y-106721385D01*
X117613078Y-107267185D01*
X118030815Y-107684922D01*
X118057560Y-107696000D01*
X118030815Y-107707078D01*
X117613078Y-108124815D01*
X117387000Y-108670615D01*
X117387000Y-109261385D01*
X117613078Y-109807185D01*
X118030815Y-110224922D01*
X118057560Y-110236000D01*
X118030815Y-110247078D01*
X117613078Y-110664815D01*
X117387000Y-111210615D01*
X117387000Y-111801385D01*
X117613078Y-112347185D01*
X118030815Y-112764922D01*
X118057560Y-112776000D01*
X118030815Y-112787078D01*
X117613078Y-113204815D01*
X117387000Y-113750615D01*
X117387000Y-114341385D01*
X117613078Y-114887185D01*
X118030815Y-115304922D01*
X118057560Y-115316000D01*
X118030815Y-115327078D01*
X117613078Y-115744815D01*
X117387000Y-116290615D01*
X117387000Y-116881385D01*
X117613078Y-117427185D01*
X118030815Y-117844922D01*
X118057560Y-117856000D01*
X118030815Y-117867078D01*
X117613078Y-118284815D01*
X117387000Y-118830615D01*
X117387000Y-119421385D01*
X117613078Y-119967185D01*
X118030815Y-120384922D01*
X118057560Y-120396000D01*
X118030815Y-120407078D01*
X117613078Y-120824815D01*
X117387000Y-121370615D01*
X117387000Y-121961385D01*
X117613078Y-122507185D01*
X118030815Y-122924922D01*
X118057560Y-122936000D01*
X118030815Y-122947078D01*
X117613078Y-123364815D01*
X117387000Y-123910615D01*
X117387000Y-124501385D01*
X117613078Y-125047185D01*
X118030815Y-125464922D01*
X118057560Y-125476000D01*
X118030815Y-125487078D01*
X117613078Y-125904815D01*
X117387000Y-126450615D01*
X117387000Y-127041385D01*
X117580278Y-127508000D01*
X116967000Y-127508000D01*
X116967000Y-96037279D01*
X117375282Y-96037279D01*
X117401685Y-96627458D01*
X117576741Y-97050080D01*
X117828042Y-97130353D01*
X118692395Y-96266000D01*
X119051605Y-96266000D01*
X119915958Y-97130353D01*
X120167259Y-97050080D01*
X120368718Y-96494721D01*
X120342315Y-95904542D01*
X120167259Y-95481920D01*
X119915958Y-95401647D01*
X119051605Y-96266000D01*
X118692395Y-96266000D01*
X117828042Y-95401647D01*
X117576741Y-95481920D01*
X117375282Y-96037279D01*
X116967000Y-96037279D01*
X116967000Y-92837000D01*
X117660893Y-92837000D01*
X117613078Y-92884815D01*
X117613078Y-92884815D01*
G37*
X117613078Y-92884815D02*
X117387000Y-93430615D01*
X117387000Y-94021385D01*
X117613078Y-94567185D01*
X118030815Y-94984922D01*
X118077247Y-95004155D01*
X118007647Y-95222042D01*
X118872000Y-96086395D01*
X119736353Y-95222042D01*
X119666753Y-95004155D01*
X119713185Y-94984922D01*
X120130922Y-94567185D01*
X120357000Y-94021385D01*
X120357000Y-93430615D01*
X120130922Y-92884815D01*
X120083107Y-92837000D01*
X130048000Y-92837000D01*
X130048000Y-94611091D01*
X129923720Y-94662569D01*
X129632569Y-94953720D01*
X129475000Y-95334126D01*
X129475000Y-95745874D01*
X129596831Y-96040000D01*
X129475000Y-96334126D01*
X129475000Y-96745874D01*
X129632569Y-97126280D01*
X129923720Y-97417431D01*
X130048000Y-97468909D01*
X130048000Y-99649020D01*
X126976658Y-103334631D01*
X126844638Y-103466651D01*
X124415452Y-105410000D01*
X123825000Y-105410000D01*
X123624195Y-105442586D01*
X123408947Y-105565287D01*
X123257039Y-105761019D01*
X121987039Y-108301019D01*
X121920000Y-108585000D01*
X121920000Y-127508000D01*
X120163722Y-127508000D01*
X120357000Y-127041385D01*
X120357000Y-126450615D01*
X120130922Y-125904815D01*
X119713185Y-125487078D01*
X119686440Y-125476000D01*
X119713185Y-125464922D01*
X120130922Y-125047185D01*
X120357000Y-124501385D01*
X120357000Y-123910615D01*
X120130922Y-123364815D01*
X119713185Y-122947078D01*
X119686440Y-122936000D01*
X119713185Y-122924922D01*
X120130922Y-122507185D01*
X120357000Y-121961385D01*
X120357000Y-121370615D01*
X120130922Y-120824815D01*
X119713185Y-120407078D01*
X119686440Y-120396000D01*
X119713185Y-120384922D01*
X120130922Y-119967185D01*
X120357000Y-119421385D01*
X120357000Y-118830615D01*
X120130922Y-118284815D01*
X119713185Y-117867078D01*
X119686440Y-117856000D01*
X119713185Y-117844922D01*
X120130922Y-117427185D01*
X120357000Y-116881385D01*
X120357000Y-116290615D01*
X120130922Y-115744815D01*
X119713185Y-115327078D01*
X119686440Y-115316000D01*
X119713185Y-115304922D01*
X120130922Y-114887185D01*
X120357000Y-114341385D01*
X120357000Y-113750615D01*
X120130922Y-113204815D01*
X119713185Y-112787078D01*
X119686440Y-112776000D01*
X119713185Y-112764922D01*
X120130922Y-112347185D01*
X120357000Y-111801385D01*
X120357000Y-111210615D01*
X120130922Y-110664815D01*
X119713185Y-110247078D01*
X119686440Y-110236000D01*
X119713185Y-110224922D01*
X120130922Y-109807185D01*
X120357000Y-109261385D01*
X120357000Y-108670615D01*
X120130922Y-108124815D01*
X119713185Y-107707078D01*
X119686440Y-107696000D01*
X119713185Y-107684922D01*
X120130922Y-107267185D01*
X120357000Y-106721385D01*
X120357000Y-106130615D01*
X120130922Y-105584815D01*
X119713185Y-105167078D01*
X119686440Y-105156000D01*
X119713185Y-105144922D01*
X120130922Y-104727185D01*
X120357000Y-104181385D01*
X120357000Y-103590615D01*
X120130922Y-103044815D01*
X119713185Y-102627078D01*
X119686440Y-102616000D01*
X119713185Y-102604922D01*
X120130922Y-102187185D01*
X120357000Y-101641385D01*
X120357000Y-101050615D01*
X120130922Y-100504815D01*
X119713185Y-100087078D01*
X119686440Y-100076000D01*
X119713185Y-100064922D01*
X120130922Y-99647185D01*
X120357000Y-99101385D01*
X120357000Y-98510615D01*
X120130922Y-97964815D01*
X119713185Y-97547078D01*
X119666753Y-97527845D01*
X119736353Y-97309958D01*
X118872000Y-96445605D01*
X118007647Y-97309958D01*
X118077247Y-97527845D01*
X118030815Y-97547078D01*
X117613078Y-97964815D01*
X117387000Y-98510615D01*
X117387000Y-99101385D01*
X117613078Y-99647185D01*
X118030815Y-100064922D01*
X118057560Y-100076000D01*
X118030815Y-100087078D01*
X117613078Y-100504815D01*
X117387000Y-101050615D01*
X117387000Y-101641385D01*
X117613078Y-102187185D01*
X118030815Y-102604922D01*
X118057560Y-102616000D01*
X118030815Y-102627078D01*
X117613078Y-103044815D01*
X117387000Y-103590615D01*
X117387000Y-104181385D01*
X117613078Y-104727185D01*
X118030815Y-105144922D01*
X118057560Y-105156000D01*
X118030815Y-105167078D01*
X117613078Y-105584815D01*
X117387000Y-106130615D01*
X117387000Y-106721385D01*
X117613078Y-107267185D01*
X118030815Y-107684922D01*
X118057560Y-107696000D01*
X118030815Y-107707078D01*
X117613078Y-108124815D01*
X117387000Y-108670615D01*
X117387000Y-109261385D01*
X117613078Y-109807185D01*
X118030815Y-110224922D01*
X118057560Y-110236000D01*
X118030815Y-110247078D01*
X117613078Y-110664815D01*
X117387000Y-111210615D01*
X117387000Y-111801385D01*
X117613078Y-112347185D01*
X118030815Y-112764922D01*
X118057560Y-112776000D01*
X118030815Y-112787078D01*
X117613078Y-113204815D01*
X117387000Y-113750615D01*
X117387000Y-114341385D01*
X117613078Y-114887185D01*
X118030815Y-115304922D01*
X118057560Y-115316000D01*
X118030815Y-115327078D01*
X117613078Y-115744815D01*
X117387000Y-116290615D01*
X117387000Y-116881385D01*
X117613078Y-117427185D01*
X118030815Y-117844922D01*
X118057560Y-117856000D01*
X118030815Y-117867078D01*
X117613078Y-118284815D01*
X117387000Y-118830615D01*
X117387000Y-119421385D01*
X117613078Y-119967185D01*
X118030815Y-120384922D01*
X118057560Y-120396000D01*
X118030815Y-120407078D01*
X117613078Y-120824815D01*
X117387000Y-121370615D01*
X117387000Y-121961385D01*
X117613078Y-122507185D01*
X118030815Y-122924922D01*
X118057560Y-122936000D01*
X118030815Y-122947078D01*
X117613078Y-123364815D01*
X117387000Y-123910615D01*
X117387000Y-124501385D01*
X117613078Y-125047185D01*
X118030815Y-125464922D01*
X118057560Y-125476000D01*
X118030815Y-125487078D01*
X117613078Y-125904815D01*
X117387000Y-126450615D01*
X117387000Y-127041385D01*
X117580278Y-127508000D01*
X116967000Y-127508000D01*
X116967000Y-96037279D01*
X117375282Y-96037279D01*
X117401685Y-96627458D01*
X117576741Y-97050080D01*
X117828042Y-97130353D01*
X118692395Y-96266000D01*
X119051605Y-96266000D01*
X119915958Y-97130353D01*
X120167259Y-97050080D01*
X120368718Y-96494721D01*
X120342315Y-95904542D01*
X120167259Y-95481920D01*
X119915958Y-95401647D01*
X119051605Y-96266000D01*
X118692395Y-96266000D01*
X117828042Y-95401647D01*
X117576741Y-95481920D01*
X117375282Y-96037279D01*
X116967000Y-96037279D01*
X116967000Y-92837000D01*
X117660893Y-92837000D01*
X117613078Y-92884815D01*
G36*
X135938720Y-96762431D02*
X136319126Y-96920000D01*
X136730874Y-96920000D01*
X137111280Y-96762431D01*
X137226711Y-96647000D01*
X137742463Y-96647000D01*
X137933078Y-97107185D01*
X138350815Y-97524922D01*
X138397247Y-97544155D01*
X138327647Y-97762042D01*
X139192000Y-98626395D01*
X140056353Y-97762042D01*
X139986753Y-97544155D01*
X140033185Y-97524922D01*
X140450922Y-97107185D01*
X140641537Y-96647000D01*
X141478000Y-96647000D01*
X141478000Y-100203000D01*
X140149107Y-100203000D01*
X140033185Y-100087078D01*
X139986753Y-100067845D01*
X140056353Y-99849958D01*
X139192000Y-98985605D01*
X138327647Y-99849958D01*
X138397247Y-100067845D01*
X138350815Y-100087078D01*
X138234893Y-100203000D01*
X137160000Y-100203000D01*
X137111399Y-100212667D01*
X137062436Y-100248697D01*
X133887436Y-104058697D01*
X133863749Y-104102222D01*
X133858000Y-104140000D01*
X133858000Y-105135144D01*
X133555874Y-105010000D01*
X133144126Y-105010000D01*
X132763720Y-105167569D01*
X132472569Y-105458720D01*
X132315000Y-105839126D01*
X132315000Y-106250874D01*
X132472569Y-106631280D01*
X132763720Y-106922431D01*
X133144126Y-107080000D01*
X133555874Y-107080000D01*
X133858000Y-106954856D01*
X133858000Y-108728289D01*
X133632569Y-108953720D01*
X133475000Y-109334126D01*
X133475000Y-109745874D01*
X133632569Y-110126280D01*
X133858000Y-110351711D01*
X133858000Y-116773289D01*
X133742569Y-116888720D01*
X133585000Y-117269126D01*
X133585000Y-117680874D01*
X133742569Y-118061280D01*
X133858000Y-118176711D01*
X133858000Y-122488289D01*
X133742569Y-122603720D01*
X133585000Y-122984126D01*
X133585000Y-123395874D01*
X133742569Y-123776280D01*
X133776289Y-123810000D01*
X133632569Y-123953720D01*
X133475000Y-124334126D01*
X133475000Y-124745874D01*
X133632569Y-125126280D01*
X133858000Y-125351711D01*
X133858000Y-130048000D01*
X122682000Y-130048000D01*
X122682000Y-127175711D01*
X122923720Y-127417431D01*
X123304126Y-127575000D01*
X123715874Y-127575000D01*
X124096280Y-127417431D01*
X124387431Y-127126280D01*
X124545000Y-126745874D01*
X124545000Y-126334126D01*
X124387431Y-125953720D01*
X124096280Y-125662569D01*
X123715874Y-125505000D01*
X123304126Y-125505000D01*
X122923720Y-125662569D01*
X122682000Y-125904289D01*
X122682000Y-121794126D01*
X123465000Y-121794126D01*
X123465000Y-122205874D01*
X123622569Y-122586280D01*
X123913720Y-122877431D01*
X124294126Y-123035000D01*
X124705874Y-123035000D01*
X125086280Y-122877431D01*
X125377431Y-122586280D01*
X125535000Y-122205874D01*
X125535000Y-121794126D01*
X125377431Y-121413720D01*
X125310497Y-121346786D01*
X131749990Y-121346786D01*
X131749990Y-121758534D01*
X131907559Y-122138940D01*
X132198710Y-122430091D01*
X132579116Y-122587660D01*
X132990864Y-122587660D01*
X133371270Y-122430091D01*
X133662421Y-122138940D01*
X133819990Y-121758534D01*
X133819990Y-121346786D01*
X133662421Y-120966380D01*
X133371270Y-120675229D01*
X132990864Y-120517660D01*
X132579116Y-120517660D01*
X132198710Y-120675229D01*
X131907559Y-120966380D01*
X131749990Y-121346786D01*
X125310497Y-121346786D01*
X125086280Y-121122569D01*
X124705874Y-120965000D01*
X124294126Y-120965000D01*
X123913720Y-121122569D01*
X123622569Y-121413720D01*
X123465000Y-121794126D01*
X122682000Y-121794126D01*
X122682000Y-117269126D01*
X122790000Y-117269126D01*
X122790000Y-117680874D01*
X122947569Y-118061280D01*
X123238720Y-118352431D01*
X123619126Y-118510000D01*
X124030874Y-118510000D01*
X124411280Y-118352431D01*
X124702431Y-118061280D01*
X124860000Y-117680874D01*
X124860000Y-117269126D01*
X124702431Y-116888720D01*
X124411280Y-116597569D01*
X124030874Y-116440000D01*
X123619126Y-116440000D01*
X123238720Y-116597569D01*
X122947569Y-116888720D01*
X122790000Y-117269126D01*
X122682000Y-117269126D01*
X122682000Y-115426919D01*
X125558528Y-115426919D01*
X125558528Y-115838667D01*
X125716097Y-116219073D01*
X126007248Y-116510224D01*
X126387654Y-116667793D01*
X126475000Y-116667793D01*
X126475000Y-116745874D01*
X126632569Y-117126280D01*
X126923720Y-117417431D01*
X127304126Y-117575000D01*
X127528793Y-117575000D01*
X127528793Y-117920894D01*
X127686362Y-118301300D01*
X127977513Y-118592451D01*
X128357919Y-118750020D01*
X128769667Y-118750020D01*
X129150073Y-118592451D01*
X129441224Y-118301300D01*
X129598793Y-117920894D01*
X129598793Y-117509146D01*
X129441224Y-117128740D01*
X129150073Y-116837589D01*
X128769667Y-116680020D01*
X128545000Y-116680020D01*
X128545000Y-116334126D01*
X128387431Y-115953720D01*
X128096280Y-115662569D01*
X127715874Y-115505000D01*
X127628528Y-115505000D01*
X127628528Y-115426919D01*
X127470959Y-115046513D01*
X127179808Y-114755362D01*
X126799402Y-114597793D01*
X126387654Y-114597793D01*
X126007248Y-114755362D01*
X125716097Y-115046513D01*
X125558528Y-115426919D01*
X122682000Y-115426919D01*
X122682000Y-108614980D01*
X122998913Y-107981154D01*
X122998913Y-108245832D01*
X123156482Y-108626238D01*
X123447633Y-108917389D01*
X123828039Y-109074958D01*
X124239787Y-109074958D01*
X124620193Y-108917389D01*
X124911344Y-108626238D01*
X125068913Y-108245832D01*
X125068913Y-107834084D01*
X124921850Y-107479042D01*
X125035000Y-107205874D01*
X125035000Y-106794126D01*
X124877431Y-106413720D01*
X124635711Y-106172000D01*
X127000000Y-106172000D01*
X127048601Y-106162333D01*
X127089803Y-106134803D01*
X128197201Y-105027405D01*
X128221280Y-105017431D01*
X128512431Y-104726280D01*
X128522405Y-104702201D01*
X134074803Y-99149803D01*
X134102333Y-99108601D01*
X134112000Y-99060000D01*
X134112000Y-98334126D01*
X134475000Y-98334126D01*
X134475000Y-98745874D01*
X134632569Y-99126280D01*
X134923720Y-99417431D01*
X135304126Y-99575000D01*
X135715874Y-99575000D01*
X136096280Y-99417431D01*
X136387431Y-99126280D01*
X136545000Y-98745874D01*
X136545000Y-98577279D01*
X137695282Y-98577279D01*
X137721685Y-99167458D01*
X137896741Y-99590080D01*
X138148042Y-99670353D01*
X139012395Y-98806000D01*
X139371605Y-98806000D01*
X140235958Y-99670353D01*
X140487259Y-99590080D01*
X140688718Y-99034721D01*
X140662315Y-98444542D01*
X140487259Y-98021920D01*
X140235958Y-97941647D01*
X139371605Y-98806000D01*
X139012395Y-98806000D01*
X138148042Y-97941647D01*
X137896741Y-98021920D01*
X137695282Y-98577279D01*
X136545000Y-98577279D01*
X136545000Y-98334126D01*
X136387431Y-97953720D01*
X136096280Y-97662569D01*
X135715874Y-97505000D01*
X135304126Y-97505000D01*
X134923720Y-97662569D01*
X134632569Y-97953720D01*
X134475000Y-98334126D01*
X134112000Y-98334126D01*
X134112000Y-96647000D01*
X135823289Y-96647000D01*
X135938720Y-96762431D01*
X135938720Y-96762431D01*
G37*
X135938720Y-96762431D02*
X136319126Y-96920000D01*
X136730874Y-96920000D01*
X137111280Y-96762431D01*
X137226711Y-96647000D01*
X137742463Y-96647000D01*
X137933078Y-97107185D01*
X138350815Y-97524922D01*
X138397247Y-97544155D01*
X138327647Y-97762042D01*
X139192000Y-98626395D01*
X140056353Y-97762042D01*
X139986753Y-97544155D01*
X140033185Y-97524922D01*
X140450922Y-97107185D01*
X140641537Y-96647000D01*
X141478000Y-96647000D01*
X141478000Y-100203000D01*
X140149107Y-100203000D01*
X140033185Y-100087078D01*
X139986753Y-100067845D01*
X140056353Y-99849958D01*
X139192000Y-98985605D01*
X138327647Y-99849958D01*
X138397247Y-100067845D01*
X138350815Y-100087078D01*
X138234893Y-100203000D01*
X137160000Y-100203000D01*
X137111399Y-100212667D01*
X137062436Y-100248697D01*
X133887436Y-104058697D01*
X133863749Y-104102222D01*
X133858000Y-104140000D01*
X133858000Y-105135144D01*
X133555874Y-105010000D01*
X133144126Y-105010000D01*
X132763720Y-105167569D01*
X132472569Y-105458720D01*
X132315000Y-105839126D01*
X132315000Y-106250874D01*
X132472569Y-106631280D01*
X132763720Y-106922431D01*
X133144126Y-107080000D01*
X133555874Y-107080000D01*
X133858000Y-106954856D01*
X133858000Y-108728289D01*
X133632569Y-108953720D01*
X133475000Y-109334126D01*
X133475000Y-109745874D01*
X133632569Y-110126280D01*
X133858000Y-110351711D01*
X133858000Y-116773289D01*
X133742569Y-116888720D01*
X133585000Y-117269126D01*
X133585000Y-117680874D01*
X133742569Y-118061280D01*
X133858000Y-118176711D01*
X133858000Y-122488289D01*
X133742569Y-122603720D01*
X133585000Y-122984126D01*
X133585000Y-123395874D01*
X133742569Y-123776280D01*
X133776289Y-123810000D01*
X133632569Y-123953720D01*
X133475000Y-124334126D01*
X133475000Y-124745874D01*
X133632569Y-125126280D01*
X133858000Y-125351711D01*
X133858000Y-130048000D01*
X122682000Y-130048000D01*
X122682000Y-127175711D01*
X122923720Y-127417431D01*
X123304126Y-127575000D01*
X123715874Y-127575000D01*
X124096280Y-127417431D01*
X124387431Y-127126280D01*
X124545000Y-126745874D01*
X124545000Y-126334126D01*
X124387431Y-125953720D01*
X124096280Y-125662569D01*
X123715874Y-125505000D01*
X123304126Y-125505000D01*
X122923720Y-125662569D01*
X122682000Y-125904289D01*
X122682000Y-121794126D01*
X123465000Y-121794126D01*
X123465000Y-122205874D01*
X123622569Y-122586280D01*
X123913720Y-122877431D01*
X124294126Y-123035000D01*
X124705874Y-123035000D01*
X125086280Y-122877431D01*
X125377431Y-122586280D01*
X125535000Y-122205874D01*
X125535000Y-121794126D01*
X125377431Y-121413720D01*
X125310497Y-121346786D01*
X131749990Y-121346786D01*
X131749990Y-121758534D01*
X131907559Y-122138940D01*
X132198710Y-122430091D01*
X132579116Y-122587660D01*
X132990864Y-122587660D01*
X133371270Y-122430091D01*
X133662421Y-122138940D01*
X133819990Y-121758534D01*
X133819990Y-121346786D01*
X133662421Y-120966380D01*
X133371270Y-120675229D01*
X132990864Y-120517660D01*
X132579116Y-120517660D01*
X132198710Y-120675229D01*
X131907559Y-120966380D01*
X131749990Y-121346786D01*
X125310497Y-121346786D01*
X125086280Y-121122569D01*
X124705874Y-120965000D01*
X124294126Y-120965000D01*
X123913720Y-121122569D01*
X123622569Y-121413720D01*
X123465000Y-121794126D01*
X122682000Y-121794126D01*
X122682000Y-117269126D01*
X122790000Y-117269126D01*
X122790000Y-117680874D01*
X122947569Y-118061280D01*
X123238720Y-118352431D01*
X123619126Y-118510000D01*
X124030874Y-118510000D01*
X124411280Y-118352431D01*
X124702431Y-118061280D01*
X124860000Y-117680874D01*
X124860000Y-117269126D01*
X124702431Y-116888720D01*
X124411280Y-116597569D01*
X124030874Y-116440000D01*
X123619126Y-116440000D01*
X123238720Y-116597569D01*
X122947569Y-116888720D01*
X122790000Y-117269126D01*
X122682000Y-117269126D01*
X122682000Y-115426919D01*
X125558528Y-115426919D01*
X125558528Y-115838667D01*
X125716097Y-116219073D01*
X126007248Y-116510224D01*
X126387654Y-116667793D01*
X126475000Y-116667793D01*
X126475000Y-116745874D01*
X126632569Y-117126280D01*
X126923720Y-117417431D01*
X127304126Y-117575000D01*
X127528793Y-117575000D01*
X127528793Y-117920894D01*
X127686362Y-118301300D01*
X127977513Y-118592451D01*
X128357919Y-118750020D01*
X128769667Y-118750020D01*
X129150073Y-118592451D01*
X129441224Y-118301300D01*
X129598793Y-117920894D01*
X129598793Y-117509146D01*
X129441224Y-117128740D01*
X129150073Y-116837589D01*
X128769667Y-116680020D01*
X128545000Y-116680020D01*
X128545000Y-116334126D01*
X128387431Y-115953720D01*
X128096280Y-115662569D01*
X127715874Y-115505000D01*
X127628528Y-115505000D01*
X127628528Y-115426919D01*
X127470959Y-115046513D01*
X127179808Y-114755362D01*
X126799402Y-114597793D01*
X126387654Y-114597793D01*
X126007248Y-114755362D01*
X125716097Y-115046513D01*
X125558528Y-115426919D01*
X122682000Y-115426919D01*
X122682000Y-108614980D01*
X122998913Y-107981154D01*
X122998913Y-108245832D01*
X123156482Y-108626238D01*
X123447633Y-108917389D01*
X123828039Y-109074958D01*
X124239787Y-109074958D01*
X124620193Y-108917389D01*
X124911344Y-108626238D01*
X125068913Y-108245832D01*
X125068913Y-107834084D01*
X124921850Y-107479042D01*
X125035000Y-107205874D01*
X125035000Y-106794126D01*
X124877431Y-106413720D01*
X124635711Y-106172000D01*
X127000000Y-106172000D01*
X127048601Y-106162333D01*
X127089803Y-106134803D01*
X128197201Y-105027405D01*
X128221280Y-105017431D01*
X128512431Y-104726280D01*
X128522405Y-104702201D01*
X134074803Y-99149803D01*
X134102333Y-99108601D01*
X134112000Y-99060000D01*
X134112000Y-98334126D01*
X134475000Y-98334126D01*
X134475000Y-98745874D01*
X134632569Y-99126280D01*
X134923720Y-99417431D01*
X135304126Y-99575000D01*
X135715874Y-99575000D01*
X136096280Y-99417431D01*
X136387431Y-99126280D01*
X136545000Y-98745874D01*
X136545000Y-98577279D01*
X137695282Y-98577279D01*
X137721685Y-99167458D01*
X137896741Y-99590080D01*
X138148042Y-99670353D01*
X139012395Y-98806000D01*
X139371605Y-98806000D01*
X140235958Y-99670353D01*
X140487259Y-99590080D01*
X140688718Y-99034721D01*
X140662315Y-98444542D01*
X140487259Y-98021920D01*
X140235958Y-97941647D01*
X139371605Y-98806000D01*
X139012395Y-98806000D01*
X138148042Y-97941647D01*
X137896741Y-98021920D01*
X137695282Y-98577279D01*
X136545000Y-98577279D01*
X136545000Y-98334126D01*
X136387431Y-97953720D01*
X136096280Y-97662569D01*
X135715874Y-97505000D01*
X135304126Y-97505000D01*
X134923720Y-97662569D01*
X134632569Y-97953720D01*
X134475000Y-98334126D01*
X134112000Y-98334126D01*
X134112000Y-96647000D01*
X135823289Y-96647000D01*
X135938720Y-96762431D01*
G36*
X120962340Y-65020864D02*
X121119909Y-65401270D01*
X121411060Y-65692421D01*
X121791466Y-65849990D01*
X122203214Y-65849990D01*
X122583620Y-65692421D01*
X122874771Y-65401270D01*
X123032340Y-65020864D01*
X123032340Y-64897000D01*
X123175691Y-64897000D01*
X123090106Y-65103621D01*
X123090106Y-65515369D01*
X123247675Y-65895775D01*
X123538826Y-66186926D01*
X123698000Y-66252858D01*
X123698000Y-67183000D01*
X118110000Y-67183000D01*
X118061399Y-67192667D01*
X118020197Y-67220197D01*
X115480197Y-69760197D01*
X115452667Y-69801399D01*
X115443000Y-69850000D01*
X115443000Y-77072018D01*
X115377431Y-76913720D01*
X115086280Y-76622569D01*
X114705874Y-76465000D01*
X114294126Y-76465000D01*
X113913720Y-76622569D01*
X113622569Y-76913720D01*
X113465000Y-77294126D01*
X113465000Y-77705874D01*
X113622569Y-78086280D01*
X113913720Y-78377431D01*
X114294126Y-78535000D01*
X114705874Y-78535000D01*
X115086280Y-78377431D01*
X115377431Y-78086280D01*
X115443000Y-77927982D01*
X115443000Y-86110441D01*
X115413720Y-86122569D01*
X115122569Y-86413720D01*
X114965000Y-86794126D01*
X114965000Y-87205874D01*
X115122569Y-87586280D01*
X115413720Y-87877431D01*
X115443000Y-87889559D01*
X115443000Y-101473000D01*
X111308286Y-101473000D01*
X111423476Y-101194890D01*
X111302155Y-100965000D01*
X110109000Y-100965000D01*
X110109000Y-100985000D01*
X109855000Y-100985000D01*
X109855000Y-100965000D01*
X109835000Y-100965000D01*
X109835000Y-100711000D01*
X109855000Y-100711000D01*
X109855000Y-100691000D01*
X110109000Y-100691000D01*
X110109000Y-100711000D01*
X111302155Y-100711000D01*
X111423476Y-100481110D01*
X111253645Y-100071076D01*
X111026654Y-99822000D01*
X112395000Y-99822000D01*
X112443601Y-99812333D01*
X112484803Y-99784803D01*
X112512333Y-99743601D01*
X112522000Y-99695000D01*
X112522000Y-64897000D01*
X120962340Y-64897000D01*
X120962340Y-65020864D01*
X120962340Y-65020864D01*
G37*
X120962340Y-65020864D02*
X121119909Y-65401270D01*
X121411060Y-65692421D01*
X121791466Y-65849990D01*
X122203214Y-65849990D01*
X122583620Y-65692421D01*
X122874771Y-65401270D01*
X123032340Y-65020864D01*
X123032340Y-64897000D01*
X123175691Y-64897000D01*
X123090106Y-65103621D01*
X123090106Y-65515369D01*
X123247675Y-65895775D01*
X123538826Y-66186926D01*
X123698000Y-66252858D01*
X123698000Y-67183000D01*
X118110000Y-67183000D01*
X118061399Y-67192667D01*
X118020197Y-67220197D01*
X115480197Y-69760197D01*
X115452667Y-69801399D01*
X115443000Y-69850000D01*
X115443000Y-77072018D01*
X115377431Y-76913720D01*
X115086280Y-76622569D01*
X114705874Y-76465000D01*
X114294126Y-76465000D01*
X113913720Y-76622569D01*
X113622569Y-76913720D01*
X113465000Y-77294126D01*
X113465000Y-77705874D01*
X113622569Y-78086280D01*
X113913720Y-78377431D01*
X114294126Y-78535000D01*
X114705874Y-78535000D01*
X115086280Y-78377431D01*
X115377431Y-78086280D01*
X115443000Y-77927982D01*
X115443000Y-86110441D01*
X115413720Y-86122569D01*
X115122569Y-86413720D01*
X114965000Y-86794126D01*
X114965000Y-87205874D01*
X115122569Y-87586280D01*
X115413720Y-87877431D01*
X115443000Y-87889559D01*
X115443000Y-101473000D01*
X111308286Y-101473000D01*
X111423476Y-101194890D01*
X111302155Y-100965000D01*
X110109000Y-100965000D01*
X110109000Y-100985000D01*
X109855000Y-100985000D01*
X109855000Y-100965000D01*
X109835000Y-100965000D01*
X109835000Y-100711000D01*
X109855000Y-100711000D01*
X109855000Y-100691000D01*
X110109000Y-100691000D01*
X110109000Y-100711000D01*
X111302155Y-100711000D01*
X111423476Y-100481110D01*
X111253645Y-100071076D01*
X111026654Y-99822000D01*
X112395000Y-99822000D01*
X112443601Y-99812333D01*
X112484803Y-99784803D01*
X112512333Y-99743601D01*
X112522000Y-99695000D01*
X112522000Y-64897000D01*
X120962340Y-64897000D01*
X120962340Y-65020864D01*
G36*
X139800001Y-63022718D02*
X139666195Y-63222972D01*
X139611091Y-63500000D01*
X139666195Y-63777028D01*
X139823119Y-64011881D01*
X140057972Y-64168805D01*
X140221913Y-64201415D01*
X140232973Y-64208805D01*
X140510000Y-64263909D01*
X140781020Y-64210000D01*
X151055000Y-64210000D01*
X151055001Y-141530000D01*
X108025000Y-141530000D01*
X108025000Y-101882909D01*
X108135987Y-102049013D01*
X108341996Y-102186664D01*
X108566524Y-102231325D01*
X108533843Y-102280235D01*
X108484560Y-102528000D01*
X108484560Y-104228000D01*
X108533843Y-104475765D01*
X108674191Y-104685809D01*
X108884235Y-104826157D01*
X109132000Y-104875440D01*
X110832000Y-104875440D01*
X111079765Y-104826157D01*
X111289809Y-104685809D01*
X111430157Y-104475765D01*
X111479440Y-104228000D01*
X111479440Y-102528000D01*
X111430157Y-102280235D01*
X111399932Y-102235000D01*
X115570000Y-102235000D01*
X115813004Y-102186664D01*
X116019013Y-102049013D01*
X116156664Y-101843004D01*
X116205000Y-101600000D01*
X116205000Y-127635000D01*
X116253336Y-127878004D01*
X116390987Y-128084013D01*
X116596996Y-128221664D01*
X116840000Y-128270000D01*
X117787893Y-128270000D01*
X117613078Y-128444815D01*
X117387000Y-128990615D01*
X117387000Y-129581385D01*
X117613078Y-130127185D01*
X118030815Y-130544922D01*
X118057560Y-130556000D01*
X118030815Y-130567078D01*
X117613078Y-130984815D01*
X117387000Y-131530615D01*
X117387000Y-132121385D01*
X117613078Y-132667185D01*
X118030815Y-133084922D01*
X118057560Y-133096000D01*
X118030815Y-133107078D01*
X117613078Y-133524815D01*
X117387000Y-134070615D01*
X117387000Y-134661385D01*
X117613078Y-135207185D01*
X118030815Y-135624922D01*
X118057560Y-135636000D01*
X118030815Y-135647078D01*
X117613078Y-136064815D01*
X117387000Y-136610615D01*
X117387000Y-137201385D01*
X117613078Y-137747185D01*
X118030815Y-138164922D01*
X118057560Y-138176000D01*
X118030815Y-138187078D01*
X117613078Y-138604815D01*
X117387000Y-139150615D01*
X117387000Y-139741385D01*
X117613078Y-140287185D01*
X118030815Y-140704922D01*
X118576615Y-140931000D01*
X119167385Y-140931000D01*
X119713185Y-140704922D01*
X120130922Y-140287185D01*
X120357000Y-139741385D01*
X120357000Y-139150615D01*
X120130922Y-138604815D01*
X119713185Y-138187078D01*
X119686440Y-138176000D01*
X119713185Y-138164922D01*
X120130922Y-137747185D01*
X120357000Y-137201385D01*
X120357000Y-136610615D01*
X120130922Y-136064815D01*
X119713185Y-135647078D01*
X119686440Y-135636000D01*
X119713185Y-135624922D01*
X120130922Y-135207185D01*
X120357000Y-134661385D01*
X120357000Y-134070615D01*
X120130922Y-133524815D01*
X119713185Y-133107078D01*
X119686440Y-133096000D01*
X119713185Y-133084922D01*
X120130922Y-132667185D01*
X120268879Y-132334126D01*
X123475000Y-132334126D01*
X123475000Y-132745874D01*
X123632569Y-133126280D01*
X123923720Y-133417431D01*
X124304126Y-133575000D01*
X124715874Y-133575000D01*
X125096280Y-133417431D01*
X125387431Y-133126280D01*
X125545000Y-132745874D01*
X125545000Y-132334126D01*
X125387431Y-131953720D01*
X125096280Y-131662569D01*
X124715874Y-131505000D01*
X124304126Y-131505000D01*
X123923720Y-131662569D01*
X123632569Y-131953720D01*
X123475000Y-132334126D01*
X120268879Y-132334126D01*
X120357000Y-132121385D01*
X120357000Y-131530615D01*
X120130922Y-130984815D01*
X119713185Y-130567078D01*
X119686440Y-130556000D01*
X119713185Y-130544922D01*
X120130922Y-130127185D01*
X120357000Y-129581385D01*
X120357000Y-128990615D01*
X120130922Y-128444815D01*
X119956107Y-128270000D01*
X121920000Y-128270000D01*
X121920000Y-130175000D01*
X121968336Y-130418004D01*
X122105987Y-130624013D01*
X122311996Y-130761664D01*
X122555000Y-130810000D01*
X127776289Y-130810000D01*
X127632569Y-130953720D01*
X127475000Y-131334126D01*
X127475000Y-131745874D01*
X127632569Y-132126280D01*
X127923720Y-132417431D01*
X128304126Y-132575000D01*
X128715874Y-132575000D01*
X129096280Y-132417431D01*
X129387431Y-132126280D01*
X129545000Y-131745874D01*
X129545000Y-131334126D01*
X129387431Y-130953720D01*
X129243711Y-130810000D01*
X133985000Y-130810000D01*
X134228004Y-130761664D01*
X134434013Y-130624013D01*
X134571664Y-130418004D01*
X134620000Y-130175000D01*
X134620000Y-125575000D01*
X134715874Y-125575000D01*
X135096280Y-125417431D01*
X135387431Y-125126280D01*
X135545000Y-124745874D01*
X135545000Y-124334126D01*
X135387431Y-123953720D01*
X135353711Y-123920000D01*
X135497431Y-123776280D01*
X135655000Y-123395874D01*
X135655000Y-122984126D01*
X135497431Y-122603720D01*
X135206280Y-122312569D01*
X134825874Y-122155000D01*
X134620000Y-122155000D01*
X134620000Y-118510000D01*
X134825874Y-118510000D01*
X135206280Y-118352431D01*
X135497431Y-118061280D01*
X135655000Y-117680874D01*
X135655000Y-117269126D01*
X135497431Y-116888720D01*
X135206280Y-116597569D01*
X134825874Y-116440000D01*
X134620000Y-116440000D01*
X134620000Y-110575000D01*
X134715874Y-110575000D01*
X135096280Y-110417431D01*
X135387431Y-110126280D01*
X135545000Y-109745874D01*
X135545000Y-109334126D01*
X135387431Y-108953720D01*
X135096280Y-108662569D01*
X134715874Y-108505000D01*
X134620000Y-108505000D01*
X134620000Y-104369902D01*
X137457419Y-100965000D01*
X137742463Y-100965000D01*
X137707000Y-101050615D01*
X137707000Y-101641385D01*
X137933078Y-102187185D01*
X138350815Y-102604922D01*
X138377560Y-102616000D01*
X138350815Y-102627078D01*
X137933078Y-103044815D01*
X137707000Y-103590615D01*
X137707000Y-104181385D01*
X137933078Y-104727185D01*
X138350815Y-105144922D01*
X138377560Y-105156000D01*
X138350815Y-105167078D01*
X137933078Y-105584815D01*
X137707000Y-106130615D01*
X137707000Y-106721385D01*
X137933078Y-107267185D01*
X138350815Y-107684922D01*
X138377560Y-107696000D01*
X138350815Y-107707078D01*
X137933078Y-108124815D01*
X137707000Y-108670615D01*
X137707000Y-109261385D01*
X137933078Y-109807185D01*
X138350815Y-110224922D01*
X138377560Y-110236000D01*
X138350815Y-110247078D01*
X137933078Y-110664815D01*
X137707000Y-111210615D01*
X137707000Y-111801385D01*
X137933078Y-112347185D01*
X138350815Y-112764922D01*
X138377560Y-112776000D01*
X138350815Y-112787078D01*
X137933078Y-113204815D01*
X137707000Y-113750615D01*
X137707000Y-114341385D01*
X137933078Y-114887185D01*
X138350815Y-115304922D01*
X138377560Y-115316000D01*
X138350815Y-115327078D01*
X137933078Y-115744815D01*
X137707000Y-116290615D01*
X137707000Y-116881385D01*
X137933078Y-117427185D01*
X138350815Y-117844922D01*
X138377560Y-117856000D01*
X138350815Y-117867078D01*
X137933078Y-118284815D01*
X137707000Y-118830615D01*
X137707000Y-119421385D01*
X137933078Y-119967185D01*
X138350815Y-120384922D01*
X138377560Y-120396000D01*
X138350815Y-120407078D01*
X137933078Y-120824815D01*
X137707000Y-121370615D01*
X137707000Y-121961385D01*
X137933078Y-122507185D01*
X138350815Y-122924922D01*
X138377560Y-122936000D01*
X138350815Y-122947078D01*
X137933078Y-123364815D01*
X137707000Y-123910615D01*
X137707000Y-124501385D01*
X137933078Y-125047185D01*
X138350815Y-125464922D01*
X138377560Y-125476000D01*
X138350815Y-125487078D01*
X137933078Y-125904815D01*
X137707000Y-126450615D01*
X137707000Y-127041385D01*
X137933078Y-127587185D01*
X138350815Y-128004922D01*
X138377560Y-128016000D01*
X138350815Y-128027078D01*
X137933078Y-128444815D01*
X137707000Y-128990615D01*
X137707000Y-129581385D01*
X137933078Y-130127185D01*
X138350815Y-130544922D01*
X138377560Y-130556000D01*
X138350815Y-130567078D01*
X137933078Y-130984815D01*
X137707000Y-131530615D01*
X137707000Y-132121385D01*
X137933078Y-132667185D01*
X138350815Y-133084922D01*
X138377560Y-133096000D01*
X138350815Y-133107078D01*
X137933078Y-133524815D01*
X137707000Y-134070615D01*
X137707000Y-134661385D01*
X137933078Y-135207185D01*
X138350815Y-135624922D01*
X138377560Y-135636000D01*
X138350815Y-135647078D01*
X137933078Y-136064815D01*
X137707000Y-136610615D01*
X137707000Y-137201385D01*
X137933078Y-137747185D01*
X138350815Y-138164922D01*
X138377560Y-138176000D01*
X138350815Y-138187078D01*
X137933078Y-138604815D01*
X137707000Y-139150615D01*
X137707000Y-139741385D01*
X137933078Y-140287185D01*
X138350815Y-140704922D01*
X138896615Y-140931000D01*
X139487385Y-140931000D01*
X140033185Y-140704922D01*
X140450922Y-140287185D01*
X140677000Y-139741385D01*
X140677000Y-139150615D01*
X140450922Y-138604815D01*
X140033185Y-138187078D01*
X140006440Y-138176000D01*
X140033185Y-138164922D01*
X140450922Y-137747185D01*
X140677000Y-137201385D01*
X140677000Y-136610615D01*
X140450922Y-136064815D01*
X140033185Y-135647078D01*
X140006440Y-135636000D01*
X140033185Y-135624922D01*
X140450922Y-135207185D01*
X140677000Y-134661385D01*
X140677000Y-134070615D01*
X140450922Y-133524815D01*
X140033185Y-133107078D01*
X140006440Y-133096000D01*
X140033185Y-133084922D01*
X140450922Y-132667185D01*
X140677000Y-132121385D01*
X140677000Y-131530615D01*
X140450922Y-130984815D01*
X140033185Y-130567078D01*
X140006440Y-130556000D01*
X140033185Y-130544922D01*
X140450922Y-130127185D01*
X140677000Y-129581385D01*
X140677000Y-128990615D01*
X140534300Y-128646105D01*
X146401000Y-128646105D01*
X146401000Y-129415895D01*
X146695586Y-130127090D01*
X147239910Y-130671414D01*
X147951105Y-130966000D01*
X148720895Y-130966000D01*
X149432090Y-130671414D01*
X149976414Y-130127090D01*
X150271000Y-129415895D01*
X150271000Y-128646105D01*
X149976414Y-127934910D01*
X149432090Y-127390586D01*
X148720895Y-127096000D01*
X147951105Y-127096000D01*
X147239910Y-127390586D01*
X146695586Y-127934910D01*
X146401000Y-128646105D01*
X140534300Y-128646105D01*
X140450922Y-128444815D01*
X140033185Y-128027078D01*
X140006440Y-128016000D01*
X140033185Y-128004922D01*
X140450922Y-127587185D01*
X140677000Y-127041385D01*
X140677000Y-126450615D01*
X140450922Y-125904815D01*
X140033185Y-125487078D01*
X140006440Y-125476000D01*
X140033185Y-125464922D01*
X140450922Y-125047185D01*
X140617054Y-124646105D01*
X146401000Y-124646105D01*
X146401000Y-125415895D01*
X146695586Y-126127090D01*
X147239910Y-126671414D01*
X147951105Y-126966000D01*
X148720895Y-126966000D01*
X149432090Y-126671414D01*
X149976414Y-126127090D01*
X150271000Y-125415895D01*
X150271000Y-124646105D01*
X149976414Y-123934910D01*
X149432090Y-123390586D01*
X148720895Y-123096000D01*
X147951105Y-123096000D01*
X147239910Y-123390586D01*
X146695586Y-123934910D01*
X146401000Y-124646105D01*
X140617054Y-124646105D01*
X140677000Y-124501385D01*
X140677000Y-123910615D01*
X140450922Y-123364815D01*
X140033185Y-122947078D01*
X140006440Y-122936000D01*
X140033185Y-122924922D01*
X140450922Y-122507185D01*
X140677000Y-121961385D01*
X140677000Y-121370615D01*
X140450922Y-120824815D01*
X140272212Y-120646105D01*
X146401000Y-120646105D01*
X146401000Y-121415895D01*
X146695586Y-122127090D01*
X147239910Y-122671414D01*
X147951105Y-122966000D01*
X148720895Y-122966000D01*
X149432090Y-122671414D01*
X149976414Y-122127090D01*
X150271000Y-121415895D01*
X150271000Y-120646105D01*
X149976414Y-119934910D01*
X149432090Y-119390586D01*
X148720895Y-119096000D01*
X147951105Y-119096000D01*
X147239910Y-119390586D01*
X146695586Y-119934910D01*
X146401000Y-120646105D01*
X140272212Y-120646105D01*
X140033185Y-120407078D01*
X140006440Y-120396000D01*
X140033185Y-120384922D01*
X140450922Y-119967185D01*
X140508796Y-119827465D01*
X140632569Y-120126280D01*
X140923720Y-120417431D01*
X141304126Y-120575000D01*
X141715874Y-120575000D01*
X142096280Y-120417431D01*
X142387431Y-120126280D01*
X142545000Y-119745874D01*
X142545000Y-119334126D01*
X142387431Y-118953720D01*
X142096280Y-118662569D01*
X141715874Y-118505000D01*
X141304126Y-118505000D01*
X140923720Y-118662569D01*
X140677000Y-118909289D01*
X140677000Y-118830615D01*
X140450922Y-118284815D01*
X140033185Y-117867078D01*
X140006440Y-117856000D01*
X140033185Y-117844922D01*
X140450922Y-117427185D01*
X140677000Y-116881385D01*
X140677000Y-116290615D01*
X140450922Y-115744815D01*
X140033185Y-115327078D01*
X140006440Y-115316000D01*
X140033185Y-115304922D01*
X140450922Y-114887185D01*
X140677000Y-114341385D01*
X140677000Y-114146105D01*
X146401000Y-114146105D01*
X146401000Y-114915895D01*
X146695586Y-115627090D01*
X147239910Y-116171414D01*
X147951105Y-116466000D01*
X148720895Y-116466000D01*
X149432090Y-116171414D01*
X149976414Y-115627090D01*
X150271000Y-114915895D01*
X150271000Y-114146105D01*
X149976414Y-113434910D01*
X149432090Y-112890586D01*
X148720895Y-112596000D01*
X147951105Y-112596000D01*
X147239910Y-112890586D01*
X146695586Y-113434910D01*
X146401000Y-114146105D01*
X140677000Y-114146105D01*
X140677000Y-113750615D01*
X140450922Y-113204815D01*
X140033185Y-112787078D01*
X140006440Y-112776000D01*
X140033185Y-112764922D01*
X140450922Y-112347185D01*
X140677000Y-111801385D01*
X140677000Y-111210615D01*
X140450922Y-110664815D01*
X140033185Y-110247078D01*
X140006440Y-110236000D01*
X140033185Y-110224922D01*
X140112002Y-110146105D01*
X146401000Y-110146105D01*
X146401000Y-110915895D01*
X146695586Y-111627090D01*
X147239910Y-112171414D01*
X147951105Y-112466000D01*
X148720895Y-112466000D01*
X149432090Y-112171414D01*
X149976414Y-111627090D01*
X150271000Y-110915895D01*
X150271000Y-110146105D01*
X149976414Y-109434910D01*
X149432090Y-108890586D01*
X148720895Y-108596000D01*
X147951105Y-108596000D01*
X147239910Y-108890586D01*
X146695586Y-109434910D01*
X146401000Y-110146105D01*
X140112002Y-110146105D01*
X140450922Y-109807185D01*
X140677000Y-109261385D01*
X140677000Y-108670615D01*
X140450922Y-108124815D01*
X140033185Y-107707078D01*
X140006440Y-107696000D01*
X140033185Y-107684922D01*
X140450922Y-107267185D01*
X140677000Y-106721385D01*
X140677000Y-106146105D01*
X146401000Y-106146105D01*
X146401000Y-106915895D01*
X146695586Y-107627090D01*
X147239910Y-108171414D01*
X147951105Y-108466000D01*
X148720895Y-108466000D01*
X149432090Y-108171414D01*
X149976414Y-107627090D01*
X150271000Y-106915895D01*
X150271000Y-106146105D01*
X149976414Y-105434910D01*
X149432090Y-104890586D01*
X148720895Y-104596000D01*
X147951105Y-104596000D01*
X147239910Y-104890586D01*
X146695586Y-105434910D01*
X146401000Y-106146105D01*
X140677000Y-106146105D01*
X140677000Y-106130615D01*
X140450922Y-105584815D01*
X140033185Y-105167078D01*
X140006440Y-105156000D01*
X140033185Y-105144922D01*
X140450922Y-104727185D01*
X140677000Y-104181385D01*
X140677000Y-103900459D01*
X147146146Y-103900459D01*
X147281504Y-104198455D01*
X147999880Y-104475066D01*
X148769427Y-104455710D01*
X149390496Y-104198455D01*
X149525854Y-103900459D01*
X148336000Y-102710605D01*
X147146146Y-103900459D01*
X140677000Y-103900459D01*
X140677000Y-103590615D01*
X140450922Y-103044815D01*
X140033185Y-102627078D01*
X140006440Y-102616000D01*
X140033185Y-102604922D01*
X140443227Y-102194880D01*
X146391934Y-102194880D01*
X146411290Y-102964427D01*
X146668545Y-103585496D01*
X146966541Y-103720854D01*
X148156395Y-102531000D01*
X148515605Y-102531000D01*
X149705459Y-103720854D01*
X150003455Y-103585496D01*
X150280066Y-102867120D01*
X150260710Y-102097573D01*
X150003455Y-101476504D01*
X149705459Y-101341146D01*
X148515605Y-102531000D01*
X148156395Y-102531000D01*
X146966541Y-101341146D01*
X146668545Y-101476504D01*
X146391934Y-102194880D01*
X140443227Y-102194880D01*
X140450922Y-102187185D01*
X140677000Y-101641385D01*
X140677000Y-101161541D01*
X147146146Y-101161541D01*
X148336000Y-102351395D01*
X149525854Y-101161541D01*
X149390496Y-100863545D01*
X148672120Y-100586934D01*
X147902573Y-100606290D01*
X147281504Y-100863545D01*
X147146146Y-101161541D01*
X140677000Y-101161541D01*
X140677000Y-101050615D01*
X140641537Y-100965000D01*
X141605000Y-100965000D01*
X141848004Y-100916664D01*
X142054013Y-100779013D01*
X142191664Y-100573004D01*
X142240000Y-100330000D01*
X142240000Y-96520000D01*
X142191664Y-96276996D01*
X142054013Y-96070987D01*
X141848004Y-95933336D01*
X141605000Y-95885000D01*
X140641537Y-95885000D01*
X140450922Y-95424815D01*
X140033185Y-95007078D01*
X140006440Y-94996000D01*
X140033185Y-94984922D01*
X140450922Y-94567185D01*
X140677000Y-94021385D01*
X140677000Y-93430615D01*
X140450922Y-92884815D01*
X140033185Y-92467078D01*
X140006440Y-92456000D01*
X140033185Y-92444922D01*
X140450922Y-92027185D01*
X140677000Y-91481385D01*
X140677000Y-90890615D01*
X140450922Y-90344815D01*
X140033185Y-89927078D01*
X140006440Y-89916000D01*
X140033185Y-89904922D01*
X140450922Y-89487185D01*
X140677000Y-88941385D01*
X140677000Y-88350615D01*
X140450922Y-87804815D01*
X140033185Y-87387078D01*
X140006440Y-87376000D01*
X140033185Y-87364922D01*
X140450922Y-86947185D01*
X140677000Y-86401385D01*
X140677000Y-85810615D01*
X140450922Y-85264815D01*
X140033185Y-84847078D01*
X139487385Y-84621000D01*
X138896615Y-84621000D01*
X138534615Y-84770945D01*
X138545000Y-84745874D01*
X138545000Y-84334126D01*
X138387431Y-83953720D01*
X138096280Y-83662569D01*
X137715874Y-83505000D01*
X137304126Y-83505000D01*
X137010000Y-83626831D01*
X136715874Y-83505000D01*
X136304126Y-83505000D01*
X135923720Y-83662569D01*
X135632569Y-83953720D01*
X135510000Y-84249628D01*
X135387431Y-83953720D01*
X135096280Y-83662569D01*
X134715874Y-83505000D01*
X134304126Y-83505000D01*
X133923720Y-83662569D01*
X133632569Y-83953720D01*
X133510000Y-84249628D01*
X133387431Y-83953720D01*
X133096280Y-83662569D01*
X132715874Y-83505000D01*
X132304126Y-83505000D01*
X131923720Y-83662569D01*
X131632569Y-83953720D01*
X131475000Y-84334126D01*
X131475000Y-84745874D01*
X131632569Y-85126280D01*
X131923720Y-85417431D01*
X132304126Y-85575000D01*
X132715874Y-85575000D01*
X133096280Y-85417431D01*
X133387431Y-85126280D01*
X133510000Y-84830372D01*
X133632569Y-85126280D01*
X133923720Y-85417431D01*
X134304126Y-85575000D01*
X134715874Y-85575000D01*
X135096280Y-85417431D01*
X135387431Y-85126280D01*
X135510000Y-84830372D01*
X135632569Y-85126280D01*
X135923720Y-85417431D01*
X136304126Y-85575000D01*
X136715874Y-85575000D01*
X137010000Y-85453169D01*
X137304126Y-85575000D01*
X137715874Y-85575000D01*
X137822970Y-85530640D01*
X137707000Y-85810615D01*
X137707000Y-86401385D01*
X137933078Y-86947185D01*
X138350815Y-87364922D01*
X138377560Y-87376000D01*
X138350815Y-87387078D01*
X137933078Y-87804815D01*
X137707000Y-88350615D01*
X137707000Y-88941385D01*
X137933078Y-89487185D01*
X138350815Y-89904922D01*
X138377560Y-89916000D01*
X138350815Y-89927078D01*
X137933078Y-90344815D01*
X137707000Y-90890615D01*
X137707000Y-91481385D01*
X137933078Y-92027185D01*
X138350815Y-92444922D01*
X138377560Y-92456000D01*
X138350815Y-92467078D01*
X137933078Y-92884815D01*
X137707000Y-93430615D01*
X137707000Y-94021385D01*
X137933078Y-94567185D01*
X138350815Y-94984922D01*
X138377560Y-94996000D01*
X138350815Y-95007078D01*
X137933078Y-95424815D01*
X137742463Y-95885000D01*
X137560000Y-95885000D01*
X137560000Y-95679126D01*
X137402431Y-95298720D01*
X137111280Y-95007569D01*
X136730874Y-94850000D01*
X136319126Y-94850000D01*
X135938720Y-95007569D01*
X135647569Y-95298720D01*
X135490000Y-95679126D01*
X135490000Y-95885000D01*
X133985000Y-95885000D01*
X133741996Y-95933336D01*
X133535987Y-96070987D01*
X133398336Y-96276996D01*
X133350000Y-96520000D01*
X133350000Y-98796974D01*
X126736974Y-105410000D01*
X125635246Y-105410000D01*
X127396681Y-104000852D01*
X127487821Y-103911517D01*
X130662821Y-100101517D01*
X130761664Y-99938004D01*
X130810000Y-99695000D01*
X130810000Y-97536012D01*
X131096280Y-97417431D01*
X131387431Y-97126280D01*
X131545000Y-96745874D01*
X131545000Y-96514164D01*
X131753360Y-96514164D01*
X132133766Y-96356595D01*
X132424917Y-96065444D01*
X132582486Y-95685038D01*
X132582486Y-95575000D01*
X132715874Y-95575000D01*
X133096280Y-95417431D01*
X133387431Y-95126280D01*
X133545000Y-94745874D01*
X133545000Y-94334126D01*
X133387431Y-93953720D01*
X133096280Y-93662569D01*
X132715874Y-93505000D01*
X132304126Y-93505000D01*
X131923720Y-93662569D01*
X131632569Y-93953720D01*
X131475000Y-94334126D01*
X131475000Y-94444164D01*
X131341612Y-94444164D01*
X130961206Y-94601733D01*
X130957751Y-94605188D01*
X130810000Y-94543988D01*
X130810000Y-92710000D01*
X130761664Y-92466996D01*
X130624013Y-92260987D01*
X130418004Y-92123336D01*
X130175000Y-92075000D01*
X120083107Y-92075000D01*
X120130922Y-92027185D01*
X120357000Y-91481385D01*
X120357000Y-90890615D01*
X120130922Y-90344815D01*
X120032737Y-90246630D01*
X126412823Y-90246630D01*
X126412823Y-90658378D01*
X126570392Y-91038784D01*
X126861543Y-91329935D01*
X127241949Y-91487504D01*
X127653697Y-91487504D01*
X128034103Y-91329935D01*
X128325254Y-91038784D01*
X128482823Y-90658378D01*
X128482823Y-90246630D01*
X128325254Y-89866224D01*
X128034103Y-89575073D01*
X127653697Y-89417504D01*
X127241949Y-89417504D01*
X126861543Y-89575073D01*
X126570392Y-89866224D01*
X126412823Y-90246630D01*
X120032737Y-90246630D01*
X119713185Y-89927078D01*
X119666753Y-89907845D01*
X119736353Y-89689958D01*
X118872000Y-88825605D01*
X118007647Y-89689958D01*
X118077247Y-89907845D01*
X118030815Y-89927078D01*
X117613078Y-90344815D01*
X117387000Y-90890615D01*
X117387000Y-91481385D01*
X117613078Y-92027185D01*
X117660893Y-92075000D01*
X116840000Y-92075000D01*
X116596996Y-92123336D01*
X116390987Y-92260987D01*
X116253336Y-92466996D01*
X116205000Y-92710000D01*
X116205000Y-88417279D01*
X117375282Y-88417279D01*
X117401685Y-89007458D01*
X117576741Y-89430080D01*
X117828042Y-89510353D01*
X118692395Y-88646000D01*
X119051605Y-88646000D01*
X119915958Y-89510353D01*
X120167259Y-89430080D01*
X120368718Y-88874721D01*
X120342315Y-88284542D01*
X120167259Y-87861920D01*
X119915958Y-87781647D01*
X119051605Y-88646000D01*
X118692395Y-88646000D01*
X117828042Y-87781647D01*
X117576741Y-87861920D01*
X117375282Y-88417279D01*
X116205000Y-88417279D01*
X116205000Y-88035000D01*
X116205874Y-88035000D01*
X116586280Y-87877431D01*
X116877431Y-87586280D01*
X117035000Y-87205874D01*
X117035000Y-86794126D01*
X116877431Y-86413720D01*
X116586280Y-86122569D01*
X116205874Y-85965000D01*
X116205000Y-85965000D01*
X116205000Y-85810615D01*
X117387000Y-85810615D01*
X117387000Y-86401385D01*
X117613078Y-86947185D01*
X118030815Y-87364922D01*
X118077247Y-87384155D01*
X118007647Y-87602042D01*
X118872000Y-88466395D01*
X119736353Y-87602042D01*
X119666753Y-87384155D01*
X119713185Y-87364922D01*
X120130922Y-86947185D01*
X120357000Y-86401385D01*
X120357000Y-85810615D01*
X120130922Y-85264815D01*
X119713185Y-84847078D01*
X119167385Y-84621000D01*
X118576615Y-84621000D01*
X118030815Y-84847078D01*
X117613078Y-85264815D01*
X117387000Y-85810615D01*
X116205000Y-85810615D01*
X116205000Y-77346786D01*
X116487660Y-77346786D01*
X116487660Y-77758534D01*
X116645229Y-78138940D01*
X116936380Y-78430091D01*
X117316786Y-78587660D01*
X117728534Y-78587660D01*
X118108940Y-78430091D01*
X118400091Y-78138940D01*
X118557660Y-77758534D01*
X118557660Y-77346786D01*
X118400091Y-76966380D01*
X118108940Y-76675229D01*
X117728534Y-76517660D01*
X117316786Y-76517660D01*
X116936380Y-76675229D01*
X116645229Y-76966380D01*
X116487660Y-77346786D01*
X116205000Y-77346786D01*
X116205000Y-75346786D01*
X121487660Y-75346786D01*
X121487660Y-75758534D01*
X121645229Y-76138940D01*
X121936380Y-76430091D01*
X122316786Y-76587660D01*
X122728534Y-76587660D01*
X123108940Y-76430091D01*
X123400091Y-76138940D01*
X123518952Y-75851984D01*
X123632569Y-76126280D01*
X123923720Y-76417431D01*
X124304126Y-76575000D01*
X124715874Y-76575000D01*
X125096280Y-76417431D01*
X125387431Y-76126280D01*
X125545000Y-75745874D01*
X125545000Y-75334126D01*
X126475000Y-75334126D01*
X126475000Y-75745874D01*
X126632569Y-76126280D01*
X126923720Y-76417431D01*
X127304126Y-76575000D01*
X127715874Y-76575000D01*
X128096280Y-76417431D01*
X128387431Y-76126280D01*
X128545000Y-75745874D01*
X128545000Y-75334126D01*
X129475000Y-75334126D01*
X129475000Y-75745874D01*
X129632569Y-76126280D01*
X129923720Y-76417431D01*
X130304126Y-76575000D01*
X130715874Y-76575000D01*
X131096280Y-76417431D01*
X131387431Y-76126280D01*
X131545000Y-75745874D01*
X131545000Y-75334126D01*
X132475000Y-75334126D01*
X132475000Y-75745874D01*
X132632569Y-76126280D01*
X132923720Y-76417431D01*
X133304126Y-76575000D01*
X133715874Y-76575000D01*
X134096280Y-76417431D01*
X134387431Y-76126280D01*
X134510000Y-75830372D01*
X134632569Y-76126280D01*
X134923720Y-76417431D01*
X135304126Y-76575000D01*
X135715874Y-76575000D01*
X136096280Y-76417431D01*
X136387431Y-76126280D01*
X136545000Y-75745874D01*
X136545000Y-75334126D01*
X137475000Y-75334126D01*
X137475000Y-75745874D01*
X137632569Y-76126280D01*
X137923720Y-76417431D01*
X138304126Y-76575000D01*
X138715874Y-76575000D01*
X139096280Y-76417431D01*
X139387431Y-76126280D01*
X139545000Y-75745874D01*
X139545000Y-75334126D01*
X139387431Y-74953720D01*
X139096280Y-74662569D01*
X138715874Y-74505000D01*
X138304126Y-74505000D01*
X137923720Y-74662569D01*
X137632569Y-74953720D01*
X137475000Y-75334126D01*
X136545000Y-75334126D01*
X136387431Y-74953720D01*
X136096280Y-74662569D01*
X135715874Y-74505000D01*
X135304126Y-74505000D01*
X134923720Y-74662569D01*
X134632569Y-74953720D01*
X134510000Y-75249628D01*
X134387431Y-74953720D01*
X134096280Y-74662569D01*
X133715874Y-74505000D01*
X133304126Y-74505000D01*
X132923720Y-74662569D01*
X132632569Y-74953720D01*
X132475000Y-75334126D01*
X131545000Y-75334126D01*
X131387431Y-74953720D01*
X131096280Y-74662569D01*
X130715874Y-74505000D01*
X130304126Y-74505000D01*
X129923720Y-74662569D01*
X129632569Y-74953720D01*
X129475000Y-75334126D01*
X128545000Y-75334126D01*
X128387431Y-74953720D01*
X128096280Y-74662569D01*
X127715874Y-74505000D01*
X127304126Y-74505000D01*
X126923720Y-74662569D01*
X126632569Y-74953720D01*
X126475000Y-75334126D01*
X125545000Y-75334126D01*
X125387431Y-74953720D01*
X125096280Y-74662569D01*
X124715874Y-74505000D01*
X124304126Y-74505000D01*
X123923720Y-74662569D01*
X123632569Y-74953720D01*
X123513708Y-75240676D01*
X123400091Y-74966380D01*
X123108940Y-74675229D01*
X122728534Y-74517660D01*
X122316786Y-74517660D01*
X121936380Y-74675229D01*
X121645229Y-74966380D01*
X121487660Y-75346786D01*
X116205000Y-75346786D01*
X116205000Y-73334126D01*
X127475000Y-73334126D01*
X127475000Y-73745874D01*
X127632569Y-74126280D01*
X127923720Y-74417431D01*
X128304126Y-74575000D01*
X128715874Y-74575000D01*
X129096280Y-74417431D01*
X129387431Y-74126280D01*
X129545000Y-73745874D01*
X129545000Y-73334126D01*
X129387431Y-72953720D01*
X129096280Y-72662569D01*
X128715874Y-72505000D01*
X128304126Y-72505000D01*
X127923720Y-72662569D01*
X127632569Y-72953720D01*
X127475000Y-73334126D01*
X116205000Y-73334126D01*
X116205000Y-72059125D01*
X131435663Y-72059125D01*
X131435663Y-72470873D01*
X131593232Y-72851279D01*
X131884383Y-73142430D01*
X132264789Y-73299999D01*
X132676537Y-73299999D01*
X133056943Y-73142430D01*
X133348094Y-72851279D01*
X133505663Y-72470873D01*
X133505663Y-72059125D01*
X133348094Y-71678719D01*
X133056943Y-71387568D01*
X132676537Y-71229999D01*
X132264789Y-71229999D01*
X131884383Y-71387568D01*
X131593232Y-71678719D01*
X131435663Y-72059125D01*
X116205000Y-72059125D01*
X116205000Y-70113026D01*
X116900942Y-69417084D01*
X119867362Y-69417084D01*
X119867362Y-69828832D01*
X120024931Y-70209238D01*
X120316082Y-70500389D01*
X120696488Y-70657958D01*
X121108236Y-70657958D01*
X121488642Y-70500389D01*
X121779793Y-70209238D01*
X121937362Y-69828832D01*
X121937362Y-69417084D01*
X121779793Y-69036678D01*
X121488642Y-68745527D01*
X121108236Y-68587958D01*
X120696488Y-68587958D01*
X120316082Y-68745527D01*
X120024931Y-69036678D01*
X119867362Y-69417084D01*
X116900942Y-69417084D01*
X118373026Y-67945000D01*
X122609612Y-67945000D01*
X122465000Y-68294126D01*
X122465000Y-68705874D01*
X122622569Y-69086280D01*
X122913720Y-69377431D01*
X123294126Y-69535000D01*
X123705874Y-69535000D01*
X124086280Y-69377431D01*
X124377431Y-69086280D01*
X124535000Y-68705874D01*
X124535000Y-68294126D01*
X124377431Y-67913720D01*
X124243268Y-67779557D01*
X124274013Y-67759013D01*
X124411664Y-67553004D01*
X124460000Y-67310000D01*
X124460000Y-66619575D01*
X124824031Y-66770361D01*
X125235779Y-66770361D01*
X125524355Y-66650829D01*
X125465000Y-66794126D01*
X125465000Y-67205874D01*
X125595783Y-67521612D01*
X125477660Y-67806786D01*
X125477660Y-68218534D01*
X125635229Y-68598940D01*
X125926380Y-68890091D01*
X126306786Y-69047660D01*
X126718534Y-69047660D01*
X126965000Y-68945571D01*
X126965000Y-69205874D01*
X127122569Y-69586280D01*
X127413720Y-69877431D01*
X127794126Y-70035000D01*
X128205874Y-70035000D01*
X128586280Y-69877431D01*
X128877431Y-69586280D01*
X129035000Y-69205874D01*
X129035000Y-68794126D01*
X128877431Y-68413720D01*
X128586280Y-68122569D01*
X128205874Y-67965000D01*
X127794126Y-67965000D01*
X127547660Y-68067089D01*
X127547660Y-67806786D01*
X127416877Y-67491048D01*
X127535000Y-67205874D01*
X127535000Y-66794126D01*
X127377431Y-66413720D01*
X127086280Y-66122569D01*
X126705874Y-65965000D01*
X126294126Y-65965000D01*
X126005550Y-66084532D01*
X126064905Y-65941235D01*
X126064905Y-65529487D01*
X126049489Y-65492268D01*
X128135980Y-65492268D01*
X128135980Y-65904016D01*
X128293549Y-66284422D01*
X128584700Y-66575573D01*
X128965106Y-66733142D01*
X129376854Y-66733142D01*
X129757260Y-66575573D01*
X130048411Y-66284422D01*
X130205980Y-65904016D01*
X130205980Y-65794126D01*
X131965000Y-65794126D01*
X131965000Y-66205874D01*
X132122569Y-66586280D01*
X132413720Y-66877431D01*
X132794126Y-67035000D01*
X133205874Y-67035000D01*
X133586280Y-66877431D01*
X133877431Y-66586280D01*
X134035000Y-66205874D01*
X134035000Y-65794126D01*
X133877431Y-65413720D01*
X133797837Y-65334126D01*
X134475000Y-65334126D01*
X134475000Y-65745874D01*
X134632569Y-66126280D01*
X134923720Y-66417431D01*
X135304126Y-66575000D01*
X135715874Y-66575000D01*
X136096280Y-66417431D01*
X136387431Y-66126280D01*
X136545000Y-65745874D01*
X136545000Y-65334126D01*
X136387431Y-64953720D01*
X136096280Y-64662569D01*
X136043375Y-64640655D01*
X137679849Y-64640655D01*
X137679849Y-65052403D01*
X137837418Y-65432809D01*
X138128569Y-65723960D01*
X138508975Y-65881529D01*
X138920723Y-65881529D01*
X139301129Y-65723960D01*
X139592280Y-65432809D01*
X139749849Y-65052403D01*
X139749849Y-64640655D01*
X139592280Y-64260249D01*
X139301129Y-63969098D01*
X138920723Y-63811529D01*
X138508975Y-63811529D01*
X138128569Y-63969098D01*
X137837418Y-64260249D01*
X137679849Y-64640655D01*
X136043375Y-64640655D01*
X135715874Y-64505000D01*
X135304126Y-64505000D01*
X134923720Y-64662569D01*
X134632569Y-64953720D01*
X134475000Y-65334126D01*
X133797837Y-65334126D01*
X133586280Y-65122569D01*
X133205874Y-64965000D01*
X132794126Y-64965000D01*
X132413720Y-65122569D01*
X132122569Y-65413720D01*
X131965000Y-65794126D01*
X130205980Y-65794126D01*
X130205980Y-65534347D01*
X130304126Y-65575000D01*
X130715874Y-65575000D01*
X131096280Y-65417431D01*
X131387431Y-65126280D01*
X131545000Y-64745874D01*
X131545000Y-64334126D01*
X131387431Y-63953720D01*
X131096280Y-63662569D01*
X130715874Y-63505000D01*
X130304126Y-63505000D01*
X129923720Y-63662569D01*
X129632569Y-63953720D01*
X129475000Y-64334126D01*
X129475000Y-64703795D01*
X129376854Y-64663142D01*
X128965106Y-64663142D01*
X128584700Y-64820711D01*
X128293549Y-65111862D01*
X128135980Y-65492268D01*
X126049489Y-65492268D01*
X125907336Y-65149081D01*
X125616185Y-64857930D01*
X125235779Y-64700361D01*
X124979683Y-64700361D01*
X124711386Y-64432064D01*
X124330980Y-64274495D01*
X124204433Y-64274495D01*
X124068004Y-64183336D01*
X123825000Y-64135000D01*
X122781061Y-64135000D01*
X122583620Y-63937559D01*
X122203214Y-63779990D01*
X121791466Y-63779990D01*
X121411060Y-63937559D01*
X121213619Y-64135000D01*
X120977621Y-64135000D01*
X121161881Y-64011881D01*
X121318805Y-63777028D01*
X121373909Y-63500000D01*
X121318805Y-63222972D01*
X121220000Y-63075100D01*
X121220000Y-52250000D01*
X139800000Y-52250000D01*
X139800001Y-63022718D01*
X139800001Y-63022718D01*
G37*
X139800001Y-63022718D02*
X139666195Y-63222972D01*
X139611091Y-63500000D01*
X139666195Y-63777028D01*
X139823119Y-64011881D01*
X140057972Y-64168805D01*
X140221913Y-64201415D01*
X140232973Y-64208805D01*
X140510000Y-64263909D01*
X140781020Y-64210000D01*
X151055000Y-64210000D01*
X151055001Y-141530000D01*
X108025000Y-141530000D01*
X108025000Y-101882909D01*
X108135987Y-102049013D01*
X108341996Y-102186664D01*
X108566524Y-102231325D01*
X108533843Y-102280235D01*
X108484560Y-102528000D01*
X108484560Y-104228000D01*
X108533843Y-104475765D01*
X108674191Y-104685809D01*
X108884235Y-104826157D01*
X109132000Y-104875440D01*
X110832000Y-104875440D01*
X111079765Y-104826157D01*
X111289809Y-104685809D01*
X111430157Y-104475765D01*
X111479440Y-104228000D01*
X111479440Y-102528000D01*
X111430157Y-102280235D01*
X111399932Y-102235000D01*
X115570000Y-102235000D01*
X115813004Y-102186664D01*
X116019013Y-102049013D01*
X116156664Y-101843004D01*
X116205000Y-101600000D01*
X116205000Y-127635000D01*
X116253336Y-127878004D01*
X116390987Y-128084013D01*
X116596996Y-128221664D01*
X116840000Y-128270000D01*
X117787893Y-128270000D01*
X117613078Y-128444815D01*
X117387000Y-128990615D01*
X117387000Y-129581385D01*
X117613078Y-130127185D01*
X118030815Y-130544922D01*
X118057560Y-130556000D01*
X118030815Y-130567078D01*
X117613078Y-130984815D01*
X117387000Y-131530615D01*
X117387000Y-132121385D01*
X117613078Y-132667185D01*
X118030815Y-133084922D01*
X118057560Y-133096000D01*
X118030815Y-133107078D01*
X117613078Y-133524815D01*
X117387000Y-134070615D01*
X117387000Y-134661385D01*
X117613078Y-135207185D01*
X118030815Y-135624922D01*
X118057560Y-135636000D01*
X118030815Y-135647078D01*
X117613078Y-136064815D01*
X117387000Y-136610615D01*
X117387000Y-137201385D01*
X117613078Y-137747185D01*
X118030815Y-138164922D01*
X118057560Y-138176000D01*
X118030815Y-138187078D01*
X117613078Y-138604815D01*
X117387000Y-139150615D01*
X117387000Y-139741385D01*
X117613078Y-140287185D01*
X118030815Y-140704922D01*
X118576615Y-140931000D01*
X119167385Y-140931000D01*
X119713185Y-140704922D01*
X120130922Y-140287185D01*
X120357000Y-139741385D01*
X120357000Y-139150615D01*
X120130922Y-138604815D01*
X119713185Y-138187078D01*
X119686440Y-138176000D01*
X119713185Y-138164922D01*
X120130922Y-137747185D01*
X120357000Y-137201385D01*
X120357000Y-136610615D01*
X120130922Y-136064815D01*
X119713185Y-135647078D01*
X119686440Y-135636000D01*
X119713185Y-135624922D01*
X120130922Y-135207185D01*
X120357000Y-134661385D01*
X120357000Y-134070615D01*
X120130922Y-133524815D01*
X119713185Y-133107078D01*
X119686440Y-133096000D01*
X119713185Y-133084922D01*
X120130922Y-132667185D01*
X120268879Y-132334126D01*
X123475000Y-132334126D01*
X123475000Y-132745874D01*
X123632569Y-133126280D01*
X123923720Y-133417431D01*
X124304126Y-133575000D01*
X124715874Y-133575000D01*
X125096280Y-133417431D01*
X125387431Y-133126280D01*
X125545000Y-132745874D01*
X125545000Y-132334126D01*
X125387431Y-131953720D01*
X125096280Y-131662569D01*
X124715874Y-131505000D01*
X124304126Y-131505000D01*
X123923720Y-131662569D01*
X123632569Y-131953720D01*
X123475000Y-132334126D01*
X120268879Y-132334126D01*
X120357000Y-132121385D01*
X120357000Y-131530615D01*
X120130922Y-130984815D01*
X119713185Y-130567078D01*
X119686440Y-130556000D01*
X119713185Y-130544922D01*
X120130922Y-130127185D01*
X120357000Y-129581385D01*
X120357000Y-128990615D01*
X120130922Y-128444815D01*
X119956107Y-128270000D01*
X121920000Y-128270000D01*
X121920000Y-130175000D01*
X121968336Y-130418004D01*
X122105987Y-130624013D01*
X122311996Y-130761664D01*
X122555000Y-130810000D01*
X127776289Y-130810000D01*
X127632569Y-130953720D01*
X127475000Y-131334126D01*
X127475000Y-131745874D01*
X127632569Y-132126280D01*
X127923720Y-132417431D01*
X128304126Y-132575000D01*
X128715874Y-132575000D01*
X129096280Y-132417431D01*
X129387431Y-132126280D01*
X129545000Y-131745874D01*
X129545000Y-131334126D01*
X129387431Y-130953720D01*
X129243711Y-130810000D01*
X133985000Y-130810000D01*
X134228004Y-130761664D01*
X134434013Y-130624013D01*
X134571664Y-130418004D01*
X134620000Y-130175000D01*
X134620000Y-125575000D01*
X134715874Y-125575000D01*
X135096280Y-125417431D01*
X135387431Y-125126280D01*
X135545000Y-124745874D01*
X135545000Y-124334126D01*
X135387431Y-123953720D01*
X135353711Y-123920000D01*
X135497431Y-123776280D01*
X135655000Y-123395874D01*
X135655000Y-122984126D01*
X135497431Y-122603720D01*
X135206280Y-122312569D01*
X134825874Y-122155000D01*
X134620000Y-122155000D01*
X134620000Y-118510000D01*
X134825874Y-118510000D01*
X135206280Y-118352431D01*
X135497431Y-118061280D01*
X135655000Y-117680874D01*
X135655000Y-117269126D01*
X135497431Y-116888720D01*
X135206280Y-116597569D01*
X134825874Y-116440000D01*
X134620000Y-116440000D01*
X134620000Y-110575000D01*
X134715874Y-110575000D01*
X135096280Y-110417431D01*
X135387431Y-110126280D01*
X135545000Y-109745874D01*
X135545000Y-109334126D01*
X135387431Y-108953720D01*
X135096280Y-108662569D01*
X134715874Y-108505000D01*
X134620000Y-108505000D01*
X134620000Y-104369902D01*
X137457419Y-100965000D01*
X137742463Y-100965000D01*
X137707000Y-101050615D01*
X137707000Y-101641385D01*
X137933078Y-102187185D01*
X138350815Y-102604922D01*
X138377560Y-102616000D01*
X138350815Y-102627078D01*
X137933078Y-103044815D01*
X137707000Y-103590615D01*
X137707000Y-104181385D01*
X137933078Y-104727185D01*
X138350815Y-105144922D01*
X138377560Y-105156000D01*
X138350815Y-105167078D01*
X137933078Y-105584815D01*
X137707000Y-106130615D01*
X137707000Y-106721385D01*
X137933078Y-107267185D01*
X138350815Y-107684922D01*
X138377560Y-107696000D01*
X138350815Y-107707078D01*
X137933078Y-108124815D01*
X137707000Y-108670615D01*
X137707000Y-109261385D01*
X137933078Y-109807185D01*
X138350815Y-110224922D01*
X138377560Y-110236000D01*
X138350815Y-110247078D01*
X137933078Y-110664815D01*
X137707000Y-111210615D01*
X137707000Y-111801385D01*
X137933078Y-112347185D01*
X138350815Y-112764922D01*
X138377560Y-112776000D01*
X138350815Y-112787078D01*
X137933078Y-113204815D01*
X137707000Y-113750615D01*
X137707000Y-114341385D01*
X137933078Y-114887185D01*
X138350815Y-115304922D01*
X138377560Y-115316000D01*
X138350815Y-115327078D01*
X137933078Y-115744815D01*
X137707000Y-116290615D01*
X137707000Y-116881385D01*
X137933078Y-117427185D01*
X138350815Y-117844922D01*
X138377560Y-117856000D01*
X138350815Y-117867078D01*
X137933078Y-118284815D01*
X137707000Y-118830615D01*
X137707000Y-119421385D01*
X137933078Y-119967185D01*
X138350815Y-120384922D01*
X138377560Y-120396000D01*
X138350815Y-120407078D01*
X137933078Y-120824815D01*
X137707000Y-121370615D01*
X137707000Y-121961385D01*
X137933078Y-122507185D01*
X138350815Y-122924922D01*
X138377560Y-122936000D01*
X138350815Y-122947078D01*
X137933078Y-123364815D01*
X137707000Y-123910615D01*
X137707000Y-124501385D01*
X137933078Y-125047185D01*
X138350815Y-125464922D01*
X138377560Y-125476000D01*
X138350815Y-125487078D01*
X137933078Y-125904815D01*
X137707000Y-126450615D01*
X137707000Y-127041385D01*
X137933078Y-127587185D01*
X138350815Y-128004922D01*
X138377560Y-128016000D01*
X138350815Y-128027078D01*
X137933078Y-128444815D01*
X137707000Y-128990615D01*
X137707000Y-129581385D01*
X137933078Y-130127185D01*
X138350815Y-130544922D01*
X138377560Y-130556000D01*
X138350815Y-130567078D01*
X137933078Y-130984815D01*
X137707000Y-131530615D01*
X137707000Y-132121385D01*
X137933078Y-132667185D01*
X138350815Y-133084922D01*
X138377560Y-133096000D01*
X138350815Y-133107078D01*
X137933078Y-133524815D01*
X137707000Y-134070615D01*
X137707000Y-134661385D01*
X137933078Y-135207185D01*
X138350815Y-135624922D01*
X138377560Y-135636000D01*
X138350815Y-135647078D01*
X137933078Y-136064815D01*
X137707000Y-136610615D01*
X137707000Y-137201385D01*
X137933078Y-137747185D01*
X138350815Y-138164922D01*
X138377560Y-138176000D01*
X138350815Y-138187078D01*
X137933078Y-138604815D01*
X137707000Y-139150615D01*
X137707000Y-139741385D01*
X137933078Y-140287185D01*
X138350815Y-140704922D01*
X138896615Y-140931000D01*
X139487385Y-140931000D01*
X140033185Y-140704922D01*
X140450922Y-140287185D01*
X140677000Y-139741385D01*
X140677000Y-139150615D01*
X140450922Y-138604815D01*
X140033185Y-138187078D01*
X140006440Y-138176000D01*
X140033185Y-138164922D01*
X140450922Y-137747185D01*
X140677000Y-137201385D01*
X140677000Y-136610615D01*
X140450922Y-136064815D01*
X140033185Y-135647078D01*
X140006440Y-135636000D01*
X140033185Y-135624922D01*
X140450922Y-135207185D01*
X140677000Y-134661385D01*
X140677000Y-134070615D01*
X140450922Y-133524815D01*
X140033185Y-133107078D01*
X140006440Y-133096000D01*
X140033185Y-133084922D01*
X140450922Y-132667185D01*
X140677000Y-132121385D01*
X140677000Y-131530615D01*
X140450922Y-130984815D01*
X140033185Y-130567078D01*
X140006440Y-130556000D01*
X140033185Y-130544922D01*
X140450922Y-130127185D01*
X140677000Y-129581385D01*
X140677000Y-128990615D01*
X140534300Y-128646105D01*
X146401000Y-128646105D01*
X146401000Y-129415895D01*
X146695586Y-130127090D01*
X147239910Y-130671414D01*
X147951105Y-130966000D01*
X148720895Y-130966000D01*
X149432090Y-130671414D01*
X149976414Y-130127090D01*
X150271000Y-129415895D01*
X150271000Y-128646105D01*
X149976414Y-127934910D01*
X149432090Y-127390586D01*
X148720895Y-127096000D01*
X147951105Y-127096000D01*
X147239910Y-127390586D01*
X146695586Y-127934910D01*
X146401000Y-128646105D01*
X140534300Y-128646105D01*
X140450922Y-128444815D01*
X140033185Y-128027078D01*
X140006440Y-128016000D01*
X140033185Y-128004922D01*
X140450922Y-127587185D01*
X140677000Y-127041385D01*
X140677000Y-126450615D01*
X140450922Y-125904815D01*
X140033185Y-125487078D01*
X140006440Y-125476000D01*
X140033185Y-125464922D01*
X140450922Y-125047185D01*
X140617054Y-124646105D01*
X146401000Y-124646105D01*
X146401000Y-125415895D01*
X146695586Y-126127090D01*
X147239910Y-126671414D01*
X147951105Y-126966000D01*
X148720895Y-126966000D01*
X149432090Y-126671414D01*
X149976414Y-126127090D01*
X150271000Y-125415895D01*
X150271000Y-124646105D01*
X149976414Y-123934910D01*
X149432090Y-123390586D01*
X148720895Y-123096000D01*
X147951105Y-123096000D01*
X147239910Y-123390586D01*
X146695586Y-123934910D01*
X146401000Y-124646105D01*
X140617054Y-124646105D01*
X140677000Y-124501385D01*
X140677000Y-123910615D01*
X140450922Y-123364815D01*
X140033185Y-122947078D01*
X140006440Y-122936000D01*
X140033185Y-122924922D01*
X140450922Y-122507185D01*
X140677000Y-121961385D01*
X140677000Y-121370615D01*
X140450922Y-120824815D01*
X140272212Y-120646105D01*
X146401000Y-120646105D01*
X146401000Y-121415895D01*
X146695586Y-122127090D01*
X147239910Y-122671414D01*
X147951105Y-122966000D01*
X148720895Y-122966000D01*
X149432090Y-122671414D01*
X149976414Y-122127090D01*
X150271000Y-121415895D01*
X150271000Y-120646105D01*
X149976414Y-119934910D01*
X149432090Y-119390586D01*
X148720895Y-119096000D01*
X147951105Y-119096000D01*
X147239910Y-119390586D01*
X146695586Y-119934910D01*
X146401000Y-120646105D01*
X140272212Y-120646105D01*
X140033185Y-120407078D01*
X140006440Y-120396000D01*
X140033185Y-120384922D01*
X140450922Y-119967185D01*
X140508796Y-119827465D01*
X140632569Y-120126280D01*
X140923720Y-120417431D01*
X141304126Y-120575000D01*
X141715874Y-120575000D01*
X142096280Y-120417431D01*
X142387431Y-120126280D01*
X142545000Y-119745874D01*
X142545000Y-119334126D01*
X142387431Y-118953720D01*
X142096280Y-118662569D01*
X141715874Y-118505000D01*
X141304126Y-118505000D01*
X140923720Y-118662569D01*
X140677000Y-118909289D01*
X140677000Y-118830615D01*
X140450922Y-118284815D01*
X140033185Y-117867078D01*
X140006440Y-117856000D01*
X140033185Y-117844922D01*
X140450922Y-117427185D01*
X140677000Y-116881385D01*
X140677000Y-116290615D01*
X140450922Y-115744815D01*
X140033185Y-115327078D01*
X140006440Y-115316000D01*
X140033185Y-115304922D01*
X140450922Y-114887185D01*
X140677000Y-114341385D01*
X140677000Y-114146105D01*
X146401000Y-114146105D01*
X146401000Y-114915895D01*
X146695586Y-115627090D01*
X147239910Y-116171414D01*
X147951105Y-116466000D01*
X148720895Y-116466000D01*
X149432090Y-116171414D01*
X149976414Y-115627090D01*
X150271000Y-114915895D01*
X150271000Y-114146105D01*
X149976414Y-113434910D01*
X149432090Y-112890586D01*
X148720895Y-112596000D01*
X147951105Y-112596000D01*
X147239910Y-112890586D01*
X146695586Y-113434910D01*
X146401000Y-114146105D01*
X140677000Y-114146105D01*
X140677000Y-113750615D01*
X140450922Y-113204815D01*
X140033185Y-112787078D01*
X140006440Y-112776000D01*
X140033185Y-112764922D01*
X140450922Y-112347185D01*
X140677000Y-111801385D01*
X140677000Y-111210615D01*
X140450922Y-110664815D01*
X140033185Y-110247078D01*
X140006440Y-110236000D01*
X140033185Y-110224922D01*
X140112002Y-110146105D01*
X146401000Y-110146105D01*
X146401000Y-110915895D01*
X146695586Y-111627090D01*
X147239910Y-112171414D01*
X147951105Y-112466000D01*
X148720895Y-112466000D01*
X149432090Y-112171414D01*
X149976414Y-111627090D01*
X150271000Y-110915895D01*
X150271000Y-110146105D01*
X149976414Y-109434910D01*
X149432090Y-108890586D01*
X148720895Y-108596000D01*
X147951105Y-108596000D01*
X147239910Y-108890586D01*
X146695586Y-109434910D01*
X146401000Y-110146105D01*
X140112002Y-110146105D01*
X140450922Y-109807185D01*
X140677000Y-109261385D01*
X140677000Y-108670615D01*
X140450922Y-108124815D01*
X140033185Y-107707078D01*
X140006440Y-107696000D01*
X140033185Y-107684922D01*
X140450922Y-107267185D01*
X140677000Y-106721385D01*
X140677000Y-106146105D01*
X146401000Y-106146105D01*
X146401000Y-106915895D01*
X146695586Y-107627090D01*
X147239910Y-108171414D01*
X147951105Y-108466000D01*
X148720895Y-108466000D01*
X149432090Y-108171414D01*
X149976414Y-107627090D01*
X150271000Y-106915895D01*
X150271000Y-106146105D01*
X149976414Y-105434910D01*
X149432090Y-104890586D01*
X148720895Y-104596000D01*
X147951105Y-104596000D01*
X147239910Y-104890586D01*
X146695586Y-105434910D01*
X146401000Y-106146105D01*
X140677000Y-106146105D01*
X140677000Y-106130615D01*
X140450922Y-105584815D01*
X140033185Y-105167078D01*
X140006440Y-105156000D01*
X140033185Y-105144922D01*
X140450922Y-104727185D01*
X140677000Y-104181385D01*
X140677000Y-103900459D01*
X147146146Y-103900459D01*
X147281504Y-104198455D01*
X147999880Y-104475066D01*
X148769427Y-104455710D01*
X149390496Y-104198455D01*
X149525854Y-103900459D01*
X148336000Y-102710605D01*
X147146146Y-103900459D01*
X140677000Y-103900459D01*
X140677000Y-103590615D01*
X140450922Y-103044815D01*
X140033185Y-102627078D01*
X140006440Y-102616000D01*
X140033185Y-102604922D01*
X140443227Y-102194880D01*
X146391934Y-102194880D01*
X146411290Y-102964427D01*
X146668545Y-103585496D01*
X146966541Y-103720854D01*
X148156395Y-102531000D01*
X148515605Y-102531000D01*
X149705459Y-103720854D01*
X150003455Y-103585496D01*
X150280066Y-102867120D01*
X150260710Y-102097573D01*
X150003455Y-101476504D01*
X149705459Y-101341146D01*
X148515605Y-102531000D01*
X148156395Y-102531000D01*
X146966541Y-101341146D01*
X146668545Y-101476504D01*
X146391934Y-102194880D01*
X140443227Y-102194880D01*
X140450922Y-102187185D01*
X140677000Y-101641385D01*
X140677000Y-101161541D01*
X147146146Y-101161541D01*
X148336000Y-102351395D01*
X149525854Y-101161541D01*
X149390496Y-100863545D01*
X148672120Y-100586934D01*
X147902573Y-100606290D01*
X147281504Y-100863545D01*
X147146146Y-101161541D01*
X140677000Y-101161541D01*
X140677000Y-101050615D01*
X140641537Y-100965000D01*
X141605000Y-100965000D01*
X141848004Y-100916664D01*
X142054013Y-100779013D01*
X142191664Y-100573004D01*
X142240000Y-100330000D01*
X142240000Y-96520000D01*
X142191664Y-96276996D01*
X142054013Y-96070987D01*
X141848004Y-95933336D01*
X141605000Y-95885000D01*
X140641537Y-95885000D01*
X140450922Y-95424815D01*
X140033185Y-95007078D01*
X140006440Y-94996000D01*
X140033185Y-94984922D01*
X140450922Y-94567185D01*
X140677000Y-94021385D01*
X140677000Y-93430615D01*
X140450922Y-92884815D01*
X140033185Y-92467078D01*
X140006440Y-92456000D01*
X140033185Y-92444922D01*
X140450922Y-92027185D01*
X140677000Y-91481385D01*
X140677000Y-90890615D01*
X140450922Y-90344815D01*
X140033185Y-89927078D01*
X140006440Y-89916000D01*
X140033185Y-89904922D01*
X140450922Y-89487185D01*
X140677000Y-88941385D01*
X140677000Y-88350615D01*
X140450922Y-87804815D01*
X140033185Y-87387078D01*
X140006440Y-87376000D01*
X140033185Y-87364922D01*
X140450922Y-86947185D01*
X140677000Y-86401385D01*
X140677000Y-85810615D01*
X140450922Y-85264815D01*
X140033185Y-84847078D01*
X139487385Y-84621000D01*
X138896615Y-84621000D01*
X138534615Y-84770945D01*
X138545000Y-84745874D01*
X138545000Y-84334126D01*
X138387431Y-83953720D01*
X138096280Y-83662569D01*
X137715874Y-83505000D01*
X137304126Y-83505000D01*
X137010000Y-83626831D01*
X136715874Y-83505000D01*
X136304126Y-83505000D01*
X135923720Y-83662569D01*
X135632569Y-83953720D01*
X135510000Y-84249628D01*
X135387431Y-83953720D01*
X135096280Y-83662569D01*
X134715874Y-83505000D01*
X134304126Y-83505000D01*
X133923720Y-83662569D01*
X133632569Y-83953720D01*
X133510000Y-84249628D01*
X133387431Y-83953720D01*
X133096280Y-83662569D01*
X132715874Y-83505000D01*
X132304126Y-83505000D01*
X131923720Y-83662569D01*
X131632569Y-83953720D01*
X131475000Y-84334126D01*
X131475000Y-84745874D01*
X131632569Y-85126280D01*
X131923720Y-85417431D01*
X132304126Y-85575000D01*
X132715874Y-85575000D01*
X133096280Y-85417431D01*
X133387431Y-85126280D01*
X133510000Y-84830372D01*
X133632569Y-85126280D01*
X133923720Y-85417431D01*
X134304126Y-85575000D01*
X134715874Y-85575000D01*
X135096280Y-85417431D01*
X135387431Y-85126280D01*
X135510000Y-84830372D01*
X135632569Y-85126280D01*
X135923720Y-85417431D01*
X136304126Y-85575000D01*
X136715874Y-85575000D01*
X137010000Y-85453169D01*
X137304126Y-85575000D01*
X137715874Y-85575000D01*
X137822970Y-85530640D01*
X137707000Y-85810615D01*
X137707000Y-86401385D01*
X137933078Y-86947185D01*
X138350815Y-87364922D01*
X138377560Y-87376000D01*
X138350815Y-87387078D01*
X137933078Y-87804815D01*
X137707000Y-88350615D01*
X137707000Y-88941385D01*
X137933078Y-89487185D01*
X138350815Y-89904922D01*
X138377560Y-89916000D01*
X138350815Y-89927078D01*
X137933078Y-90344815D01*
X137707000Y-90890615D01*
X137707000Y-91481385D01*
X137933078Y-92027185D01*
X138350815Y-92444922D01*
X138377560Y-92456000D01*
X138350815Y-92467078D01*
X137933078Y-92884815D01*
X137707000Y-93430615D01*
X137707000Y-94021385D01*
X137933078Y-94567185D01*
X138350815Y-94984922D01*
X138377560Y-94996000D01*
X138350815Y-95007078D01*
X137933078Y-95424815D01*
X137742463Y-95885000D01*
X137560000Y-95885000D01*
X137560000Y-95679126D01*
X137402431Y-95298720D01*
X137111280Y-95007569D01*
X136730874Y-94850000D01*
X136319126Y-94850000D01*
X135938720Y-95007569D01*
X135647569Y-95298720D01*
X135490000Y-95679126D01*
X135490000Y-95885000D01*
X133985000Y-95885000D01*
X133741996Y-95933336D01*
X133535987Y-96070987D01*
X133398336Y-96276996D01*
X133350000Y-96520000D01*
X133350000Y-98796974D01*
X126736974Y-105410000D01*
X125635246Y-105410000D01*
X127396681Y-104000852D01*
X127487821Y-103911517D01*
X130662821Y-100101517D01*
X130761664Y-99938004D01*
X130810000Y-99695000D01*
X130810000Y-97536012D01*
X131096280Y-97417431D01*
X131387431Y-97126280D01*
X131545000Y-96745874D01*
X131545000Y-96514164D01*
X131753360Y-96514164D01*
X132133766Y-96356595D01*
X132424917Y-96065444D01*
X132582486Y-95685038D01*
X132582486Y-95575000D01*
X132715874Y-95575000D01*
X133096280Y-95417431D01*
X133387431Y-95126280D01*
X133545000Y-94745874D01*
X133545000Y-94334126D01*
X133387431Y-93953720D01*
X133096280Y-93662569D01*
X132715874Y-93505000D01*
X132304126Y-93505000D01*
X131923720Y-93662569D01*
X131632569Y-93953720D01*
X131475000Y-94334126D01*
X131475000Y-94444164D01*
X131341612Y-94444164D01*
X130961206Y-94601733D01*
X130957751Y-94605188D01*
X130810000Y-94543988D01*
X130810000Y-92710000D01*
X130761664Y-92466996D01*
X130624013Y-92260987D01*
X130418004Y-92123336D01*
X130175000Y-92075000D01*
X120083107Y-92075000D01*
X120130922Y-92027185D01*
X120357000Y-91481385D01*
X120357000Y-90890615D01*
X120130922Y-90344815D01*
X120032737Y-90246630D01*
X126412823Y-90246630D01*
X126412823Y-90658378D01*
X126570392Y-91038784D01*
X126861543Y-91329935D01*
X127241949Y-91487504D01*
X127653697Y-91487504D01*
X128034103Y-91329935D01*
X128325254Y-91038784D01*
X128482823Y-90658378D01*
X128482823Y-90246630D01*
X128325254Y-89866224D01*
X128034103Y-89575073D01*
X127653697Y-89417504D01*
X127241949Y-89417504D01*
X126861543Y-89575073D01*
X126570392Y-89866224D01*
X126412823Y-90246630D01*
X120032737Y-90246630D01*
X119713185Y-89927078D01*
X119666753Y-89907845D01*
X119736353Y-89689958D01*
X118872000Y-88825605D01*
X118007647Y-89689958D01*
X118077247Y-89907845D01*
X118030815Y-89927078D01*
X117613078Y-90344815D01*
X117387000Y-90890615D01*
X117387000Y-91481385D01*
X117613078Y-92027185D01*
X117660893Y-92075000D01*
X116840000Y-92075000D01*
X116596996Y-92123336D01*
X116390987Y-92260987D01*
X116253336Y-92466996D01*
X116205000Y-92710000D01*
X116205000Y-88417279D01*
X117375282Y-88417279D01*
X117401685Y-89007458D01*
X117576741Y-89430080D01*
X117828042Y-89510353D01*
X118692395Y-88646000D01*
X119051605Y-88646000D01*
X119915958Y-89510353D01*
X120167259Y-89430080D01*
X120368718Y-88874721D01*
X120342315Y-88284542D01*
X120167259Y-87861920D01*
X119915958Y-87781647D01*
X119051605Y-88646000D01*
X118692395Y-88646000D01*
X117828042Y-87781647D01*
X117576741Y-87861920D01*
X117375282Y-88417279D01*
X116205000Y-88417279D01*
X116205000Y-88035000D01*
X116205874Y-88035000D01*
X116586280Y-87877431D01*
X116877431Y-87586280D01*
X117035000Y-87205874D01*
X117035000Y-86794126D01*
X116877431Y-86413720D01*
X116586280Y-86122569D01*
X116205874Y-85965000D01*
X116205000Y-85965000D01*
X116205000Y-85810615D01*
X117387000Y-85810615D01*
X117387000Y-86401385D01*
X117613078Y-86947185D01*
X118030815Y-87364922D01*
X118077247Y-87384155D01*
X118007647Y-87602042D01*
X118872000Y-88466395D01*
X119736353Y-87602042D01*
X119666753Y-87384155D01*
X119713185Y-87364922D01*
X120130922Y-86947185D01*
X120357000Y-86401385D01*
X120357000Y-85810615D01*
X120130922Y-85264815D01*
X119713185Y-84847078D01*
X119167385Y-84621000D01*
X118576615Y-84621000D01*
X118030815Y-84847078D01*
X117613078Y-85264815D01*
X117387000Y-85810615D01*
X116205000Y-85810615D01*
X116205000Y-77346786D01*
X116487660Y-77346786D01*
X116487660Y-77758534D01*
X116645229Y-78138940D01*
X116936380Y-78430091D01*
X117316786Y-78587660D01*
X117728534Y-78587660D01*
X118108940Y-78430091D01*
X118400091Y-78138940D01*
X118557660Y-77758534D01*
X118557660Y-77346786D01*
X118400091Y-76966380D01*
X118108940Y-76675229D01*
X117728534Y-76517660D01*
X117316786Y-76517660D01*
X116936380Y-76675229D01*
X116645229Y-76966380D01*
X116487660Y-77346786D01*
X116205000Y-77346786D01*
X116205000Y-75346786D01*
X121487660Y-75346786D01*
X121487660Y-75758534D01*
X121645229Y-76138940D01*
X121936380Y-76430091D01*
X122316786Y-76587660D01*
X122728534Y-76587660D01*
X123108940Y-76430091D01*
X123400091Y-76138940D01*
X123518952Y-75851984D01*
X123632569Y-76126280D01*
X123923720Y-76417431D01*
X124304126Y-76575000D01*
X124715874Y-76575000D01*
X125096280Y-76417431D01*
X125387431Y-76126280D01*
X125545000Y-75745874D01*
X125545000Y-75334126D01*
X126475000Y-75334126D01*
X126475000Y-75745874D01*
X126632569Y-76126280D01*
X126923720Y-76417431D01*
X127304126Y-76575000D01*
X127715874Y-76575000D01*
X128096280Y-76417431D01*
X128387431Y-76126280D01*
X128545000Y-75745874D01*
X128545000Y-75334126D01*
X129475000Y-75334126D01*
X129475000Y-75745874D01*
X129632569Y-76126280D01*
X129923720Y-76417431D01*
X130304126Y-76575000D01*
X130715874Y-76575000D01*
X131096280Y-76417431D01*
X131387431Y-76126280D01*
X131545000Y-75745874D01*
X131545000Y-75334126D01*
X132475000Y-75334126D01*
X132475000Y-75745874D01*
X132632569Y-76126280D01*
X132923720Y-76417431D01*
X133304126Y-76575000D01*
X133715874Y-76575000D01*
X134096280Y-76417431D01*
X134387431Y-76126280D01*
X134510000Y-75830372D01*
X134632569Y-76126280D01*
X134923720Y-76417431D01*
X135304126Y-76575000D01*
X135715874Y-76575000D01*
X136096280Y-76417431D01*
X136387431Y-76126280D01*
X136545000Y-75745874D01*
X136545000Y-75334126D01*
X137475000Y-75334126D01*
X137475000Y-75745874D01*
X137632569Y-76126280D01*
X137923720Y-76417431D01*
X138304126Y-76575000D01*
X138715874Y-76575000D01*
X139096280Y-76417431D01*
X139387431Y-76126280D01*
X139545000Y-75745874D01*
X139545000Y-75334126D01*
X139387431Y-74953720D01*
X139096280Y-74662569D01*
X138715874Y-74505000D01*
X138304126Y-74505000D01*
X137923720Y-74662569D01*
X137632569Y-74953720D01*
X137475000Y-75334126D01*
X136545000Y-75334126D01*
X136387431Y-74953720D01*
X136096280Y-74662569D01*
X135715874Y-74505000D01*
X135304126Y-74505000D01*
X134923720Y-74662569D01*
X134632569Y-74953720D01*
X134510000Y-75249628D01*
X134387431Y-74953720D01*
X134096280Y-74662569D01*
X133715874Y-74505000D01*
X133304126Y-74505000D01*
X132923720Y-74662569D01*
X132632569Y-74953720D01*
X132475000Y-75334126D01*
X131545000Y-75334126D01*
X131387431Y-74953720D01*
X131096280Y-74662569D01*
X130715874Y-74505000D01*
X130304126Y-74505000D01*
X129923720Y-74662569D01*
X129632569Y-74953720D01*
X129475000Y-75334126D01*
X128545000Y-75334126D01*
X128387431Y-74953720D01*
X128096280Y-74662569D01*
X127715874Y-74505000D01*
X127304126Y-74505000D01*
X126923720Y-74662569D01*
X126632569Y-74953720D01*
X126475000Y-75334126D01*
X125545000Y-75334126D01*
X125387431Y-74953720D01*
X125096280Y-74662569D01*
X124715874Y-74505000D01*
X124304126Y-74505000D01*
X123923720Y-74662569D01*
X123632569Y-74953720D01*
X123513708Y-75240676D01*
X123400091Y-74966380D01*
X123108940Y-74675229D01*
X122728534Y-74517660D01*
X122316786Y-74517660D01*
X121936380Y-74675229D01*
X121645229Y-74966380D01*
X121487660Y-75346786D01*
X116205000Y-75346786D01*
X116205000Y-73334126D01*
X127475000Y-73334126D01*
X127475000Y-73745874D01*
X127632569Y-74126280D01*
X127923720Y-74417431D01*
X128304126Y-74575000D01*
X128715874Y-74575000D01*
X129096280Y-74417431D01*
X129387431Y-74126280D01*
X129545000Y-73745874D01*
X129545000Y-73334126D01*
X129387431Y-72953720D01*
X129096280Y-72662569D01*
X128715874Y-72505000D01*
X128304126Y-72505000D01*
X127923720Y-72662569D01*
X127632569Y-72953720D01*
X127475000Y-73334126D01*
X116205000Y-73334126D01*
X116205000Y-72059125D01*
X131435663Y-72059125D01*
X131435663Y-72470873D01*
X131593232Y-72851279D01*
X131884383Y-73142430D01*
X132264789Y-73299999D01*
X132676537Y-73299999D01*
X133056943Y-73142430D01*
X133348094Y-72851279D01*
X133505663Y-72470873D01*
X133505663Y-72059125D01*
X133348094Y-71678719D01*
X133056943Y-71387568D01*
X132676537Y-71229999D01*
X132264789Y-71229999D01*
X131884383Y-71387568D01*
X131593232Y-71678719D01*
X131435663Y-72059125D01*
X116205000Y-72059125D01*
X116205000Y-70113026D01*
X116900942Y-69417084D01*
X119867362Y-69417084D01*
X119867362Y-69828832D01*
X120024931Y-70209238D01*
X120316082Y-70500389D01*
X120696488Y-70657958D01*
X121108236Y-70657958D01*
X121488642Y-70500389D01*
X121779793Y-70209238D01*
X121937362Y-69828832D01*
X121937362Y-69417084D01*
X121779793Y-69036678D01*
X121488642Y-68745527D01*
X121108236Y-68587958D01*
X120696488Y-68587958D01*
X120316082Y-68745527D01*
X120024931Y-69036678D01*
X119867362Y-69417084D01*
X116900942Y-69417084D01*
X118373026Y-67945000D01*
X122609612Y-67945000D01*
X122465000Y-68294126D01*
X122465000Y-68705874D01*
X122622569Y-69086280D01*
X122913720Y-69377431D01*
X123294126Y-69535000D01*
X123705874Y-69535000D01*
X124086280Y-69377431D01*
X124377431Y-69086280D01*
X124535000Y-68705874D01*
X124535000Y-68294126D01*
X124377431Y-67913720D01*
X124243268Y-67779557D01*
X124274013Y-67759013D01*
X124411664Y-67553004D01*
X124460000Y-67310000D01*
X124460000Y-66619575D01*
X124824031Y-66770361D01*
X125235779Y-66770361D01*
X125524355Y-66650829D01*
X125465000Y-66794126D01*
X125465000Y-67205874D01*
X125595783Y-67521612D01*
X125477660Y-67806786D01*
X125477660Y-68218534D01*
X125635229Y-68598940D01*
X125926380Y-68890091D01*
X126306786Y-69047660D01*
X126718534Y-69047660D01*
X126965000Y-68945571D01*
X126965000Y-69205874D01*
X127122569Y-69586280D01*
X127413720Y-69877431D01*
X127794126Y-70035000D01*
X128205874Y-70035000D01*
X128586280Y-69877431D01*
X128877431Y-69586280D01*
X129035000Y-69205874D01*
X129035000Y-68794126D01*
X128877431Y-68413720D01*
X128586280Y-68122569D01*
X128205874Y-67965000D01*
X127794126Y-67965000D01*
X127547660Y-68067089D01*
X127547660Y-67806786D01*
X127416877Y-67491048D01*
X127535000Y-67205874D01*
X127535000Y-66794126D01*
X127377431Y-66413720D01*
X127086280Y-66122569D01*
X126705874Y-65965000D01*
X126294126Y-65965000D01*
X126005550Y-66084532D01*
X126064905Y-65941235D01*
X126064905Y-65529487D01*
X126049489Y-65492268D01*
X128135980Y-65492268D01*
X128135980Y-65904016D01*
X128293549Y-66284422D01*
X128584700Y-66575573D01*
X128965106Y-66733142D01*
X129376854Y-66733142D01*
X129757260Y-66575573D01*
X130048411Y-66284422D01*
X130205980Y-65904016D01*
X130205980Y-65794126D01*
X131965000Y-65794126D01*
X131965000Y-66205874D01*
X132122569Y-66586280D01*
X132413720Y-66877431D01*
X132794126Y-67035000D01*
X133205874Y-67035000D01*
X133586280Y-66877431D01*
X133877431Y-66586280D01*
X134035000Y-66205874D01*
X134035000Y-65794126D01*
X133877431Y-65413720D01*
X133797837Y-65334126D01*
X134475000Y-65334126D01*
X134475000Y-65745874D01*
X134632569Y-66126280D01*
X134923720Y-66417431D01*
X135304126Y-66575000D01*
X135715874Y-66575000D01*
X136096280Y-66417431D01*
X136387431Y-66126280D01*
X136545000Y-65745874D01*
X136545000Y-65334126D01*
X136387431Y-64953720D01*
X136096280Y-64662569D01*
X136043375Y-64640655D01*
X137679849Y-64640655D01*
X137679849Y-65052403D01*
X137837418Y-65432809D01*
X138128569Y-65723960D01*
X138508975Y-65881529D01*
X138920723Y-65881529D01*
X139301129Y-65723960D01*
X139592280Y-65432809D01*
X139749849Y-65052403D01*
X139749849Y-64640655D01*
X139592280Y-64260249D01*
X139301129Y-63969098D01*
X138920723Y-63811529D01*
X138508975Y-63811529D01*
X138128569Y-63969098D01*
X137837418Y-64260249D01*
X137679849Y-64640655D01*
X136043375Y-64640655D01*
X135715874Y-64505000D01*
X135304126Y-64505000D01*
X134923720Y-64662569D01*
X134632569Y-64953720D01*
X134475000Y-65334126D01*
X133797837Y-65334126D01*
X133586280Y-65122569D01*
X133205874Y-64965000D01*
X132794126Y-64965000D01*
X132413720Y-65122569D01*
X132122569Y-65413720D01*
X131965000Y-65794126D01*
X130205980Y-65794126D01*
X130205980Y-65534347D01*
X130304126Y-65575000D01*
X130715874Y-65575000D01*
X131096280Y-65417431D01*
X131387431Y-65126280D01*
X131545000Y-64745874D01*
X131545000Y-64334126D01*
X131387431Y-63953720D01*
X131096280Y-63662569D01*
X130715874Y-63505000D01*
X130304126Y-63505000D01*
X129923720Y-63662569D01*
X129632569Y-63953720D01*
X129475000Y-64334126D01*
X129475000Y-64703795D01*
X129376854Y-64663142D01*
X128965106Y-64663142D01*
X128584700Y-64820711D01*
X128293549Y-65111862D01*
X128135980Y-65492268D01*
X126049489Y-65492268D01*
X125907336Y-65149081D01*
X125616185Y-64857930D01*
X125235779Y-64700361D01*
X124979683Y-64700361D01*
X124711386Y-64432064D01*
X124330980Y-64274495D01*
X124204433Y-64274495D01*
X124068004Y-64183336D01*
X123825000Y-64135000D01*
X122781061Y-64135000D01*
X122583620Y-63937559D01*
X122203214Y-63779990D01*
X121791466Y-63779990D01*
X121411060Y-63937559D01*
X121213619Y-64135000D01*
X120977621Y-64135000D01*
X121161881Y-64011881D01*
X121318805Y-63777028D01*
X121373909Y-63500000D01*
X121318805Y-63222972D01*
X121220000Y-63075100D01*
X121220000Y-52250000D01*
X139800000Y-52250000D01*
X139800001Y-63022718D01*
M02*
