%FSLAX45Y45*%
G04 Gerber Fmt 4.5, Leading zero omitted, Abs format (unit mm)*
G04 Created by KiCad (PCBNEW 5.0.2+dfsg1-1) date Tue 28 Dec 2021 09:50:03 AM CET*
%MOMM*%
%LPD*%
G01*
G04 APERTURE LIST*
%ADD10C,0.150000*%
%ADD11C,0.200000*%
%ADD12C,0.300000*%
G04 APERTURE END LIST*
D10*
X12051000Y-6354000D02*
X12051000Y-5154000D01*
X10731500Y-6350000D02*
X12065000Y-6350000D01*
X10731500Y-14224000D02*
X10731500Y-6350000D01*
X15176500Y-14224000D02*
X10731500Y-14224000D01*
X15176500Y-6350000D02*
X15176500Y-14224000D01*
X14033500Y-6350000D02*
X15176500Y-6350000D01*
X14051000Y-5154000D02*
X14051000Y-6354000D01*
X12051000Y-5154000D02*
X14051000Y-5154000D01*
D11*
X11430000Y-7730000D02*
X11470000Y-7770000D01*
X11470000Y-7730000D02*
X11430000Y-7770000D01*
X11580000Y-8680000D02*
X11620000Y-8720000D01*
X11620000Y-8680000D02*
X11580000Y-8720000D01*
X11732266Y-7735266D02*
X11772266Y-7775266D01*
X11772266Y-7735266D02*
X11732266Y-7775266D01*
X12070236Y-6942296D02*
X12110236Y-6982296D01*
X12110236Y-6942296D02*
X12070236Y-6982296D01*
X12172000Y-6584000D02*
X12212000Y-6624000D01*
X12212000Y-6584000D02*
X12172000Y-6624000D01*
X12179734Y-6461499D02*
X12219734Y-6501499D01*
X12219734Y-6461499D02*
X12179734Y-6501499D01*
X12232266Y-7535266D02*
X12272266Y-7575266D01*
X12272266Y-7535266D02*
X12232266Y-7575266D01*
X12330000Y-6830000D02*
X12370000Y-6870000D01*
X12370000Y-6830000D02*
X12330000Y-6870000D01*
X12331000Y-12634000D02*
X12371000Y-12674000D01*
X12371000Y-12634000D02*
X12331000Y-12674000D01*
X12362500Y-11727500D02*
X12402500Y-11767500D01*
X12402500Y-11727500D02*
X12362500Y-11767500D01*
X12380000Y-10680000D02*
X12420000Y-10720000D01*
X12420000Y-10680000D02*
X12380000Y-10720000D01*
X12383391Y-10783996D02*
X12423391Y-10823996D01*
X12423391Y-10783996D02*
X12383391Y-10823996D01*
X12392511Y-6510949D02*
X12432511Y-6550949D01*
X12432511Y-6510949D02*
X12392511Y-6550949D01*
X12430000Y-12180000D02*
X12470000Y-12220000D01*
X12470000Y-12180000D02*
X12430000Y-12220000D01*
X12431000Y-7534000D02*
X12471000Y-7574000D01*
X12471000Y-7534000D02*
X12431000Y-7574000D01*
X12431000Y-13234000D02*
X12471000Y-13274000D01*
X12471000Y-13234000D02*
X12431000Y-13274000D01*
X12482990Y-6553536D02*
X12522990Y-6593536D01*
X12522990Y-6553536D02*
X12482990Y-6593536D01*
X12630000Y-6680000D02*
X12670000Y-6720000D01*
X12670000Y-6680000D02*
X12630000Y-6720000D01*
X12631266Y-6781266D02*
X12671266Y-6821266D01*
X12671266Y-6781266D02*
X12631266Y-6821266D01*
X12632266Y-9332734D02*
X12672266Y-9372734D01*
X12672266Y-9332734D02*
X12632266Y-9372734D01*
X12639353Y-11543279D02*
X12679353Y-11583279D01*
X12679353Y-11543279D02*
X12639353Y-11583279D01*
X12680000Y-10030234D02*
X12720000Y-10070234D01*
X12720000Y-10030234D02*
X12680000Y-10070234D01*
X12680000Y-13124500D02*
X12720000Y-13164500D01*
X12720000Y-13124500D02*
X12680000Y-13164500D01*
X12724782Y-9025250D02*
X12764782Y-9065250D01*
X12764782Y-9025250D02*
X12724782Y-9065250D01*
X12731000Y-7534000D02*
X12771000Y-7574000D01*
X12771000Y-7534000D02*
X12731000Y-7574000D01*
X12731000Y-11634000D02*
X12771000Y-11674000D01*
X12771000Y-11634000D02*
X12731000Y-11674000D01*
X12743500Y-10394000D02*
X12783500Y-10434000D01*
X12783500Y-10394000D02*
X12743500Y-10434000D01*
X12780000Y-6880000D02*
X12820000Y-6920000D01*
X12820000Y-6880000D02*
X12780000Y-6920000D01*
X12831000Y-7334000D02*
X12871000Y-7374000D01*
X12871000Y-7334000D02*
X12831000Y-7374000D01*
X12831000Y-13134000D02*
X12871000Y-13174000D01*
X12871000Y-13134000D02*
X12831000Y-13174000D01*
X12836379Y-11751502D02*
X12876379Y-11791502D01*
X12876379Y-11751502D02*
X12836379Y-11791502D01*
X12897098Y-6549814D02*
X12937098Y-6589814D01*
X12937098Y-6549814D02*
X12897098Y-6589814D01*
X13031000Y-6434000D02*
X13071000Y-6474000D01*
X13071000Y-6434000D02*
X13031000Y-6474000D01*
X13031000Y-7534000D02*
X13071000Y-7574000D01*
X13071000Y-7534000D02*
X13031000Y-7574000D01*
X13031000Y-9534000D02*
X13071000Y-9574000D01*
X13071000Y-9534000D02*
X13031000Y-9574000D01*
X13031000Y-9634000D02*
X13071000Y-9674000D01*
X13071000Y-9634000D02*
X13031000Y-9674000D01*
X13031000Y-11334000D02*
X13071000Y-11374000D01*
X13071000Y-11334000D02*
X13031000Y-11374000D01*
X13061000Y-11534000D02*
X13101000Y-11574000D01*
X13101000Y-11534000D02*
X13061000Y-11574000D01*
X13134749Y-9527916D02*
X13174749Y-9567916D01*
X13174749Y-9527916D02*
X13134749Y-9567916D01*
X13227066Y-7206500D02*
X13267066Y-7246500D01*
X13267066Y-7206500D02*
X13227066Y-7246500D01*
X13231000Y-8434000D02*
X13271000Y-8474000D01*
X13271000Y-8434000D02*
X13231000Y-8474000D01*
X13231000Y-9434000D02*
X13271000Y-9474000D01*
X13271000Y-9434000D02*
X13231000Y-9474000D01*
X13258499Y-12135266D02*
X13298499Y-12175266D01*
X13298499Y-12135266D02*
X13258499Y-12175266D01*
X13280000Y-6580000D02*
X13320000Y-6620000D01*
X13320000Y-6580000D02*
X13280000Y-6620000D01*
X13315000Y-10584500D02*
X13355000Y-10624500D01*
X13355000Y-10584500D02*
X13315000Y-10624500D01*
X13331000Y-7534000D02*
X13371000Y-7574000D01*
X13371000Y-7534000D02*
X13331000Y-7574000D01*
X13331000Y-12934000D02*
X13371000Y-12974000D01*
X13371000Y-12934000D02*
X13331000Y-12974000D01*
X13431000Y-8434000D02*
X13471000Y-8474000D01*
X13471000Y-8434000D02*
X13431000Y-8474000D01*
X13431000Y-10934000D02*
X13471000Y-10974000D01*
X13471000Y-10934000D02*
X13431000Y-10974000D01*
X13431000Y-12434000D02*
X13471000Y-12474000D01*
X13471000Y-12434000D02*
X13431000Y-12474000D01*
X13442000Y-11727500D02*
X13482000Y-11767500D01*
X13482000Y-11727500D02*
X13442000Y-11767500D01*
X13442000Y-12299000D02*
X13482000Y-12339000D01*
X13482000Y-12299000D02*
X13442000Y-12339000D01*
X13505500Y-10394000D02*
X13545500Y-10434000D01*
X13545500Y-10394000D02*
X13505500Y-10434000D01*
X13531000Y-6534000D02*
X13571000Y-6574000D01*
X13571000Y-6534000D02*
X13531000Y-6574000D01*
X13531000Y-7534000D02*
X13571000Y-7574000D01*
X13571000Y-7534000D02*
X13531000Y-7574000D01*
X13531000Y-9834000D02*
X13571000Y-9874000D01*
X13571000Y-9834000D02*
X13531000Y-9874000D01*
X13631000Y-8434000D02*
X13671000Y-8474000D01*
X13671000Y-8434000D02*
X13631000Y-8474000D01*
X13632500Y-9568500D02*
X13672500Y-9608500D01*
X13672500Y-9568500D02*
X13632500Y-9608500D01*
X13702915Y-9067415D02*
X13742915Y-9107415D01*
X13742915Y-9067415D02*
X13702915Y-9107415D01*
X13731000Y-8434000D02*
X13771000Y-8474000D01*
X13771000Y-8434000D02*
X13731000Y-8474000D01*
X13831000Y-7534000D02*
X13871000Y-7574000D01*
X13871000Y-7534000D02*
X13831000Y-7574000D01*
X13851485Y-6464653D02*
X13891485Y-6504653D01*
X13891485Y-6464653D02*
X13851485Y-6504653D01*
X14131000Y-11934000D02*
X14171000Y-11974000D01*
X14171000Y-11934000D02*
X14131000Y-11974000D01*
X11937200Y-8610600D02*
G75*
G03X11937200Y-8610600I-50000J0D01*
G01*
X11937200Y-8864600D02*
G75*
G03X11937200Y-8864600I-50000J0D01*
G01*
X11937200Y-9118600D02*
G75*
G03X11937200Y-9118600I-50000J0D01*
G01*
X11937200Y-9372600D02*
G75*
G03X11937200Y-9372600I-50000J0D01*
G01*
X11937200Y-9626600D02*
G75*
G03X11937200Y-9626600I-50000J0D01*
G01*
X11937200Y-9880600D02*
G75*
G03X11937200Y-9880600I-50000J0D01*
G01*
X11937200Y-10134600D02*
G75*
G03X11937200Y-10134600I-50000J0D01*
G01*
X11937200Y-10388600D02*
G75*
G03X11937200Y-10388600I-50000J0D01*
G01*
X11937200Y-10642600D02*
G75*
G03X11937200Y-10642600I-50000J0D01*
G01*
X11937200Y-10896600D02*
G75*
G03X11937200Y-10896600I-50000J0D01*
G01*
X11937200Y-11150600D02*
G75*
G03X11937200Y-11150600I-50000J0D01*
G01*
X11937200Y-11404600D02*
G75*
G03X11937200Y-11404600I-50000J0D01*
G01*
X11937200Y-11658600D02*
G75*
G03X11937200Y-11658600I-50000J0D01*
G01*
X11937200Y-11912600D02*
G75*
G03X11937200Y-11912600I-50000J0D01*
G01*
X11937200Y-12166600D02*
G75*
G03X11937200Y-12166600I-50000J0D01*
G01*
X11937200Y-12420600D02*
G75*
G03X11937200Y-12420600I-50000J0D01*
G01*
X11937200Y-12674600D02*
G75*
G03X11937200Y-12674600I-50000J0D01*
G01*
X11937200Y-12928600D02*
G75*
G03X11937200Y-12928600I-50000J0D01*
G01*
X11937200Y-13182600D02*
G75*
G03X11937200Y-13182600I-50000J0D01*
G01*
X11937200Y-13436600D02*
G75*
G03X11937200Y-13436600I-50000J0D01*
G01*
X11937200Y-13690600D02*
G75*
G03X11937200Y-13690600I-50000J0D01*
G01*
X11937200Y-13944600D02*
G75*
G03X11937200Y-13944600I-50000J0D01*
G01*
X13969200Y-8610600D02*
G75*
G03X13969200Y-8610600I-50000J0D01*
G01*
X13969200Y-8864600D02*
G75*
G03X13969200Y-8864600I-50000J0D01*
G01*
X13969200Y-9118600D02*
G75*
G03X13969200Y-9118600I-50000J0D01*
G01*
X13969200Y-9372600D02*
G75*
G03X13969200Y-9372600I-50000J0D01*
G01*
X13969200Y-9626600D02*
G75*
G03X13969200Y-9626600I-50000J0D01*
G01*
X13969200Y-9880600D02*
G75*
G03X13969200Y-9880600I-50000J0D01*
G01*
X13969200Y-10134600D02*
G75*
G03X13969200Y-10134600I-50000J0D01*
G01*
X13969200Y-10388600D02*
G75*
G03X13969200Y-10388600I-50000J0D01*
G01*
X13969200Y-10642600D02*
G75*
G03X13969200Y-10642600I-50000J0D01*
G01*
X13969200Y-10896600D02*
G75*
G03X13969200Y-10896600I-50000J0D01*
G01*
X13969200Y-11150600D02*
G75*
G03X13969200Y-11150600I-50000J0D01*
G01*
X13969200Y-11404600D02*
G75*
G03X13969200Y-11404600I-50000J0D01*
G01*
X13969200Y-11658600D02*
G75*
G03X13969200Y-11658600I-50000J0D01*
G01*
X13969200Y-11912600D02*
G75*
G03X13969200Y-11912600I-50000J0D01*
G01*
X13969200Y-12166600D02*
G75*
G03X13969200Y-12166600I-50000J0D01*
G01*
X13969200Y-12420600D02*
G75*
G03X13969200Y-12420600I-50000J0D01*
G01*
X13969200Y-12674600D02*
G75*
G03X13969200Y-12674600I-50000J0D01*
G01*
X13969200Y-12928600D02*
G75*
G03X13969200Y-12928600I-50000J0D01*
G01*
X13969200Y-13182600D02*
G75*
G03X13969200Y-13182600I-50000J0D01*
G01*
X13969200Y-13436600D02*
G75*
G03X13969200Y-13436600I-50000J0D01*
G01*
X13969200Y-13690600D02*
G75*
G03X13969200Y-13690600I-50000J0D01*
G01*
X13969200Y-13944600D02*
G75*
G03X13969200Y-13944600I-50000J0D01*
G01*
X11048200Y-6743700D02*
G75*
G03X11048200Y-6743700I-50000J0D01*
G01*
X11048200Y-6997700D02*
G75*
G03X11048200Y-6997700I-50000J0D01*
G01*
X11048200Y-7251700D02*
G75*
G03X11048200Y-7251700I-50000J0D01*
G01*
X11048200Y-7505700D02*
G75*
G03X11048200Y-7505700I-50000J0D01*
G01*
X11048200Y-7759700D02*
G75*
G03X11048200Y-7759700I-50000J0D01*
G01*
X11048200Y-8013700D02*
G75*
G03X11048200Y-8013700I-50000J0D01*
G01*
X11048200Y-8813800D02*
G75*
G03X11048200Y-8813800I-50000J0D01*
G01*
X11048200Y-9067800D02*
G75*
G03X11048200Y-9067800I-50000J0D01*
G01*
X11048200Y-9321800D02*
G75*
G03X11048200Y-9321800I-50000J0D01*
G01*
X11048200Y-9575800D02*
G75*
G03X11048200Y-9575800I-50000J0D01*
G01*
X11048200Y-9829800D02*
G75*
G03X11048200Y-9829800I-50000J0D01*
G01*
X11048200Y-10083800D02*
G75*
G03X11048200Y-10083800I-50000J0D01*
G01*
X11048200Y-10337800D02*
G75*
G03X11048200Y-10337800I-50000J0D01*
G01*
X14833600Y-10188100D02*
X14833600Y-10318100D01*
X14768600Y-10253100D02*
X14898600Y-10253100D01*
X14833600Y-10588100D02*
X14833600Y-10718100D01*
X14768600Y-10653100D02*
X14898600Y-10653100D01*
X14833600Y-10988100D02*
X14833600Y-11118100D01*
X14768600Y-11053100D02*
X14898600Y-11053100D01*
X14833600Y-11388100D02*
X14833600Y-11518100D01*
X14768600Y-11453100D02*
X14898600Y-11453100D01*
X14833600Y-12038100D02*
X14833600Y-12168100D01*
X14768600Y-12103100D02*
X14898600Y-12103100D01*
X14833600Y-12438100D02*
X14833600Y-12568100D01*
X14768600Y-12503100D02*
X14898600Y-12503100D01*
X14833600Y-12838100D02*
X14833600Y-12968100D01*
X14768600Y-12903100D02*
X14898600Y-12903100D01*
D12*
X11010428Y-14697214D02*
X11010428Y-14397214D01*
X11081857Y-14397214D01*
X11124714Y-14411500D01*
X11153286Y-14440071D01*
X11167571Y-14468643D01*
X11181857Y-14525786D01*
X11181857Y-14568643D01*
X11167571Y-14625786D01*
X11153286Y-14654357D01*
X11124714Y-14682929D01*
X11081857Y-14697214D01*
X11010428Y-14697214D01*
X11310428Y-14697214D02*
X11310428Y-14497214D01*
X11310428Y-14554357D02*
X11324714Y-14525786D01*
X11339000Y-14511500D01*
X11367571Y-14497214D01*
X11396143Y-14497214D01*
X11496143Y-14697214D02*
X11496143Y-14497214D01*
X11496143Y-14397214D02*
X11481857Y-14411500D01*
X11496143Y-14425786D01*
X11510428Y-14411500D01*
X11496143Y-14397214D01*
X11496143Y-14425786D01*
X11681857Y-14697214D02*
X11653286Y-14682929D01*
X11639000Y-14654357D01*
X11639000Y-14397214D01*
X11839000Y-14697214D02*
X11810428Y-14682929D01*
X11796143Y-14654357D01*
X11796143Y-14397214D01*
X12181857Y-14697214D02*
X12181857Y-14397214D01*
X12281857Y-14611500D01*
X12381857Y-14397214D01*
X12381857Y-14697214D01*
X12653286Y-14697214D02*
X12653286Y-14540071D01*
X12639000Y-14511500D01*
X12610428Y-14497214D01*
X12553286Y-14497214D01*
X12524714Y-14511500D01*
X12653286Y-14682929D02*
X12624714Y-14697214D01*
X12553286Y-14697214D01*
X12524714Y-14682929D01*
X12510428Y-14654357D01*
X12510428Y-14625786D01*
X12524714Y-14597214D01*
X12553286Y-14582929D01*
X12624714Y-14582929D01*
X12653286Y-14568643D01*
X12796143Y-14497214D02*
X12796143Y-14797214D01*
X12796143Y-14511500D02*
X12824714Y-14497214D01*
X12881857Y-14497214D01*
X12910428Y-14511500D01*
X12924714Y-14525786D01*
X12939000Y-14554357D01*
X12939000Y-14640071D01*
X12924714Y-14668643D01*
X12910428Y-14682929D01*
X12881857Y-14697214D01*
X12824714Y-14697214D01*
X12796143Y-14682929D01*
X13067571Y-14668643D02*
X13081857Y-14682929D01*
X13067571Y-14697214D01*
X13053286Y-14682929D01*
X13067571Y-14668643D01*
X13067571Y-14697214D01*
X13067571Y-14511500D02*
X13081857Y-14525786D01*
X13067571Y-14540071D01*
X13053286Y-14525786D01*
X13067571Y-14511500D01*
X13067571Y-14540071D01*
X10684000Y-15171500D02*
X10724000Y-15211500D01*
X10724000Y-15171500D02*
X10684000Y-15211500D01*
X11067571Y-15027214D02*
X11096143Y-15027214D01*
X11124714Y-15041500D01*
X11139000Y-15055786D01*
X11153286Y-15084357D01*
X11167571Y-15141500D01*
X11167571Y-15212929D01*
X11153286Y-15270071D01*
X11139000Y-15298643D01*
X11124714Y-15312929D01*
X11096143Y-15327214D01*
X11067571Y-15327214D01*
X11039000Y-15312929D01*
X11024714Y-15298643D01*
X11010428Y-15270071D01*
X10996143Y-15212929D01*
X10996143Y-15141500D01*
X11010428Y-15084357D01*
X11024714Y-15055786D01*
X11039000Y-15041500D01*
X11067571Y-15027214D01*
X11296143Y-15298643D02*
X11310428Y-15312929D01*
X11296143Y-15327214D01*
X11281857Y-15312929D01*
X11296143Y-15298643D01*
X11296143Y-15327214D01*
X11567571Y-15127214D02*
X11567571Y-15327214D01*
X11496143Y-15012929D02*
X11424714Y-15227214D01*
X11610428Y-15227214D01*
X11781857Y-15027214D02*
X11810428Y-15027214D01*
X11839000Y-15041500D01*
X11853286Y-15055786D01*
X11867571Y-15084357D01*
X11881857Y-15141500D01*
X11881857Y-15212929D01*
X11867571Y-15270071D01*
X11853286Y-15298643D01*
X11839000Y-15312929D01*
X11810428Y-15327214D01*
X11781857Y-15327214D01*
X11753286Y-15312929D01*
X11739000Y-15298643D01*
X11724714Y-15270071D01*
X11710428Y-15212929D01*
X11710428Y-15141500D01*
X11724714Y-15084357D01*
X11739000Y-15055786D01*
X11753286Y-15041500D01*
X11781857Y-15027214D01*
X12010428Y-15327214D02*
X12010428Y-15127214D01*
X12010428Y-15155786D02*
X12024714Y-15141500D01*
X12053286Y-15127214D01*
X12096143Y-15127214D01*
X12124714Y-15141500D01*
X12139000Y-15170071D01*
X12139000Y-15327214D01*
X12139000Y-15170071D02*
X12153286Y-15141500D01*
X12181857Y-15127214D01*
X12224714Y-15127214D01*
X12253286Y-15141500D01*
X12267571Y-15170071D01*
X12267571Y-15327214D01*
X12410428Y-15327214D02*
X12410428Y-15127214D01*
X12410428Y-15155786D02*
X12424714Y-15141500D01*
X12453286Y-15127214D01*
X12496143Y-15127214D01*
X12524714Y-15141500D01*
X12539000Y-15170071D01*
X12539000Y-15327214D01*
X12539000Y-15170071D02*
X12553286Y-15141500D01*
X12581857Y-15127214D01*
X12624714Y-15127214D01*
X12653286Y-15141500D01*
X12667571Y-15170071D01*
X12667571Y-15327214D01*
X13253286Y-15012929D02*
X12996143Y-15398643D01*
X13639000Y-15027214D02*
X13667571Y-15027214D01*
X13696143Y-15041500D01*
X13710428Y-15055786D01*
X13724714Y-15084357D01*
X13739000Y-15141500D01*
X13739000Y-15212929D01*
X13724714Y-15270071D01*
X13710428Y-15298643D01*
X13696143Y-15312929D01*
X13667571Y-15327214D01*
X13639000Y-15327214D01*
X13610428Y-15312929D01*
X13596143Y-15298643D01*
X13581857Y-15270071D01*
X13567571Y-15212929D01*
X13567571Y-15141500D01*
X13581857Y-15084357D01*
X13596143Y-15055786D01*
X13610428Y-15041500D01*
X13639000Y-15027214D01*
X13867571Y-15298643D02*
X13881857Y-15312929D01*
X13867571Y-15327214D01*
X13853286Y-15312929D01*
X13867571Y-15298643D01*
X13867571Y-15327214D01*
X14067571Y-15027214D02*
X14096143Y-15027214D01*
X14124714Y-15041500D01*
X14139000Y-15055786D01*
X14153286Y-15084357D01*
X14167571Y-15141500D01*
X14167571Y-15212929D01*
X14153286Y-15270071D01*
X14139000Y-15298643D01*
X14124714Y-15312929D01*
X14096143Y-15327214D01*
X14067571Y-15327214D01*
X14039000Y-15312929D01*
X14024714Y-15298643D01*
X14010428Y-15270071D01*
X13996143Y-15212929D01*
X13996143Y-15141500D01*
X14010428Y-15084357D01*
X14024714Y-15055786D01*
X14039000Y-15041500D01*
X14067571Y-15027214D01*
X14453286Y-15327214D02*
X14281857Y-15327214D01*
X14367571Y-15327214D02*
X14367571Y-15027214D01*
X14339000Y-15070071D01*
X14310428Y-15098643D01*
X14281857Y-15112929D01*
X14710428Y-15027214D02*
X14653286Y-15027214D01*
X14624714Y-15041500D01*
X14610428Y-15055786D01*
X14581857Y-15098643D01*
X14567571Y-15155786D01*
X14567571Y-15270071D01*
X14581857Y-15298643D01*
X14596143Y-15312929D01*
X14624714Y-15327214D01*
X14681857Y-15327214D01*
X14710428Y-15312929D01*
X14724714Y-15298643D01*
X14739000Y-15270071D01*
X14739000Y-15198643D01*
X14724714Y-15170071D01*
X14710428Y-15155786D01*
X14681857Y-15141500D01*
X14624714Y-15141500D01*
X14596143Y-15155786D01*
X14581857Y-15170071D01*
X14567571Y-15198643D01*
X14853286Y-15027214D02*
X14853286Y-15084357D01*
X14967571Y-15027214D02*
X14967571Y-15084357D01*
X15410428Y-15441500D02*
X15396143Y-15427214D01*
X15367571Y-15384357D01*
X15353286Y-15355786D01*
X15339000Y-15312929D01*
X15324714Y-15241500D01*
X15324714Y-15184357D01*
X15339000Y-15112929D01*
X15353286Y-15070071D01*
X15367571Y-15041500D01*
X15396143Y-14998643D01*
X15410428Y-14984357D01*
X15653286Y-15027214D02*
X15596143Y-15027214D01*
X15567571Y-15041500D01*
X15553286Y-15055786D01*
X15524714Y-15098643D01*
X15510428Y-15155786D01*
X15510428Y-15270071D01*
X15524714Y-15298643D01*
X15539000Y-15312929D01*
X15567571Y-15327214D01*
X15624714Y-15327214D01*
X15653286Y-15312929D01*
X15667571Y-15298643D01*
X15681857Y-15270071D01*
X15681857Y-15198643D01*
X15667571Y-15170071D01*
X15653286Y-15155786D01*
X15624714Y-15141500D01*
X15567571Y-15141500D01*
X15539000Y-15155786D01*
X15524714Y-15170071D01*
X15510428Y-15198643D01*
X15781857Y-15027214D02*
X15967571Y-15027214D01*
X15867571Y-15141500D01*
X15910428Y-15141500D01*
X15939000Y-15155786D01*
X15953286Y-15170071D01*
X15967571Y-15198643D01*
X15967571Y-15270071D01*
X15953286Y-15298643D01*
X15939000Y-15312929D01*
X15910428Y-15327214D01*
X15824714Y-15327214D01*
X15796143Y-15312929D01*
X15781857Y-15298643D01*
X16324714Y-15327214D02*
X16324714Y-15027214D01*
X16453286Y-15327214D02*
X16453286Y-15170071D01*
X16439000Y-15141500D01*
X16410428Y-15127214D01*
X16367571Y-15127214D01*
X16339000Y-15141500D01*
X16324714Y-15155786D01*
X16639000Y-15327214D02*
X16610428Y-15312929D01*
X16596143Y-15298643D01*
X16581857Y-15270071D01*
X16581857Y-15184357D01*
X16596143Y-15155786D01*
X16610428Y-15141500D01*
X16639000Y-15127214D01*
X16681857Y-15127214D01*
X16710428Y-15141500D01*
X16724714Y-15155786D01*
X16739000Y-15184357D01*
X16739000Y-15270071D01*
X16724714Y-15298643D01*
X16710428Y-15312929D01*
X16681857Y-15327214D01*
X16639000Y-15327214D01*
X16910428Y-15327214D02*
X16881857Y-15312929D01*
X16867571Y-15284357D01*
X16867571Y-15027214D01*
X17139000Y-15312929D02*
X17110428Y-15327214D01*
X17053286Y-15327214D01*
X17024714Y-15312929D01*
X17010428Y-15284357D01*
X17010428Y-15170071D01*
X17024714Y-15141500D01*
X17053286Y-15127214D01*
X17110428Y-15127214D01*
X17139000Y-15141500D01*
X17153286Y-15170071D01*
X17153286Y-15198643D01*
X17010428Y-15227214D01*
X17267571Y-15312929D02*
X17296143Y-15327214D01*
X17353286Y-15327214D01*
X17381857Y-15312929D01*
X17396143Y-15284357D01*
X17396143Y-15270071D01*
X17381857Y-15241500D01*
X17353286Y-15227214D01*
X17310428Y-15227214D01*
X17281857Y-15212929D01*
X17267571Y-15184357D01*
X17267571Y-15170071D01*
X17281857Y-15141500D01*
X17310428Y-15127214D01*
X17353286Y-15127214D01*
X17381857Y-15141500D01*
X17496143Y-15441500D02*
X17510428Y-15427214D01*
X17539000Y-15384357D01*
X17553286Y-15355786D01*
X17567571Y-15312929D01*
X17581857Y-15241500D01*
X17581857Y-15184357D01*
X17567571Y-15112929D01*
X17553286Y-15070071D01*
X17539000Y-15041500D01*
X17510428Y-14998643D01*
X17496143Y-14984357D01*
X10724000Y-15587500D02*
G75*
G03X10724000Y-15587500I-50000J0D01*
G01*
X11167571Y-15723214D02*
X10996143Y-15723214D01*
X11081857Y-15723214D02*
X11081857Y-15423214D01*
X11053286Y-15466071D01*
X11024714Y-15494643D01*
X10996143Y-15508929D01*
X11296143Y-15694643D02*
X11310428Y-15708929D01*
X11296143Y-15723214D01*
X11281857Y-15708929D01*
X11296143Y-15694643D01*
X11296143Y-15723214D01*
X11496143Y-15423214D02*
X11524714Y-15423214D01*
X11553286Y-15437500D01*
X11567571Y-15451786D01*
X11581857Y-15480357D01*
X11596143Y-15537500D01*
X11596143Y-15608929D01*
X11581857Y-15666071D01*
X11567571Y-15694643D01*
X11553286Y-15708929D01*
X11524714Y-15723214D01*
X11496143Y-15723214D01*
X11467571Y-15708929D01*
X11453286Y-15694643D01*
X11439000Y-15666071D01*
X11424714Y-15608929D01*
X11424714Y-15537500D01*
X11439000Y-15480357D01*
X11453286Y-15451786D01*
X11467571Y-15437500D01*
X11496143Y-15423214D01*
X11781857Y-15423214D02*
X11810428Y-15423214D01*
X11839000Y-15437500D01*
X11853286Y-15451786D01*
X11867571Y-15480357D01*
X11881857Y-15537500D01*
X11881857Y-15608929D01*
X11867571Y-15666071D01*
X11853286Y-15694643D01*
X11839000Y-15708929D01*
X11810428Y-15723214D01*
X11781857Y-15723214D01*
X11753286Y-15708929D01*
X11739000Y-15694643D01*
X11724714Y-15666071D01*
X11710428Y-15608929D01*
X11710428Y-15537500D01*
X11724714Y-15480357D01*
X11739000Y-15451786D01*
X11753286Y-15437500D01*
X11781857Y-15423214D01*
X12010428Y-15723214D02*
X12010428Y-15523214D01*
X12010428Y-15551786D02*
X12024714Y-15537500D01*
X12053286Y-15523214D01*
X12096143Y-15523214D01*
X12124714Y-15537500D01*
X12139000Y-15566071D01*
X12139000Y-15723214D01*
X12139000Y-15566071D02*
X12153286Y-15537500D01*
X12181857Y-15523214D01*
X12224714Y-15523214D01*
X12253286Y-15537500D01*
X12267571Y-15566071D01*
X12267571Y-15723214D01*
X12410428Y-15723214D02*
X12410428Y-15523214D01*
X12410428Y-15551786D02*
X12424714Y-15537500D01*
X12453286Y-15523214D01*
X12496143Y-15523214D01*
X12524714Y-15537500D01*
X12539000Y-15566071D01*
X12539000Y-15723214D01*
X12539000Y-15566071D02*
X12553286Y-15537500D01*
X12581857Y-15523214D01*
X12624714Y-15523214D01*
X12653286Y-15537500D01*
X12667571Y-15566071D01*
X12667571Y-15723214D01*
X13253286Y-15408929D02*
X12996143Y-15794643D01*
X13639000Y-15423214D02*
X13667571Y-15423214D01*
X13696143Y-15437500D01*
X13710428Y-15451786D01*
X13724714Y-15480357D01*
X13739000Y-15537500D01*
X13739000Y-15608929D01*
X13724714Y-15666071D01*
X13710428Y-15694643D01*
X13696143Y-15708929D01*
X13667571Y-15723214D01*
X13639000Y-15723214D01*
X13610428Y-15708929D01*
X13596143Y-15694643D01*
X13581857Y-15666071D01*
X13567571Y-15608929D01*
X13567571Y-15537500D01*
X13581857Y-15480357D01*
X13596143Y-15451786D01*
X13610428Y-15437500D01*
X13639000Y-15423214D01*
X13867571Y-15694643D02*
X13881857Y-15708929D01*
X13867571Y-15723214D01*
X13853286Y-15708929D01*
X13867571Y-15694643D01*
X13867571Y-15723214D01*
X14067571Y-15423214D02*
X14096143Y-15423214D01*
X14124714Y-15437500D01*
X14139000Y-15451786D01*
X14153286Y-15480357D01*
X14167571Y-15537500D01*
X14167571Y-15608929D01*
X14153286Y-15666071D01*
X14139000Y-15694643D01*
X14124714Y-15708929D01*
X14096143Y-15723214D01*
X14067571Y-15723214D01*
X14039000Y-15708929D01*
X14024714Y-15694643D01*
X14010428Y-15666071D01*
X13996143Y-15608929D01*
X13996143Y-15537500D01*
X14010428Y-15480357D01*
X14024714Y-15451786D01*
X14039000Y-15437500D01*
X14067571Y-15423214D01*
X14267571Y-15423214D02*
X14453286Y-15423214D01*
X14353286Y-15537500D01*
X14396143Y-15537500D01*
X14424714Y-15551786D01*
X14439000Y-15566071D01*
X14453286Y-15594643D01*
X14453286Y-15666071D01*
X14439000Y-15694643D01*
X14424714Y-15708929D01*
X14396143Y-15723214D01*
X14310428Y-15723214D01*
X14281857Y-15708929D01*
X14267571Y-15694643D01*
X14596143Y-15723214D02*
X14653286Y-15723214D01*
X14681857Y-15708929D01*
X14696143Y-15694643D01*
X14724714Y-15651786D01*
X14739000Y-15594643D01*
X14739000Y-15480357D01*
X14724714Y-15451786D01*
X14710428Y-15437500D01*
X14681857Y-15423214D01*
X14624714Y-15423214D01*
X14596143Y-15437500D01*
X14581857Y-15451786D01*
X14567571Y-15480357D01*
X14567571Y-15551786D01*
X14581857Y-15580357D01*
X14596143Y-15594643D01*
X14624714Y-15608929D01*
X14681857Y-15608929D01*
X14710428Y-15594643D01*
X14724714Y-15580357D01*
X14739000Y-15551786D01*
X14853286Y-15423214D02*
X14853286Y-15480357D01*
X14967571Y-15423214D02*
X14967571Y-15480357D01*
X15410428Y-15837500D02*
X15396143Y-15823214D01*
X15367571Y-15780357D01*
X15353286Y-15751786D01*
X15339000Y-15708929D01*
X15324714Y-15637500D01*
X15324714Y-15580357D01*
X15339000Y-15508929D01*
X15353286Y-15466071D01*
X15367571Y-15437500D01*
X15396143Y-15394643D01*
X15410428Y-15380357D01*
X15667571Y-15423214D02*
X15524714Y-15423214D01*
X15510428Y-15566071D01*
X15524714Y-15551786D01*
X15553286Y-15537500D01*
X15624714Y-15537500D01*
X15653286Y-15551786D01*
X15667571Y-15566071D01*
X15681857Y-15594643D01*
X15681857Y-15666071D01*
X15667571Y-15694643D01*
X15653286Y-15708929D01*
X15624714Y-15723214D01*
X15553286Y-15723214D01*
X15524714Y-15708929D01*
X15510428Y-15694643D01*
X15781857Y-15423214D02*
X15981857Y-15423214D01*
X15853286Y-15723214D01*
X16324714Y-15723214D02*
X16324714Y-15423214D01*
X16453286Y-15723214D02*
X16453286Y-15566071D01*
X16439000Y-15537500D01*
X16410428Y-15523214D01*
X16367571Y-15523214D01*
X16339000Y-15537500D01*
X16324714Y-15551786D01*
X16639000Y-15723214D02*
X16610428Y-15708929D01*
X16596143Y-15694643D01*
X16581857Y-15666071D01*
X16581857Y-15580357D01*
X16596143Y-15551786D01*
X16610428Y-15537500D01*
X16639000Y-15523214D01*
X16681857Y-15523214D01*
X16710428Y-15537500D01*
X16724714Y-15551786D01*
X16739000Y-15580357D01*
X16739000Y-15666071D01*
X16724714Y-15694643D01*
X16710428Y-15708929D01*
X16681857Y-15723214D01*
X16639000Y-15723214D01*
X16910428Y-15723214D02*
X16881857Y-15708929D01*
X16867571Y-15680357D01*
X16867571Y-15423214D01*
X17139000Y-15708929D02*
X17110428Y-15723214D01*
X17053286Y-15723214D01*
X17024714Y-15708929D01*
X17010428Y-15680357D01*
X17010428Y-15566071D01*
X17024714Y-15537500D01*
X17053286Y-15523214D01*
X17110428Y-15523214D01*
X17139000Y-15537500D01*
X17153286Y-15566071D01*
X17153286Y-15594643D01*
X17010428Y-15623214D01*
X17267571Y-15708929D02*
X17296143Y-15723214D01*
X17353286Y-15723214D01*
X17381857Y-15708929D01*
X17396143Y-15680357D01*
X17396143Y-15666071D01*
X17381857Y-15637500D01*
X17353286Y-15623214D01*
X17310428Y-15623214D01*
X17281857Y-15608929D01*
X17267571Y-15580357D01*
X17267571Y-15566071D01*
X17281857Y-15537500D01*
X17310428Y-15523214D01*
X17353286Y-15523214D01*
X17381857Y-15537500D01*
X17496143Y-15837500D02*
X17510428Y-15823214D01*
X17539000Y-15780357D01*
X17553286Y-15751786D01*
X17567571Y-15708929D01*
X17581857Y-15637500D01*
X17581857Y-15580357D01*
X17567571Y-15508929D01*
X17553286Y-15466071D01*
X17539000Y-15437500D01*
X17510428Y-15394643D01*
X17496143Y-15380357D01*
X10659000Y-15918500D02*
X10659000Y-16048500D01*
X10594000Y-15983500D02*
X10724000Y-15983500D01*
X11167571Y-16119214D02*
X10996143Y-16119214D01*
X11081857Y-16119214D02*
X11081857Y-15819214D01*
X11053286Y-15862071D01*
X11024714Y-15890643D01*
X10996143Y-15904929D01*
X11296143Y-16090643D02*
X11310428Y-16104929D01*
X11296143Y-16119214D01*
X11281857Y-16104929D01*
X11296143Y-16090643D01*
X11296143Y-16119214D01*
X11410428Y-15819214D02*
X11596143Y-15819214D01*
X11496143Y-15933500D01*
X11539000Y-15933500D01*
X11567571Y-15947786D01*
X11581857Y-15962071D01*
X11596143Y-15990643D01*
X11596143Y-16062071D01*
X11581857Y-16090643D01*
X11567571Y-16104929D01*
X11539000Y-16119214D01*
X11453286Y-16119214D01*
X11424714Y-16104929D01*
X11410428Y-16090643D01*
X11781857Y-15819214D02*
X11810428Y-15819214D01*
X11839000Y-15833500D01*
X11853286Y-15847786D01*
X11867571Y-15876357D01*
X11881857Y-15933500D01*
X11881857Y-16004929D01*
X11867571Y-16062071D01*
X11853286Y-16090643D01*
X11839000Y-16104929D01*
X11810428Y-16119214D01*
X11781857Y-16119214D01*
X11753286Y-16104929D01*
X11739000Y-16090643D01*
X11724714Y-16062071D01*
X11710428Y-16004929D01*
X11710428Y-15933500D01*
X11724714Y-15876357D01*
X11739000Y-15847786D01*
X11753286Y-15833500D01*
X11781857Y-15819214D01*
X12010428Y-16119214D02*
X12010428Y-15919214D01*
X12010428Y-15947786D02*
X12024714Y-15933500D01*
X12053286Y-15919214D01*
X12096143Y-15919214D01*
X12124714Y-15933500D01*
X12139000Y-15962071D01*
X12139000Y-16119214D01*
X12139000Y-15962071D02*
X12153286Y-15933500D01*
X12181857Y-15919214D01*
X12224714Y-15919214D01*
X12253286Y-15933500D01*
X12267571Y-15962071D01*
X12267571Y-16119214D01*
X12410428Y-16119214D02*
X12410428Y-15919214D01*
X12410428Y-15947786D02*
X12424714Y-15933500D01*
X12453286Y-15919214D01*
X12496143Y-15919214D01*
X12524714Y-15933500D01*
X12539000Y-15962071D01*
X12539000Y-16119214D01*
X12539000Y-15962071D02*
X12553286Y-15933500D01*
X12581857Y-15919214D01*
X12624714Y-15919214D01*
X12653286Y-15933500D01*
X12667571Y-15962071D01*
X12667571Y-16119214D01*
X13253286Y-15804929D02*
X12996143Y-16190643D01*
X13639000Y-15819214D02*
X13667571Y-15819214D01*
X13696143Y-15833500D01*
X13710428Y-15847786D01*
X13724714Y-15876357D01*
X13739000Y-15933500D01*
X13739000Y-16004929D01*
X13724714Y-16062071D01*
X13710428Y-16090643D01*
X13696143Y-16104929D01*
X13667571Y-16119214D01*
X13639000Y-16119214D01*
X13610428Y-16104929D01*
X13596143Y-16090643D01*
X13581857Y-16062071D01*
X13567571Y-16004929D01*
X13567571Y-15933500D01*
X13581857Y-15876357D01*
X13596143Y-15847786D01*
X13610428Y-15833500D01*
X13639000Y-15819214D01*
X13867571Y-16090643D02*
X13881857Y-16104929D01*
X13867571Y-16119214D01*
X13853286Y-16104929D01*
X13867571Y-16090643D01*
X13867571Y-16119214D01*
X14067571Y-15819214D02*
X14096143Y-15819214D01*
X14124714Y-15833500D01*
X14139000Y-15847786D01*
X14153286Y-15876357D01*
X14167571Y-15933500D01*
X14167571Y-16004929D01*
X14153286Y-16062071D01*
X14139000Y-16090643D01*
X14124714Y-16104929D01*
X14096143Y-16119214D01*
X14067571Y-16119214D01*
X14039000Y-16104929D01*
X14024714Y-16090643D01*
X14010428Y-16062071D01*
X13996143Y-16004929D01*
X13996143Y-15933500D01*
X14010428Y-15876357D01*
X14024714Y-15847786D01*
X14039000Y-15833500D01*
X14067571Y-15819214D01*
X14439000Y-15819214D02*
X14296143Y-15819214D01*
X14281857Y-15962071D01*
X14296143Y-15947786D01*
X14324714Y-15933500D01*
X14396143Y-15933500D01*
X14424714Y-15947786D01*
X14439000Y-15962071D01*
X14453286Y-15990643D01*
X14453286Y-16062071D01*
X14439000Y-16090643D01*
X14424714Y-16104929D01*
X14396143Y-16119214D01*
X14324714Y-16119214D01*
X14296143Y-16104929D01*
X14281857Y-16090643D01*
X14739000Y-16119214D02*
X14567571Y-16119214D01*
X14653286Y-16119214D02*
X14653286Y-15819214D01*
X14624714Y-15862071D01*
X14596143Y-15890643D01*
X14567571Y-15904929D01*
X14853286Y-15819214D02*
X14853286Y-15876357D01*
X14967571Y-15819214D02*
X14967571Y-15876357D01*
X15410428Y-16233500D02*
X15396143Y-16219214D01*
X15367571Y-16176357D01*
X15353286Y-16147786D01*
X15339000Y-16104929D01*
X15324714Y-16033500D01*
X15324714Y-15976357D01*
X15339000Y-15904929D01*
X15353286Y-15862071D01*
X15367571Y-15833500D01*
X15396143Y-15790643D01*
X15410428Y-15776357D01*
X15496143Y-15819214D02*
X15696143Y-15819214D01*
X15567571Y-16119214D01*
X16039000Y-16119214D02*
X16039000Y-15819214D01*
X16167571Y-16119214D02*
X16167571Y-15962071D01*
X16153286Y-15933500D01*
X16124714Y-15919214D01*
X16081857Y-15919214D01*
X16053286Y-15933500D01*
X16039000Y-15947786D01*
X16353286Y-16119214D02*
X16324714Y-16104929D01*
X16310428Y-16090643D01*
X16296143Y-16062071D01*
X16296143Y-15976357D01*
X16310428Y-15947786D01*
X16324714Y-15933500D01*
X16353286Y-15919214D01*
X16396143Y-15919214D01*
X16424714Y-15933500D01*
X16439000Y-15947786D01*
X16453286Y-15976357D01*
X16453286Y-16062071D01*
X16439000Y-16090643D01*
X16424714Y-16104929D01*
X16396143Y-16119214D01*
X16353286Y-16119214D01*
X16624714Y-16119214D02*
X16596143Y-16104929D01*
X16581857Y-16076357D01*
X16581857Y-15819214D01*
X16853286Y-16104929D02*
X16824714Y-16119214D01*
X16767571Y-16119214D01*
X16739000Y-16104929D01*
X16724714Y-16076357D01*
X16724714Y-15962071D01*
X16739000Y-15933500D01*
X16767571Y-15919214D01*
X16824714Y-15919214D01*
X16853286Y-15933500D01*
X16867571Y-15962071D01*
X16867571Y-15990643D01*
X16724714Y-16019214D01*
X16981857Y-16104929D02*
X17010428Y-16119214D01*
X17067571Y-16119214D01*
X17096143Y-16104929D01*
X17110428Y-16076357D01*
X17110428Y-16062071D01*
X17096143Y-16033500D01*
X17067571Y-16019214D01*
X17024714Y-16019214D01*
X16996143Y-16004929D01*
X16981857Y-15976357D01*
X16981857Y-15962071D01*
X16996143Y-15933500D01*
X17024714Y-15919214D01*
X17067571Y-15919214D01*
X17096143Y-15933500D01*
X17210428Y-16233500D02*
X17224714Y-16219214D01*
X17253286Y-16176357D01*
X17267571Y-16147786D01*
X17281857Y-16104929D01*
X17296143Y-16033500D01*
X17296143Y-15976357D01*
X17281857Y-15904929D01*
X17267571Y-15862071D01*
X17253286Y-15833500D01*
X17224714Y-15790643D01*
X17210428Y-15776357D01*
M02*
